<svg id="svg" version="1.1" xmlns="http://www.w3.org/2000/svg" xmlns:xlink="http://www.w3.org/1999/xlink" width="400" height="508.71794871794873" viewBox="0, 0, 400,508.71794871794873"><g id="svgg"><path id="path0" d="M144.000 19.464 C 139.452 21.116,138.800 22.284,138.800 28.789 C 138.800 33.569,139.792 46.049,140.375 48.600 C 140.576 49.480,140.950 52.360,141.206 55.000 C 141.691 60.010,141.889 61.604,142.973 69.200 C 145.588 87.521,146.424 95.221,145.874 95.923 C 145.322 96.627,143.184 97.503,139.800 98.412 C 138.260 98.826,135.470 99.724,133.600 100.408 C 131.730 101.093,129.390 101.925,128.400 102.257 C 127.410 102.590,125.970 103.187,125.200 103.585 C 124.430 103.983,123.350 104.437,122.800 104.594 C 119.918 105.419,102.326 114.281,100.046 116.057 C 99.521 116.466,98.915 116.800,98.698 116.800 C 98.482 116.800,95.975 118.375,93.128 120.300 C 90.281 122.225,87.251 124.267,86.394 124.838 C 78.015 130.420,61.459 147.041,57.102 154.245 C 56.717 154.880,55.864 156.210,55.206 157.200 C 54.547 158.190,53.638 159.720,53.186 160.600 C 52.734 161.480,51.743 163.370,50.984 164.800 C 50.225 166.230,49.419 167.955,49.193 168.633 C 48.967 169.311,48.426 170.564,47.991 171.417 C 47.556 172.271,47.200 173.178,47.200 173.434 C 47.200 173.689,46.770 175.226,46.245 176.849 C 42.327 188.956,43.231 204.925,48.445 215.719 C 50.286 219.530,51.756 222.246,52.385 223.000 C 52.752 223.440,53.379 224.340,53.779 225.000 C 56.580 229.625,61.684 235.233,67.921 240.538 C 77.925 249.048,94.118 257.735,108.200 262.148 C 109.740 262.631,111.810 263.313,112.800 263.664 C 115.471 264.612,120.301 266.055,122.800 266.652 C 124.927 267.159,129.703 268.357,133.000 269.210 C 136.667 270.158,146.051 272.104,149.400 272.611 C 151.380 272.911,154.170 273.420,155.600 273.742 C 157.030 274.064,159.451 274.452,160.980 274.604 C 165.999 275.104,166.128 275.293,166.568 282.815 C 166.703 285.133,166.985 288.079,167.194 289.361 C 167.402 290.644,167.854 295.767,168.196 300.746 C 168.539 305.726,169.076 311.960,169.390 314.600 C 169.704 317.240,170.158 323.000,170.399 327.400 C 170.640 331.800,170.913 335.670,171.004 336.000 C 171.305 337.083,171.980 344.869,172.392 352.000 C 172.614 355.850,173.069 361.430,173.401 364.400 C 173.734 367.370,174.276 374.120,174.605 379.400 C 174.934 384.680,175.405 390.771,175.651 392.936 C 176.192 397.688,176.056 397.914,172.348 398.432 C 167.830 399.064,146.275 399.338,139.200 398.854 C 135.570 398.606,129.810 398.224,126.400 398.006 C 112.656 397.126,93.842 393.489,86.889 390.368 C 85.948 389.946,84.992 389.600,84.764 389.600 C 84.349 389.600,79.527 387.457,78.400 386.772 C 78.070 386.571,76.916 385.938,75.835 385.364 C 72.607 383.650,68.401 379.060,67.058 375.784 C 64.507 369.564,65.603 354.132,69.059 347.600 C 70.087 345.658,70.069 340.576,69.030 338.989 C 67.154 336.127,65.149 334.448,62.586 333.595 C 56.454 331.555,51.483 335.083,43.488 347.148 C 39.995 352.421,39.614 353.034,39.000 354.385 C 38.653 355.147,38.129 356.047,37.835 356.385 C 37.542 356.723,37.075 357.720,36.798 358.600 C 36.522 359.480,36.131 360.408,35.930 360.663 C 33.771 363.392,32.270 380.018,33.779 384.486 C 34.097 385.429,34.551 387.100,34.787 388.200 C 35.442 391.248,37.305 395.217,40.923 401.267 C 43.695 405.903,56.204 417.161,59.792 418.250 C 60.236 418.384,60.870 418.722,61.200 419.000 C 61.887 419.579,66.930 422.185,69.837 423.463 C 74.417 425.478,76.734 426.401,77.250 426.418 C 77.553 426.427,78.520 426.711,79.400 427.047 C 83.475 428.607,94.559 431.247,101.000 432.194 C 103.200 432.517,107.520 433.149,110.600 433.600 C 123.645 435.506,155.614 436.547,170.853 435.562 C 176.006 435.229,177.762 435.237,178.193 435.594 C 179.057 436.311,179.905 441.115,180.411 448.160 C 180.662 451.658,181.021 455.348,181.208 456.360 C 181.396 457.372,181.919 460.233,182.370 462.719 C 182.822 465.204,183.353 467.544,183.550 467.919 C 183.747 468.293,184.138 469.680,184.418 471.000 C 185.437 475.800,187.237 478.912,189.754 480.230 L 191.980 481.395 194.090 480.658 C 200.353 478.470,202.615 468.360,201.618 447.000 C 200.916 431.945,200.603 432.996,205.892 432.630 C 207.821 432.497,211.380 432.038,213.800 431.611 C 216.220 431.183,219.100 430.732,220.200 430.609 C 222.949 430.301,232.468 428.558,237.850 427.377 C 240.297 426.840,242.643 426.400,243.063 426.400 C 243.482 426.400,244.810 426.123,246.013 425.785 C 247.216 425.447,249.867 424.826,251.904 424.406 C 253.941 423.986,255.801 423.523,256.038 423.376 C 256.275 423.230,258.029 422.694,259.935 422.186 C 270.320 419.418,277.328 416.823,283.800 413.351 C 284.460 412.997,286.620 411.855,288.600 410.813 C 295.874 406.987,298.614 405.482,299.200 404.993 C 299.530 404.718,300.520 404.106,301.400 403.632 C 302.880 402.835,303.815 402.288,307.600 400.011 C 308.370 399.547,309.568 398.770,310.262 398.284 C 310.956 397.798,312.823 396.590,314.410 395.600 C 320.734 391.656,324.904 388.744,328.772 385.573 C 329.997 384.568,331.305 383.576,331.679 383.369 C 335.578 381.204,349.414 367.269,353.291 361.600 C 353.668 361.050,354.512 359.880,355.168 359.000 C 357.879 355.360,362.354 346.272,363.009 343.074 C 363.152 342.373,363.631 340.630,364.072 339.200 C 366.029 332.864,364.703 318.023,361.812 313.896 C 361.475 313.415,361.200 312.746,361.200 312.408 C 361.200 307.583,345.962 291.313,335.156 284.600 C 334.802 284.380,333.992 283.856,333.356 283.436 C 330.715 281.691,329.218 280.802,325.797 278.950 C 323.815 277.878,321.385 276.620,320.397 276.155 C 319.409 275.690,317.430 274.754,316.000 274.075 C 314.570 273.396,312.680 272.541,311.800 272.175 C 310.920 271.809,309.120 271.061,307.800 270.513 C 303.102 268.562,294.976 265.560,290.800 264.232 C 283.046 261.767,275.881 259.679,271.400 258.579 C 270.080 258.255,267.650 257.642,266.000 257.217 C 259.747 255.608,255.687 254.702,252.352 254.170 C 250.456 253.867,248.458 253.450,247.912 253.243 C 247.366 253.035,244.886 252.566,242.400 252.200 C 239.914 251.834,237.413 251.356,236.840 251.138 C 236.268 250.920,233.550 250.482,230.800 250.165 C 228.050 249.849,224.450 249.331,222.800 249.015 C 221.150 248.699,217.820 248.240,215.400 247.993 C 212.980 247.747,209.560 247.297,207.800 246.993 C 206.040 246.688,201.900 246.247,198.600 246.012 C 185.021 245.046,185.070 245.067,184.633 240.000 C 184.491 238.350,184.024 234.300,183.595 231.000 C 183.167 227.700,182.543 222.390,182.209 219.200 C 181.874 216.010,181.419 212.050,181.197 210.400 C 180.975 208.750,180.531 204.970,180.211 202.000 C 179.890 199.030,179.461 195.700,179.256 194.600 C 179.051 193.500,178.677 190.260,178.425 187.400 C 178.174 184.540,177.719 180.940,177.414 179.400 C 177.110 177.860,176.655 174.260,176.403 171.400 C 176.152 168.540,175.701 165.030,175.401 163.600 C 175.102 162.170,174.574 158.300,174.228 155.000 C 173.882 151.700,173.433 148.370,173.230 147.600 C 173.026 146.830,172.660 144.220,172.415 141.800 C 172.171 139.380,171.630 135.510,171.213 133.200 C 169.895 125.893,169.457 120.021,170.172 119.231 C 171.036 118.276,175.336 117.284,181.600 116.595 C 184.570 116.268,188.080 115.786,189.400 115.524 C 190.973 115.212,196.763 115.040,206.200 115.024 C 222.033 114.998,224.018 115.187,242.200 118.465 C 246.673 119.271,253.555 121.171,258.600 122.992 C 260.800 123.785,263.330 124.678,264.222 124.975 C 265.114 125.272,266.551 125.894,267.416 126.357 C 268.281 126.821,269.219 127.200,269.501 127.200 C 270.002 127.200,272.257 128.231,276.100 130.218 C 285.106 134.873,292.686 121.511,283.800 116.644 C 283.140 116.282,281.790 115.455,280.800 114.806 C 279.810 114.157,278.190 113.167,277.200 112.605 C 276.210 112.044,274.500 111.064,273.400 110.427 C 269.806 108.348,257.688 102.409,256.994 102.387 C 256.777 102.381,255.700 101.932,254.600 101.391 C 253.500 100.850,252.350 100.406,252.044 100.404 C 251.738 100.402,250.748 100.057,249.844 99.637 C 245.408 97.579,232.209 93.941,224.200 92.569 C 222.220 92.230,219.160 91.685,217.400 91.357 C 209.272 89.845,178.368 89.718,173.600 91.178 C 170.957 91.987,165.847 92.179,165.276 91.492 C 164.997 91.155,164.496 88.746,164.164 86.140 C 163.831 83.533,163.307 80.320,163.000 79.000 C 162.692 77.680,162.237 74.890,161.989 72.800 C 161.740 70.710,161.297 68.010,161.004 66.800 C 160.711 65.590,160.259 62.980,160.000 61.000 C 159.741 59.020,159.279 56.400,158.974 55.179 C 158.669 53.957,158.160 51.347,157.843 49.379 C 155.459 34.559,152.888 24.835,150.538 21.754 C 149.380 20.237,145.559 18.898,144.000 19.464 M149.533 125.319 C 150.104 126.007,150.670 129.350,151.408 136.400 C 151.742 139.590,152.283 144.000,152.610 146.200 C 152.937 148.400,153.470 152.961,153.794 156.336 C 154.118 159.711,154.656 164.391,154.990 166.736 C 155.324 169.081,155.774 173.272,155.990 176.050 C 156.206 178.827,156.648 182.787,156.972 184.850 C 157.297 186.912,157.760 191.210,158.002 194.400 C 158.243 197.590,158.693 201.640,159.002 203.400 C 159.310 205.160,159.759 209.570,160.000 213.200 C 160.240 216.830,160.608 220.700,160.818 221.800 C 161.300 224.332,162.396 236.322,162.398 239.086 C 162.400 241.749,161.889 242.044,158.400 241.393 C 156.970 241.127,153.550 240.514,150.800 240.031 C 148.050 239.549,144.900 238.907,143.800 238.604 C 142.700 238.301,140.810 237.930,139.600 237.778 C 138.390 237.627,136.590 237.190,135.600 236.808 C 134.610 236.426,132.990 235.990,132.000 235.838 C 128.861 235.358,115.763 230.905,110.525 228.538 C 109.383 228.022,108.326 227.600,108.175 227.600 C 107.895 227.600,102.450 224.921,101.000 224.070 C 100.560 223.812,99.750 223.417,99.200 223.192 C 98.650 222.968,97.451 222.293,96.536 221.692 C 79.986 210.829,74.163 201.171,75.923 187.502 C 76.811 180.608,81.008 172.190,87.543 164.200 C 91.957 158.802,94.485 156.264,100.078 151.618 C 107.015 145.855,111.518 142.534,113.851 141.458 C 114.539 141.141,115.227 140.681,115.378 140.435 C 115.530 140.190,116.317 139.619,117.127 139.168 C 117.937 138.716,119.320 137.917,120.200 137.391 C 122.870 135.797,136.439 129.200,137.049 129.200 C 137.213 129.200,138.079 128.851,138.974 128.425 C 140.443 127.725,142.314 126.957,146.400 125.377 C 148.188 124.685,148.994 124.670,149.533 125.319 M197.620 278.808 C 200.579 279.033,204.350 279.476,206.000 279.793 C 207.650 280.111,211.070 280.572,213.600 280.819 C 216.130 281.066,219.280 281.515,220.600 281.816 C 221.920 282.118,224.710 282.563,226.800 282.805 C 228.890 283.047,231.410 283.497,232.400 283.805 C 233.390 284.113,235.640 284.558,237.400 284.795 C 239.160 285.031,241.230 285.392,242.000 285.596 C 243.450 285.981,243.828 286.067,252.800 288.048 C 255.770 288.704,259.370 289.577,260.800 289.988 C 262.230 290.399,264.030 290.851,264.800 290.992 C 265.570 291.132,267.280 291.582,268.600 291.992 C 269.920 292.401,272.890 293.308,275.200 294.006 C 277.510 294.704,280.529 295.708,281.908 296.237 C 283.287 296.767,284.644 297.200,284.923 297.200 C 285.202 297.200,286.129 297.556,286.983 297.991 C 287.836 298.426,289.531 299.072,290.750 299.426 C 291.968 299.781,293.328 300.325,293.772 300.635 C 294.215 300.946,294.854 301.200,295.192 301.200 C 295.530 301.200,296.615 301.624,297.603 302.143 C 298.591 302.661,299.929 303.213,300.576 303.369 C 301.222 303.526,302.240 304.001,302.837 304.427 C 303.435 304.852,304.055 305.200,304.216 305.200 C 304.495 305.200,309.628 307.736,312.200 309.145 C 312.860 309.506,313.968 310.206,314.662 310.701 C 315.356 311.195,316.105 311.600,316.328 311.600 C 316.550 311.600,317.152 311.953,317.666 312.384 C 318.180 312.816,320.366 314.633,322.524 316.423 C 333.967 325.911,334.393 332.376,324.345 344.009 C 321.317 347.515,317.230 351.556,315.551 352.704 C 315.028 353.061,314.510 353.455,314.400 353.578 C 314.290 353.701,313.120 354.611,311.800 355.600 C 310.480 356.589,309.310 357.508,309.200 357.643 C 308.979 357.913,304.128 361.286,301.000 363.345 C 299.900 364.068,298.477 365.007,297.839 365.430 C 297.200 365.854,296.074 366.560,295.337 367.000 C 294.600 367.440,292.138 368.916,289.867 370.279 C 283.303 374.219,268.923 381.612,263.600 383.784 C 260.265 385.144,252.924 387.600,252.191 387.600 C 251.881 387.600,250.767 387.897,249.714 388.261 C 248.661 388.624,246.180 389.247,244.200 389.645 C 230.615 392.376,228.156 392.825,222.600 393.584 C 219.740 393.974,216.410 394.491,215.200 394.732 C 213.081 395.154,205.839 395.883,201.900 396.071 C 199.235 396.197,199.090 395.921,198.552 389.693 C 198.291 386.672,197.885 382.310,197.649 380.000 C 197.414 377.690,197.026 372.290,196.789 368.000 C 196.551 363.710,196.183 359.210,195.971 358.000 C 195.760 356.790,195.317 351.570,194.987 346.400 C 194.657 341.230,194.122 334.840,193.799 332.200 C 193.475 329.560,193.026 324.430,192.801 320.800 C 192.576 317.170,192.221 313.210,192.014 312.000 C 191.611 309.655,190.991 303.031,190.589 296.800 C 190.454 294.710,190.101 291.380,189.805 289.400 C 188.004 277.364,187.505 278.041,197.620 278.808 " stroke="none" fill="#000000" fill-rule="evenodd"></path></g></svg>