<svg id="svg" version="1.1" xmlns="http://www.w3.org/2000/svg" xmlns:xlink="http://www.w3.org/1999/xlink" width="400" height="415.5844155844156" viewBox="0, 0, 400,415.5844155844156"><g id="svgg"><path id="path0" d="M40.152 0.277 C 37.746 1.259,35.821 3.119,32.260 7.900 C 30.753 9.924,28.260 13.090,26.720 14.935 C 13.239 31.090,11.080 35.335,14.571 38.824 C 18.102 42.353,21.712 41.578,25.515 36.472 C 31.079 29.002,38.953 18.967,39.119 19.134 C 39.179 19.194,39.113 24.970,38.971 31.970 C 38.129 73.556,38.349 135.531,39.608 211.905 C 39.817 224.528,40.040 238.646,40.476 266.775 C 40.898 293.982,41.117 313.542,41.263 337.210 L 41.411 361.108 36.452 360.964 C 22.570 360.563,21.253 360.552,18.297 360.812 C 14.996 361.102,14.227 361.363,13.053 362.589 C 9.885 365.901,11.807 372.064,16.244 372.818 C 16.655 372.888,22.432 373.043,29.082 373.163 C 35.731 373.282,41.273 373.442,41.396 373.518 C 41.650 373.675,41.512 380.360,41.114 387.229 C 40.242 402.268,43.124 407.498,50.451 404.170 L 51.876 403.523 52.444 401.990 C 53.846 398.208,54.099 393.453,53.591 380.411 C 53.485 377.673,53.463 374.995,53.543 374.459 L 53.689 373.485 59.258 373.632 C 124.538 375.354,207.065 374.983,308.983 372.510 C 332.790 371.932,337.264 371.818,368.873 370.980 C 373.956 370.845,378.221 370.771,378.351 370.814 C 378.481 370.857,377.098 372.108,375.278 373.594 C 363.683 383.060,361.677 388.268,368.526 391.120 C 372.162 392.634,374.991 391.112,383.010 383.328 C 384.915 381.478,387.071 379.481,387.801 378.889 C 397.718 370.851,399.836 368.305,399.950 364.286 L 400.008 362.229 396.737 358.333 C 386.155 345.727,374.207 332.912,372.623 332.469 C 368.158 331.218,363.649 336.477,365.534 340.737 C 366.121 342.063,372.874 350.249,378.310 356.223 L 380.329 358.442 378.205 358.444 C 377.038 358.446,372.673 358.542,368.506 358.658 C 361.837 358.844,350.919 359.131,319.372 359.949 C 294.774 360.588,261.280 361.293,236.797 361.689 C 177.113 362.652,107.598 362.515,59.821 361.340 L 53.734 361.191 53.591 339.307 C 53.364 304.672,53.101 284.510,51.950 213.528 C 50.776 141.123,50.472 62.284,51.246 31.065 L 51.407 24.575 52.715 26.195 C 53.434 27.085,54.782 28.864,55.709 30.147 C 59.352 35.185,61.695 36.490,65.333 35.508 C 69.630 34.348,70.348 27.602,66.581 23.781 C 66.044 23.237,65.061 22.071,64.395 21.191 C 63.730 20.310,61.265 17.412,58.919 14.752 C 54.451 9.685,51.905 6.470,51.061 4.829 C 50.420 3.583,48.891 2.235,47.750 1.910 C 47.261 1.771,46.285 1.309,45.579 0.883 C 44.147 0.017,41.509 -0.277,40.152 0.277 M321.131 12.381 C 320.313 12.478,318.462 12.950,317.019 13.430 C 311.642 15.215,294.844 19.045,292.378 19.047 C 286.361 19.052,284.410 28.127,289.877 30.684 C 292.137 31.741,297.094 31.162,307.838 28.586 L 311.239 27.770 310.768 28.442 C 252.758 111.091,179.766 172.763,102.075 204.769 L 97.982 206.455 97.169 205.472 C 91.547 198.669,80.224 197.999,72.538 204.013 C 60.798 213.199,65.499 232.298,80.575 236.667 C 92.638 240.163,101.927 233.366,102.031 220.966 L 102.056 218.015 105.952 216.439 C 163.821 193.034,221.104 151.849,270.475 98.152 C 286.301 80.940,301.935 61.757,316.293 41.936 C 318.520 38.861,319.265 37.973,319.360 38.274 C 319.430 38.494,319.470 40.954,319.450 43.741 C 319.392 51.725,320.172 53.866,323.713 55.442 C 329.021 57.803,333.514 51.288,331.794 43.723 C 331.673 43.187,331.490 38.220,331.388 32.684 C 331.253 25.298,331.118 22.173,330.880 20.944 C 329.599 14.313,326.652 11.725,321.131 12.381 M6.277 69.369 C 0.696 70.482,-1.499 73.988,0.669 78.325 C 2.216 81.421,2.671 81.535,13.312 81.485 C 22.557 81.441,23.528 81.328,26.172 79.988 C 30.107 77.993,29.710 71.701,25.514 69.575 L 24.473 69.048 16.079 69.068 C 10.142 69.082,7.272 69.171,6.277 69.369 M290.847 115.389 C 289.087 115.502,286.652 115.722,285.436 115.878 C 284.122 116.046,282.918 116.090,282.468 115.986 C 278.790 115.138,276.256 117.147,275.113 121.819 C 273.983 126.434,273.985 130.524,275.124 147.078 C 275.268 149.167,275.320 152.255,275.244 154.221 C 275.170 156.126,275.019 160.070,274.907 162.987 C 274.589 171.331,274.643 204.620,275.000 220.022 C 275.332 234.302,275.459 238.954,276.185 263.312 C 276.420 271.169,276.712 281.250,276.836 285.714 C 277.180 298.190,277.526 321.780,277.453 327.814 L 277.388 333.225 277.963 334.321 C 279.410 337.081,280.579 337.587,286.178 337.879 C 288.602 338.006,292.971 338.249,295.887 338.419 C 307.845 339.118,316.145 339.049,322.520 338.198 C 324.497 337.934,326.938 337.879,334.559 337.927 L 344.117 337.987 345.045 337.336 C 345.598 336.947,346.189 336.262,346.511 335.637 L 347.050 334.590 347.000 273.518 C 346.940 198.716,346.738 178.800,345.779 152.922 C 345.367 141.798,345.288 140.790,344.747 139.719 C 341.638 133.564,327.830 118.365,323.268 116.077 C 322.461 115.672,321.825 115.634,313.853 115.506 C 309.150 115.431,302.771 115.327,299.675 115.276 C 296.580 115.225,292.608 115.276,290.847 115.389 M8.983 118.935 C 3.215 120.006,1.457 122.923,3.764 127.592 C 5.109 130.312,6.875 130.919,13.987 131.105 C 20.106 131.265,24.647 130.915,25.897 130.185 C 29.873 127.866,29.515 121.619,25.283 119.459 C 23.684 118.643,12.492 118.284,8.983 118.935 M316.586 128.626 C 316.418 129.809,315.694 138.416,315.271 144.264 C 314.986 148.189,314.731 152.393,314.178 162.229 C 312.933 184.365,312.734 225.880,313.640 274.567 C 313.746 280.281,313.902 294.283,313.987 305.682 L 314.140 326.407 309.072 326.408 C 303.836 326.409,291.312 326.045,290.133 325.857 L 289.465 325.751 289.315 308.384 C 289.232 298.832,289.122 290.092,289.070 288.961 C 289.018 287.830,288.920 282.863,288.853 277.922 C 288.786 272.982,288.590 262.657,288.418 254.978 C 287.417 210.321,287.270 202.340,286.996 177.814 C 286.859 165.652,286.823 150.184,286.910 142.045 L 287.065 127.706 301.890 127.706 L 316.716 127.706 316.586 128.626 M331.590 135.201 C 333.137 136.943,335.201 139.389,336.177 140.636 L 337.953 142.903 338.126 150.294 C 338.627 171.739,338.772 188.400,338.953 244.913 C 339.062 278.961,339.216 312.054,339.294 318.452 L 339.438 330.087 333.165 330.087 L 326.892 330.087 326.667 329.491 C 326.521 329.104,326.397 321.724,326.313 308.333 C 326.243 297.024,326.044 279.197,325.871 268.719 C 324.832 205.550,325.394 171.668,328.039 138.095 C 328.382 133.732,328.566 132.035,328.696 132.035 C 328.742 132.035,330.044 133.460,331.590 135.201 M10.823 171.541 C 4.898 173.200,4.017 180.751,9.467 183.162 C 11.097 183.883,23.400 184.129,25.568 183.483 C 30.313 182.070,31.761 177.055,28.474 173.417 C 27.107 171.904,26.144 171.583,22.859 171.542 C 21.299 171.523,18.220 171.439,16.017 171.357 C 12.732 171.234,11.799 171.267,10.823 171.541 M296.972 184.384 C 295.541 185.152,294.913 186.206,294.913 187.845 L 294.913 189.286 299.366 195.238 C 304.476 202.069,304.983 202.524,307.279 202.334 C 311.152 202.012,311.419 197.207,307.786 193.220 C 307.116 192.485,305.756 190.763,304.763 189.394 C 300.793 183.921,299.448 183.056,296.972 184.384 M212.987 199.784 C 211.737 199.888,209.389 200.063,207.769 200.172 C 201.964 200.565,200.857 201.912,200.445 209.091 C 199.108 232.333,199.004 254.141,200.008 300.216 C 200.139 306.228,200.319 315.871,200.408 321.645 C 200.588 333.283,200.542 332.927,202.075 334.624 C 202.524 335.122,203.287 335.730,203.769 335.976 C 204.251 336.222,204.988 336.698,205.407 337.034 C 207.213 338.482,205.617 338.368,230.952 338.859 C 239.348 339.021,245.791 338.796,247.733 338.273 C 248.242 338.135,251.654 338.014,256.086 337.976 C 266.390 337.888,269.349 337.304,270.990 335.038 C 271.646 334.133,272.151 332.336,271.976 331.534 C 271.297 328.432,270.225 304.968,269.591 279.329 C 269.016 256.106,268.526 242.759,267.858 232.191 C 267.687 229.479,267.600 226.508,267.666 225.589 C 267.809 223.574,267.122 221.964,264.552 218.290 C 259.863 211.588,249.849 201.440,246.564 200.062 C 245.694 199.697,216.905 199.459,212.987 199.784 M298.152 200.864 C 292.771 201.654,293.926 206.526,301.216 213.786 C 304.581 217.138,305.656 217.517,307.820 216.120 C 310.284 214.530,310.117 211.916,307.360 208.908 C 306.524 207.997,305.032 206.228,304.045 204.978 C 302.365 202.853,299.985 200.615,299.470 200.676 C 299.345 200.691,298.752 200.775,298.152 200.864 M238.181 215.693 C 236.896 261.198,237.387 297.526,239.612 321.645 C 239.848 324.205,240.041 326.385,240.042 326.490 C 240.043 326.676,226.942 326.548,217.394 326.269 L 212.818 326.135 212.691 320.264 C 212.621 317.036,212.509 310.790,212.442 306.385 C 212.375 301.981,212.179 291.510,212.007 283.117 C 211.472 256.985,211.601 233.364,212.366 217.388 L 212.627 211.940 225.456 211.976 L 238.284 212.013 238.181 215.693 M255.820 220.022 C 256.971 221.450,258.368 223.259,258.926 224.041 L 259.940 225.464 260.159 230.751 C 260.409 236.751,260.683 245.413,261.149 262.013 C 261.994 292.129,262.912 315.055,263.776 327.607 L 263.910 329.565 258.006 329.927 C 254.758 330.126,252.033 330.247,251.951 330.196 C 251.868 330.145,251.739 327.835,251.663 325.063 C 251.587 322.290,251.379 316.418,251.200 312.013 C 249.928 280.703,249.710 271.209,249.859 253.680 C 249.965 241.161,250.336 215.447,250.428 214.286 C 250.462 213.855,253.202 216.770,255.820 220.022 M295.130 216.636 C 293.346 217.738,292.583 220.005,293.409 221.746 C 293.847 222.668,300.226 228.964,301.612 229.842 C 304.392 231.602,307.576 229.801,307.576 226.466 C 307.576 225.445,306.718 223.593,306.245 223.593 C 306.119 223.593,304.589 222.149,302.845 220.384 C 298.802 216.290,297.060 215.444,295.130 216.636 M15.693 226.189 C 10.326 226.946,8.016 231.965,11.110 236.147 C 12.653 238.232,18.026 239.218,24.798 238.660 C 29.876 238.241,32.594 233.960,30.457 229.744 C 29.105 227.075,27.847 226.504,22.944 226.329 C 20.860 226.255,18.669 226.152,18.074 226.100 C 17.478 226.048,16.407 226.088,15.693 226.189 M138.222 242.962 C 133.525 243.635,129.769 245.271,128.923 247.012 C 126.518 251.963,125.980 266.396,127.065 296.861 C 127.258 302.304,127.374 311.436,127.330 317.857 C 127.323 318.929,127.196 321.412,127.049 323.377 C 126.304 333.306,127.567 337.836,131.385 338.930 C 131.921 339.083,132.846 339.445,133.442 339.734 C 135.529 340.748,135.603 340.756,143.398 340.924 C 147.731 341.017,152.688 341.253,154.978 341.476 C 161.336 342.094,170.127 342.041,173.369 341.366 C 176.283 340.759,178.636 340.805,183.658 341.567 C 193.104 342.999,195.106 341.605,194.624 333.931 C 193.851 321.626,193.871 305.699,194.703 271.753 C 194.895 263.924,194.643 263.333,188.323 256.803 C 186.472 254.890,183.616 251.901,181.977 250.162 C 176.581 244.433,175.878 244.131,167.424 243.915 C 163.972 243.827,158.907 243.547,156.169 243.294 C 149.723 242.697,141.177 242.539,138.222 242.962 M154.762 255.623 C 159.464 255.752,163.916 255.911,164.655 255.975 L 165.998 256.093 165.954 292.639 C 165.929 312.739,165.834 329.260,165.742 329.351 C 165.651 329.443,162.534 329.399,158.816 329.253 C 155.098 329.107,149.237 328.891,145.791 328.774 C 142.346 328.656,139.501 328.534,139.469 328.502 C 139.437 328.471,139.383 311.988,139.349 291.874 L 139.286 255.303 142.749 255.345 C 144.654 255.368,150.060 255.493,154.762 255.623 M183.074 262.771 L 186.863 266.991 186.720 276.840 C 186.641 282.256,186.467 291.802,186.334 298.052 C 186.099 309.074,186.202 323.535,186.564 330.411 C 186.658 332.197,186.715 333.684,186.689 333.717 C 186.629 333.793,179.474 333.325,178.842 333.203 L 178.355 333.109 178.355 295.417 L 178.355 257.725 178.820 258.137 C 179.077 258.364,180.991 260.449,183.074 262.771 M81.610 280.539 C 75.594 281.030,71.951 282.754,71.224 285.454 C 71.059 286.067,71.059 289.837,71.224 298.515 C 71.352 305.225,71.430 316.997,71.398 324.675 L 71.339 338.636 71.836 339.655 C 72.417 340.845,73.931 342.315,75.067 342.793 C 77.301 343.732,87.726 344.139,99.261 343.738 L 106.818 343.475 108.009 344.022 C 111.358 345.562,120.929 345.181,123.626 343.401 C 125.656 342.061,125.767 341.245,125.458 329.870 C 125.301 324.095,125.334 322.564,125.721 317.641 C 126.412 308.865,126.441 308.079,126.190 304.975 C 125.815 300.327,124.504 295.487,123.340 294.456 C 123.087 294.231,121.206 292.197,119.160 289.935 C 112.498 282.568,110.105 281.097,104.870 281.153 C 103.323 281.169,99.670 281.038,96.753 280.862 C 89.217 280.407,84.471 280.305,81.610 280.539 M150.974 286.735 C 149.225 287.172,143.691 291.914,142.768 293.767 C 141.442 296.427,143.205 299.589,145.831 299.259 C 148.511 298.921,155.095 293.641,155.495 291.508 C 155.981 288.911,153.356 286.139,150.974 286.735 M11.126 287.086 C 4.339 288.828,5.934 298.990,12.987 298.940 C 13.880 298.933,16.071 299.083,17.857 299.272 C 26.714 300.211,30.626 298.273,30.256 293.128 C 29.979 289.268,27.813 287.455,23.160 287.191 C 16.964 286.838,12.251 286.797,11.126 287.086 M100.755 294.210 C 100.235 299.361,100.084 314.506,100.451 324.691 C 100.580 328.273,100.653 331.232,100.614 331.266 C 100.574 331.301,96.742 331.397,92.100 331.480 L 83.658 331.632 83.644 314.355 C 83.636 304.852,83.556 296.177,83.466 295.076 L 83.301 293.074 92.085 293.074 L 100.870 293.074 100.755 294.210 M116.461 299.228 C 118.690 303.765,119.023 308.535,117.919 320.130 C 117.442 325.142,117.255 334.226,117.589 336.093 L 117.754 337.013 115.401 337.013 L 113.048 337.013 112.855 327.219 C 112.618 315.162,112.620 299.263,112.859 296.645 L 113.037 294.697 114.320 296.089 C 115.095 296.931,115.942 298.172,116.461 299.228 M152.381 298.184 C 150.618 299.497,143.792 306.171,143.359 307.005 C 141.475 310.633,146.282 313.873,149.670 311.259 C 159.279 303.846,161.576 297.841,155.029 297.249 C 153.814 297.139,153.758 297.158,152.381 298.184 M153.504 313.350 C 151.212 314.480,147.319 319.697,147.319 321.639 C 147.319 325.086,152.372 326.628,154.332 323.781 C 154.608 323.380,155.632 322.224,156.607 321.212 C 158.522 319.226,159.004 318.477,159.214 317.165 C 159.667 314.330,156.207 312.018,153.504 313.350 M303.992 386.661 C 301.066 388.023,300.606 389.434,300.639 396.941 C 300.666 403.215,300.827 404.462,301.830 406.169 C 303.772 409.470,308.488 409.895,311.356 407.028 C 312.912 405.472,312.954 405.236,313.009 397.901 L 313.058 391.366 312.355 389.938 C 310.791 386.760,306.983 385.268,303.992 386.661 M224.773 387.889 C 221.391 389.190,220.464 392.422,220.725 401.991 C 220.962 410.667,231.329 411.682,233.087 403.201 C 233.439 401.502,233.240 392.687,232.821 391.427 C 231.740 388.176,228.140 386.593,224.773 387.889 M97.257 388.548 C 94.775 389.502,93.519 391.462,93.511 394.388 C 93.509 395.409,93.351 397.795,93.160 399.691 C 92.716 404.107,92.832 407.431,93.489 409.139 C 96.077 415.862,105.467 413.846,105.242 406.615 C 105.208 405.536,105.346 402.737,105.548 400.395 C 106.393 390.615,103.316 386.219,97.257 388.548 M162.529 389.233 C 159.833 390.629,159.463 391.532,159.053 397.727 C 158.522 405.742,158.731 411.010,159.650 412.802 C 161.787 416.966,169.390 416.302,170.750 411.832 C 171.267 410.134,171.496 393.463,171.021 392.118 C 169.888 388.907,165.824 387.527,162.529 389.233 " stroke="none" fill="#000000" fill-rule="evenodd"></path></g></svg>