<?xml version="1.0" encoding="utf-8"?>
<!-- Generator: Adobe Illustrator 27.2.0, SVG Export Plug-In . SVG Version: 6.00 Build 0)  -->
<svg version="1.1" xmlns="http://www.w3.org/2000/svg" xmlns:xlink="http://www.w3.org/1999/xlink" x="0px" y="0px"
	 viewBox="0 0 1000 1000" style="enable-background:new 0 0 1000 1000;" xml:space="preserve">
<style type="text/css">
	.st0{fill:#FFFFFF;}
	.st1{fill:#E24C3A;stroke:#000000;stroke-width:4;stroke-linecap:round;stroke-linejoin:round;stroke-miterlimit:10;}
	.st2{fill:#AB2C25;stroke:#000000;stroke-width:4;stroke-linecap:round;stroke-linejoin:round;stroke-miterlimit:10;}
	.st3{fill:#DE503A;stroke:#000000;stroke-width:4;stroke-linecap:round;stroke-linejoin:round;stroke-miterlimit:10;}
	.st4{fill:#CAD7DE;stroke:#000000;stroke-width:4;stroke-linecap:round;stroke-linejoin:round;stroke-miterlimit:10;}
	.st5{fill:#E8F0FB;stroke:#000000;stroke-width:4;stroke-linecap:round;stroke-linejoin:round;stroke-miterlimit:10;}
	.st6{fill:#E7ECFA;stroke:#000000;stroke-width:4;stroke-linecap:round;stroke-linejoin:round;stroke-miterlimit:10;}
	.st7{fill:#828C94;}
	.st8{fill:#D0393F;}
	.st9{fill:#114472;stroke:#000000;stroke-width:4;stroke-miterlimit:10;}
	.st10{fill:#114472;stroke:#000000;stroke-width:4;stroke-linecap:round;stroke-linejoin:round;stroke-miterlimit:10;}
	.st11{fill:#3F2216;stroke:#000000;stroke-width:4;stroke-miterlimit:10;}
	.st12{fill:#FFFFFF;stroke:#000000;stroke-width:4;stroke-miterlimit:10;}
	.st13{fill:#EDB087;stroke:#000000;stroke-width:4;stroke-linecap:round;stroke-linejoin:round;stroke-miterlimit:10;}
	.st14{fill:#0C2E47;stroke:#000000;stroke-width:4;stroke-miterlimit:10;}
	.st15{fill:#7A1D32;stroke:#000000;stroke-width:4;stroke-linecap:round;stroke-linejoin:round;stroke-miterlimit:10;}
	.st16{fill:#FFFFFF;stroke:#000000;stroke-width:4;stroke-linecap:round;stroke-linejoin:round;stroke-miterlimit:10;}
	.st17{fill:none;stroke:#000000;stroke-width:4;stroke-linecap:round;stroke-linejoin:round;stroke-miterlimit:10;}
	.st18{fill:none;stroke:#000000;stroke-width:4;stroke-miterlimit:10;}
	.st19{opacity:0.32;}
	.st20{fill:none;stroke:#E89C78;stroke-width:4;stroke-miterlimit:10;}
	.st21{fill:#E89C78;}
	.st22{fill:#FFFFFF;stroke:#000000;stroke-width:3;stroke-linecap:round;stroke-linejoin:round;stroke-miterlimit:10;}
	.st23{fill:#FBB03B;stroke:#000000;stroke-width:2;stroke-miterlimit:10;}
	.st24{fill:#4682AF;}
	.st25{fill:#2A150F;stroke:#000000;stroke-miterlimit:10;}
	.st26{fill:url(#SVGID_1_);stroke:#000000;stroke-miterlimit:10;}
	.st27{fill:#F6D2BA;}
	.st28{fill:#EDB087;}
	.st29{fill:#7A1D32;}
	.st30{fill:#FBB03B;}
	.st31{fill:#3F2216;}
	.st32{fill:#2D1708;}
	.st33{fill:#114472;}
	.st34{fill:#F4DBCA;}
	.st35{fill:#F0C0A5;}
	.st36{fill:#E7B28C;}
	.st37{fill:#BDA895;}
	.st38{fill:#F2D14E;}
	.st39{fill:#45B7BD;}
	.st40{fill:#C6434A;}
	.st41{fill:#EB8080;}
	.st42{fill:#77373A;}
	.st43{fill:#7F6B97;}
	.st44{fill:#404E75;}
	.st45{fill:#F2A26E;}
</style>
<g id="BG">
	<rect class="st0" width="1000" height="1000"/>
</g>
<g id="Громофон">
	<path class="st1" d="M724.33,572.53l-21.11-2.64l-30.89-6.45c0,0-15.77-37.77,6.45-84.66h16.44l27.78,1.11l9.33,0.67
		C732.33,480.56,719.89,521.17,724.33,572.53z"/>
	<polygon class="st2" points="723,479.89 695.22,478.78 700.85,467.22 720.56,467.22 	"/>
	<polygon class="st3" points="724.33,572.53 724.33,586.55 703.22,583.89 703.22,569.89 	"/>
	<polygon class="st4" points="779,592.33 773.52,647 739.44,644.56 743.77,608.87 743.77,589 	"/>
	<polygon class="st5" points="801,582.11 799.22,591.67 779,592.33 743.77,589 724.33,586.55 724.33,572.53 	"/>
	<path class="st6" d="M945.89,641.79c0,0-70.22-48.35-92.89-49.23l-52-10.45l-76.67-9.58c-4.44-51.36,8-91.97,8-91.97
		s83.78,16,148.67,10.22c0,0,39.56-4,87.11-23.56C968.11,467.22,977,544.35,945.89,641.79z"/>
	<path class="st7" d="M959.67,491.96c0,0-14.67,32.44-16,120.44C943.67,612.41,961,558.63,959.67,491.96z"/>
	<path class="st8" d="M535.72,422.67h23.39c0,0-1,8.78-3.22,10.11S535.14,433.56,535.72,422.67z"/>
</g>
<g id="Персонаж">
	<path class="st9" d="M470.12,944.26l-10.68,49.63H257.67c0,0-5.34-125.78-12.67-144c0,0-4.44-2.67-4.44,7.78
		c0,10.44-12,103.33-12,103.33l-3.34,32.89H104.56v-92.45c0,0,20.44-102.22,23.11-149.33c2.66-47.11,19.11-132,19.11-132
		s8.44-27.11,33.78-33.78c25.33-6.66,85.77-36,85.77-36l43.11-23.11c0,0-13.55,25.56-12,36.89c0,0-0.66,3.11,2,3.33
		c2.67,0.23,18.89,3.34,18.89,3.34s-22.25,16.89-21.01,23.78c1.24,6.88,13.68,28.88,13.68,28.88l159.11,320.8L470.12,944.26z"/>
	<path class="st9" d="M823.59,785.23c-1.37,17.79-12.81,43.77-12.81,43.77l-21.34,74.89l-13.33,41.33c0,0-5.11,16.22-17.55,23.34
		c-12.45,7.11-24,7.55-24,7.55s-22.23,0.67-40.67-14C675.44,947.44,647.22,903,647.22,903L621,861.22c0,0-3.56-4.89-4.89,2
		c-1.33,6.89-5.78,130.67-5.78,130.67H459.44l10.68-49.63l3.03-1.48l17.78-47.71c0,0,46.22-149.92,56.59-193.48
		c10.37-43.55,10.96-111.25,10.96-111.25l-19.85-20.6l8.3-5.33l-30.35-39.69l22.86,16.72l90.89,42c0,0,32.89,22.45,40,53.12
		c7.11,30.66,24.89,85.33,24.89,85.33l16.45,52.44l0.89,2.52l10.34-40.93c40.65,55.29,70.33,60.19,86.54,56.43
		C818.72,790.21,823.59,785.23,823.59,785.23z"/>
	<path class="st9" d="M558.48,590.34c0,0-0.59,67.7-10.96,111.25c-10.37,43.56-56.59,193.48-56.59,193.48l-17.78,47.71l-3.03,1.48
		l8.44-31.93l13.29-65.25l1.15-5.64l12.44-71.7c0,0,4.15-15.7,6.52-66.67c2.37-50.96-2.96-140-2.96-140l-1.2-15.69l-2.36-30.82
		l11.12,8.13l0.02,0.03l30.35,39.69l-8.3,5.33L558.48,590.34z"/>
	<path class="st10" d="M470.11,944.24L311,623.44c0,0-12.44-22-13.68-28.88c-1.24-6.89,21.01-23.78,21.01-23.78
		s-16.22-3.11-18.89-3.34c-2.66-0.22-2-3.33-2-3.33c-1.55-11.33,12-36.89,12-36.89l38.23-32.89c-8,10.52-6.97,18.82-6.97,18.82
		l10.26,24.09l1.6,3.76l37.92,103.41l40,133.92c0.52,1.36,1.06,2.84,1.61,4.41C446.9,825.35,469.75,942.34,470.11,944.24z"/>
	<path class="st11" d="M557,259.67c0,0,2.3,23.33-0.59,28.44c-2.89,5.11-3.63,6-3.63,6s-5.56-15.48-4.37-22.44l-18.37,7.4l3.11-8.88
		c0,0-19.19,2.96-33.15-4.6c-13.96-7.55-43-1.78-42.41,2.97c0,0-5.48,5.77-6.37,12.44c-0.89,6.67,2.37,25.78,0,40.15
		c0,0-3.85,10.07-12.89,19.7c0,0-4.59,19.11-3.11,26.37l-7.11,7.11c0,0,2.52-17.77-2.81-25.33c-5.34-7.56-7.41-10.81-14.97-13.04
		c-7.55-2.22-17.92,6.52-17.92,6.52s-6.08,19.11,2.66,38.22c0,0,6.52,21.34-0.59,36c-7.11,14.67-20.15,17.04-20.15,17.04l-6.19,0.8
		c-2.1-5.82-8.04-21.37-17.81-40.21c-12.44-24-20-52.89-20-72.44c0-19.56-3.11-34.22,4.45-59.56c4.19-14.06,13.59-26.61,21.12-35
		c5.54-6.17,12.5-10.86,20.23-13.85c6.01-2.33,13.48-5.94,17.76-10.7c8-8.89,45.78-20.45,61.33-14.22c0,0,47.89,1.23,72.45,21.22
		c1.93,1.57,4.03,2.95,6.2,4.18c7.27,4.12,23.4,14.94,25.8,31.04C562.78,265.89,557,259.67,557,259.67z"/>
	<path class="st12" d="M507.8,547.38c0,0-9.02,40.51-30.13,56.29c0,0-4.09-18.34-10.93-31.54c-3.48-6.73-7.67-12.12-12.41-13.06
		l0.74-2.81c0,0,25.04-6.96,48.37-46.37l2,6.67L507.8,547.38z"/>
	<path class="st12" d="M444.26,559.07c-2.85,4.57-6.87,11.59-10.72,18.48c-6.14,10.99-11.87,21.67-11.87,21.67
		c-39.56-13.78-70.71-61.98-70.71-61.98l-10.26-24.09c0,0-1.03-8.3,6.97-18.82l4.89-13.77L369,464.11c0,0-0.74,18.22-5.19,30.22
		c-4.44,12,77.63,62.67,77.63,62.67L444.26,559.07z"/>
	<path class="st13" d="M569,397.22l-8.22,0.45l-1.56,14.22l-29.33-0.67c0,0,3.55,22.89,26,21.56c0,0-5.56,14.44-1.78,29.11
		c3.78,14.67-13.28,20.44-13.28,20.44s-19.16,3.78-37.39-0.89v28.45c-23.33,39.41-48.37,46.37-48.37,46.37l-0.74,2.81h-10.07
		l-2.82-2.07c0,0-82.07-50.67-77.63-62.67c4.45-12,5.19-30.22,5.19-30.22V437c0,0-0.29-0.86-0.86-2.46l6.19-0.8
		c0,0,13.04-2.37,20.15-17.04c7.11-14.66,0.59-36,0.59-36c-8.74-19.11-2.66-38.22-2.66-38.22s10.37-8.74,17.92-6.52
		c7.56,2.23,9.63,5.48,14.97,13.04c5.33,7.56,2.81,25.33,2.81,25.33l7.11-7.11c-1.48-7.26,3.11-26.37,3.11-26.37
		c9.04-9.63,12.89-19.7,12.89-19.7c2.37-14.37-0.89-33.48,0-40.15c0.89-6.67,6.37-12.44,6.37-12.44
		c-0.59-4.75,28.45-10.52,42.41-2.97c13.96,7.56,33.15,4.6,33.15,4.6l-3.11,8.88l18.37-7.4c-1.19,6.96,4.37,22.44,4.37,22.44
		l3.11,19.56c0,0,2.44,32.89,0.22,37.33c-2.22,4.44,20,35.11,20,35.11S581.44,397.89,569,397.22z"/>
	<path class="st12" d="M809.44,792.35c-16.21,3.76-45.89-1.14-86.54-56.43l0.32-1.29c0,0-1.03-24.89,0-33.63l2.22-0.74
		c0,0,4.45,20.74,21.56,26.07c17.11,5.34,17.33,6.89,42.44,4c0,0,8.79,0.45,8.89-5.33c0.06-3.36,1.94-7.29,2.76-8.84l5.02,2.84
		l0.45,22.44C806.56,741.44,802.24,772.54,809.44,792.35z"/>
	<path class="st14" d="M823.59,785.23c0,0-4.87,4.98-14.15,7.12c-7.2-19.81-2.88-50.91-2.88-50.91s16,21.12,17.11,38.45
		C823.78,781.55,823.74,783.35,823.59,785.23z"/>
	<path class="st13" d="M835.67,667.22c-0.45,7.78-2.67,11.56-2.67,11.56s-8.89,17.78-20.44,27.55c-6.15,5.2-9.4,7.82-11.1,9.14
		c0,0,0,0-0.01,0.01c-1.1,0.85-1.55,1.16-1.71,1.26l1.26-0.63l0.09,0.05c-0.82,1.55-2.7,5.48-2.76,8.84
		c-0.1,5.78-8.89,5.33-8.89,5.33c-25.11,2.89-25.33,1.34-42.44-4c-17.11-5.33-21.56-26.07-21.56-26.07l0.75-16.15
		c0,0-10.52-6-9.86-27.78c0,0,0.45-12.22-2.22-15.11c-2.67-2.89-0.44-14.44-0.44-14.44s3.55-12,18.22-20c0,0,8.67,1.11,15.11,2.89
		c6.44,1.77,13.56,4.22,13.56,4.22l20.66-21.33c0,0,11.34-6.23,16.67,4.44c5.33,10.67,1.78,10.67,1.78,10.67s4.22,7.33,12.66,7.77
		c8.45,0.45,6.45,15.78,6.45,15.78s3.11,6.89,7.33,7.34c4.22,0.44,4.22,10.88,4.22,10.88v5.12
		C830.33,654.56,836.11,659.44,835.67,667.22z"/>
	<path class="st15" d="M491.85,847.08l-13.29,65.25l-8.44,31.93l-0.01-0.02c-0.36-1.9-23.21-118.89-38.02-161.5l-2.79-44.41v-86.22
		l9.77-56.89l-1.48-10.37l-4.05-7.3c3.85-6.89,7.87-13.91,10.72-18.48h10.07c4.74,0.94,8.93,6.33,12.41,13.06l-6.78,11.24v11.41
		c0,0,17.04,57.03,22.37,78.07l3.56,102.52l3.55,50.37L491.85,847.08z"/>
	<path class="st16" d="M511.96,703.07c-2.37,50.97-6.52,66.67-6.52,66.67L493,841.44l-1.15,5.64l-2.41-21.34l-3.55-50.37
		l-2.72-78.36c-0.58-16.75-3.2-33.37-7.79-49.49c-6.88-24.16-15.42-52.74-15.42-52.74v-11.41l6.78-11.24
		c6.84,13.2,10.93,31.54,10.93,31.54c21.11-15.78,30.13-56.29,30.13-56.29l1.2,15.69C509,563.07,514.33,652.11,511.96,703.07z"/>
	<path class="st16" d="M429.3,738.33l2.79,44.41c-0.55-1.57-1.09-3.05-1.61-4.41l-40-133.92L352.56,541l-1.6-3.76
		c0,0,31.15,48.2,70.71,61.98c0,0,5.73-10.68,11.87-21.67l4.05,7.3l1.48,10.37l-1.54,8.97c-5.48,31.89-8.23,64.19-8.23,96.54V738.33
		z"/>
	<path class="st17" d="M801.45,715.48c-0.03,0.06-0.17,0.3-0.36,0.68"/>
	<line class="st17" x1="809.44" y1="792.36" x2="809.44" y2="792.35"/>
	<line class="st17" x1="368.14" y1="434.54" x2="368.13" y2="434.54"/>
	<path class="st18" d="M395.71,383.1c0,0,10.85,19.9,30.63,20.35"/>
</g>
<g id="Тени">
	<path d="M706.13,763.67l6.67,19.78c-4.18,17.89-8.16,36.49-11.85,55.78c-4.6,24.08-8.39,47.35-11.5,69.7
		c-0.25-4.26-0.53-10.29-0.61-17.52c-0.3-26.76,2.38-46.81,4.63-63.15C695.86,810.84,699.7,788.88,706.13,763.67z"/>
	<path d="M629,872c1.88-50.88,3.75-101.75,5.63-152.63c0.63-14.69,0.37-17.89,0-17.93c-1.39-0.12-6.26,43.84-6.81,48.89
		c-2.14,19.32-2.81,28.51-4.14,42.21c-1.54,15.83-4.08,38.72-8.3,66.98c0.98-0.43,2.49-0.88,4.06-0.45c1.79,0.49,2.8,1.89,5.46,6.15
		C626.44,867.72,627.82,870,629,872z"/>
	<path d="M237.44,876.85c-1.87-18-3.61-36.23-5.22-54.69c-2.84-32.57-5.16-64.53-7-95.83l1.71,4.64c1.37,3.71,2.31,7.57,2.8,11.49
		c5.68,35.27,11.36,70.53,17.04,105.8c-0.86-0.08-2.1-0.05-3.26,0.59c-3.12,1.73-3.17,6.52-3.85,13.19
		C239.3,865.59,238.66,870.66,237.44,876.85z"/>
	<path class="st19" d="M357.3,551.96c0,0,20.5,33.97,60.12,51.63c3.37,1.5,7.37,0.52,9.55-2.45c0.03-0.05,0.07-0.09,0.1-0.14
		c3.41-4.74,8.22-16.74,8.22-16.74l-2.07-3.27l-10.3,18.53c0,0-2.37,2.96-6.22-0.89c0,0-17.04-6.67-33.78-24
		c-16.74-17.33-23.85-25.04-23.85-25.04l-3.7-4.44L357.3,551.96z"/>
	<path class="st19" d="M468.11,573.89c-0.93,0.78-1.85,1.56-2.78,2.33c0.91,1.96,2.21,4.98,3.44,8.78
		c4.14,12.72,3.41,21.45,7.56,22.78c0.81,0.26,2.14,0.34,4.17-0.85c0.54-0.3,1.33-0.75,2.24-1.38c3.26-2.23,5.62-4.89,8.7-9.33
		c2.13-3.08,4.04-6.19,6-9.78c2.17-3.96,5.32-9.79,8.11-17.89c1.11-3.21,1.86-5.92,2.33-7.78c-0.12-2.44-0.25-4.89-0.37-7.33
		c-0.58,1.41-1.16,2.81-1.74,4.22c-4.89,10.07-9.78,20.15-14.67,30.22c-4.03,7.4-9.28,15.68-12.63,14.74
		c-0.51-0.14-1.22-0.57-3.11-5.78c-2.57-7.07-3.03-11.11-5.15-17.41C469.39,576.97,468.59,575.02,468.11,573.89z"/>
	<path d="M169.15,595.81c0,0,51.56,94.04,56.07,120.35l3.19,19.45l-2.37-6.47c0,0-50.67-128.3-60.44-131.85
		C155.81,593.74,169.15,595.81,169.15,595.81z"/>
	<path d="M658.58,611.61c0,0-23.95,69.54-23.95,88.65s0,15.22,0,15.22l5.33-30.18l18.61-68.74V611.61z"/>
	<polygon points="104.96,893.86 127.22,871.32 135.29,867.67 104.96,900.36 	"/>
	<path d="M761.89,954.11c0,0-26.44,28.22-54.44,6.44s-1.33,2.44-1.33,2.44s30.67,21.11,57.56-4.89
		C763.67,958.11,770.68,947,761.89,954.11z"/>
	<path class="st19" d="M299.89,532.34c0,0-12.52,34.14-6.3,39.18c6.22,5.04,9.78,3.2,9.78,3.2s-16.59,15.75-13.63,20.49
		c2.96,4.75,75.45,162.97,93.95,187.53c0,0,28.42,60.19,58.94,119.45s26.81,45.26,26.81,45.26s-1.78-8.16-2.31-9.21
		c-0.52-1.05-39.98-80.6-39.98-80.6l-69.53-140.2l-53.51-106.87c0,0-7.32-13.03-6.79-16s4.76-9.06,4.76-9.06l16.25-14.72
		l-18.89-3.34c0,0-4.3-5.84-1.52-10.66c2.78-4.82,10.35-27.26,10.35-27.26L299.89,532.34z"/>
	<path class="st19" d="M531.67,537.44l24.15,29.19l-9.48,5.04l18.22,17.63c0,0,0.74,47.11-6.08,82.37
		c-6.81,35.26-15.7,67.54-15.7,67.54l-16.89,57.2l-15.41,52.15l-16,52.15l-18.07,43.54l-3.85,3.28l14.65-42.47l17.53-55.23
		l22.02-73.66l19.23-68.39l5.71-28.02l4.01-34.42l2.4-40.24l0.37-14.35l-19.43-20.58l7.6-6.13l-23.2-31.49l2.62-0.9L531.67,537.44z"
		/>
	<path d="M219.22,993.89c2.31-12.64,4.36-25.98,6.04-40c2.57-21.45,3.92-41.67,4.43-60.42c0.71,6.55,1.24,13.36,1.53,20.42
		c1.26,30.2-2.07,57.21-7.05,80H219.22z"/>
	<path class="st20" d="M804.11,690.33c0,0-17.41,12.22-31.82,6.44c0,0-8.85-3.78-2.18-11.56c6.67-7.78,42.22-27.33,42.22-27.33h7.78
		"/>
	<path class="st20" d="M808.56,636.56l-2.44-0.44c0,0-41.11,26.89-56.67,30.67s-10-16.89-10-16.89l54.67-33.56"/>
	<path class="st20" d="M774.38,681.39c0,0-10.86,7.01-20.04,4.94c-9.19-2.07-7.41-10.67-7.41-10.67s0.44-5.93,7.41-9.19l8.5-5.08"/>
	<path class="st21" d="M763.07,614.48c-0.91,0.54-1.83,1.09-2.74,1.63c2.08,5.14,1.01,11.04-2.74,15.11
		c-3.71,4.02-9.42,5.58-14.67,4c0,0-8.44,3.41-8.59,4.15c-0.15,0.74,4.15,0,4.15,0c1.38-0.52,3.44-1.17,6-1.48
		c2.57-0.31,4.3-0.11,5.33-0.07c4.32,0.14,10.76-2.13,13.85-7.11C766.53,626.1,766.16,619.81,763.07,614.48z"/>
	<path class="st21" d="M799.81,714.11c-12.72,3.43-21.93,2.69-28.15,1.26c-3.3-0.76-9.19-2.51-9.33-2.07
		c-0.13,0.39,4.4,2.24,4.89,2.44c4.48,1.83,13.66,4.34,30.91,2.14C798.7,716.62,799.26,715.37,799.81,714.11z"/>
	<polygon points="113.44,866.63 140.41,842.33 141.59,836.41 113.44,863.07 112.33,867.67 	"/>
	<polygon points="118.33,837.41 145.3,813.11 146.48,807.19 118.33,833.85 117.22,838.44 	"/>
	<path d="M470.11,636.78c0,0-11.48,32.67-39.18,56.07v7.26c0,0,22.77-7.21,42.81-55.26L470.11,636.78z"/>
	<path d="M476.33,656.56c-1.31,6.39-3.52,13.88-7.33,21.78c-10.96,22.68-28.61,35.25-38.07,40.95v9.05c0,0,36.21-17.56,49.25-59.89
		L476.33,656.56z"/>
	<path d="M438.56,583.33c0,0,11.1,4.44,20.88-0.78v11.67c0,0-12.11,3.56-19.66-0.56C439.78,593.67,437.11,584.44,438.56,583.33z"/>
	<path class="st22" d="M542.11,747.67l0.96-14.52c0,0,54.75-2.96,82.12,1.48c0,0,0.99,5.33-0.63,13.04
		C624.56,747.67,575.52,759.67,542.11,747.67z"/>
	<path d="M537.44,746.79c0,0,43.23,9.65,90.95-1.63v7.69c0,0-32.28,9.93-92.58-1.63L537.44,746.79z"/>
	<path class="st22" d="M104.96,403.44"/>
	<path id="Буговки_00000170985247896695587040000002187479434345102998_" class="st23" d="M788.62,840.45
		c0,0,0.63,5.82,6.46,3.96c5.83-1.87,4.32-8.64,2.47-9.18C795.7,834.69,788.88,834.86,788.62,840.45z"/>
	<path id="Буговки_00000120523564754017158620000014608846997003048837_" class="st23" d="M794.46,821.94
		c0,0,0.19,6.44,6.21,5.25c6.02-1.19,5.03-8.79,3.2-9.65C802.05,816.69,795.16,815.88,794.46,821.94z"/>
	<path class="st24" d="M335.07,509.89l-21.63,19.63c0,0-6.22,8.61-4.74,9.3c1.48,0.69,24.3-20.34,24.3-20.34l3.56-3.85
		C336.56,514.63,335.19,514.52,335.07,509.89z"/>
	<path class="st24" d="M295.37,540.41c0,0-71.11,41.39-105.19,48.7s-2.37,6.11-2.37,6.11s31.11-10.07,58.37-23.4
		s43.2-24.43,43.2-24.43S293.03,547.31,295.37,540.41z"/>
	<path class="st24" d="M164.11,604.29c0,0-9.78,6.04-15.11,32.49S135.22,739.2,135.22,739.2l-3.37,28.46c0,0,2.48,6.1,6.48-22.5
		c4-28.61,14.22-100.16,14.22-100.16l7.56-28.11C160.11,616.89,168.33,603.8,164.11,604.29z"/>
	<path class="st24" d="M537.58,544.59c0,0,35.89,20.4,77.45,37.68c8.86,3.68,16.91,9.09,23.68,15.89l13.41,13.46
		c0,0-6.52-1.87-18.96-12.39s-8.3-10.81-19.85-13.48c-11.56-2.67-70.27-34.57-70.27-34.57L537.58,544.59z"/>
	<path class="st24" d="M664.26,629.3l14.52,57.42l22.03,70.1c0,0,1.08,11.44-6.92-12.85c-8-24.3-21.63-72-21.63-72l-9.78-39.11
		C662.48,632.85,658.93,616.56,664.26,629.3z"/>
	<path class="st24" d="M514.3,527.22c7.4,10.05,14.8,20.09,22.2,30.14c0.46,0.44,1.7,1.75,1.54,3.35c-0.1,1-0.7,1.62-1.93,2.81
		c-5.34,5.19-6.51,5.48-7.53,5.46c-0.69-0.01-1.99-0.19-2.11-0.74c-0.3-1.3,6.4-2.44,7.41-6.35c0.45-1.72-0.36-3.32-0.89-4.3
		c-5.59-10.43-21.47-30.07-20.52-31.12C512.57,526.37,512.89,526.34,514.3,527.22z"/>
	<path class="st24" d="M307.22,543.44c0,0-5.78,14.89-3.78,19.11l17.78,4.22c0,0-9.83-7.81-14-7.71
		C307.22,559.07,310.56,538.78,307.22,543.44z"/>
	<path class="st24" d="M773.44,791.44c6,2.99,15.16,7.42,27.32,7.04c7.19-0.23,12.97-2.06,16.68-3.56c0.2,1.2,0.26,2.85-0.57,4.34
		c-2.71,4.85-12.62,3.91-19.21,3.29c-6.22-0.59-14.2-1.35-23.56-6.22c-13.44-7-21.21-18.08-20.67-18.67
		C753.92,777.15,760.39,784.94,773.44,791.44z"/>
	<polygon points="468.33,942.59 457.89,992.11 464.33,992.11 476.22,940 	"/>
	<path class="st21" d="M501.44,481.15v15.33c0,0-41.56-14.37-60.44-39.04c-11.38-14.86-16.34-22.83-16.32-32.41
		c0.01-2.78,0.47-9.67-3.85-13.47c-1.25-1.1-1.75-0.92-8.06-3.22c-10.24-3.73-12.41-5.47-12.94-7.61c-0.15-0.62,0.03-0.48-0.11-3.34
		c-0.13-2.55-0.37-4.63-0.56-6c1.09,1.38,2.6,3.1,4.61,4.85c0.71,0.62,2.96,2.54,6.33,4.43c3.04,1.7,5.37,2.48,8.94,3.67
		c3.29,1.09,4.14,1.08,4.56,1.06c1.07-0.06,1.86-0.33,2.67,0.11c0.92,0.5,1.28,1.61,1.44,2.44c0.04,6.87,1.23,17.33,7.88,27.02
		c1.23,1.79,2.39,3.19,4.25,5.23c5.88,6.47,14.86,16.36,29.73,25.92C482.1,474.16,492.37,478.34,501.44,481.15z"/>
	<path class="st21" d="M422.78,370.78c-0.59-0.15-4.15-38.67-19.56-26.22c-15.41,12.44,0,36,0,36l6.35,8.74c0,0,7.76,5.93,1.44-2.81
		c-6.32-8.74-14.58-21.19-11.85-28.3s5.98-12.15,8.35-11.11c2.37,1.04,8,7.85,8.44,11.56c0.44,3.7,0.74,5.33,0.74,5.33
		s-7.11,4.44-1.63,9.04s0.44,8.74,0.44,8.74s-0.74,4,4-0.3C424.26,377.15,422.78,370.78,422.78,370.78z"/>
</g>
<g id="Лицо">
	<path class="st25" d="M550.48,319.58l-29.41-3.91l-18.62,14.16l16.56-4.25c0.58-0.33,1.24-0.45,1.9-0.35
		c5.75,0.87,26.06,4.56,29.68,1.84c4.03-3.03,1.82-10.77,1.82-10.77L550.48,319.58z"/>
	<path class="st0" d="M516.33,345.59c3.05,3.79,7.58,4.49,13.56,5.33c8.32,1.17,12.48,1.75,15.48-0.99
		c4.53-4.15,2.8-12.2,2.56-13.25c-3.72-0.89-6.84-1.31-9.03-1.53c-5.88-0.59-12.46-1.18-19.61,1.55c-2.49,0.95-4.4,2.06-5.57,2.81
		C513.98,341.11,514.61,343.46,516.33,345.59z"/>
	<path d="M547.85,345.83c0.51-2,0.94-4.48,1-7.33c0.04-1.52-0.04-2.93-0.17-4.19c-0.42,0-0.85,0.01-1.27,0.01
		c-1.14-0.45-2.8-1.04-4.86-1.47c-1.7-0.36-4.33-0.75-10.96-0.37c-2.67,0.15-6.12,0.44-10.16,1.01c-2.87,1.43-5.73,2.86-8.6,4.29
		l0.72,4.31l0.61,0.83l0.53-2.49c2.79-1.3,5.59-2.59,8.38-3.89c5.37-1.41,12.63-2.33,20.54-0.3c1.08,0.28,2.11,0.59,3.09,0.94
		c0.38,1.57,0.76,3.15,1.14,4.72C547.85,343.22,547.85,344.52,547.85,345.83z"/>
	
		<linearGradient id="SVGID_1_" gradientUnits="userSpaceOnUse" x1="532.601" y1="323.1121" x2="532.601" y2="307.1203" gradientTransform="matrix(0.5851 0.0189 -0.0323 0.9995 238.5084 17.9886)">
		<stop  offset="0" style="stop-color:#0071BC"/>
		<stop  offset="0.1747" style="stop-color:#005892"/>
		<stop  offset="0.4617" style="stop-color:#003354"/>
		<stop  offset="0.705" style="stop-color:#001726"/>
		<stop  offset="0.8919" style="stop-color:#00060A"/>
		<stop  offset="1" style="stop-color:#000000"/>
	</linearGradient>
	<path class="st26" d="M536.08,335.33c-1.61,4.55-1.2,10.08,0.8,13.16c1.77,2.71,4.71,3.42,6.31,1.32c2.34-3.08,1.8-14.63,1.8-14.63
		l0,0L536.08,335.33z"/>
	<path class="st0" d="M541.32,339.39l0.83-0.53c0.35-0.22,0.8-0.16,1.07,0.15c0.29,0.34,0.6,0.81,0.61,1.25
		c0.01,0.84-0.86,1.72-0.86,1.72s-0.83,0.14-1.88-1.31C540.79,340.25,540.89,339.67,541.32,339.39z"/>
</g>
<g id="Палитра">
	<g>
		<rect x="687.9" y="-173.87" class="st27" width="132.81" height="132.81"/>
		<rect x="820.71" y="-173.87" class="st28" width="132.81" height="132.81"/>
		<rect x="953.52" y="-173.87" class="st21" width="132.81" height="132.81"/>
	</g>
	<g>
		<rect x="255.43" y="-173.87" class="st29" width="132.81" height="132.81"/>
		<rect x="122.62" y="-173.87" class="st30" width="132.81" height="132.81"/>
		<rect x="-10.19" y="-173.87" class="st31" width="132.81" height="132.81"/>
		<rect x="-143" y="-173.87" class="st32" width="132.81" height="132.81"/>
		<rect x="388.24" y="-173.87" class="st24" width="132.81" height="132.81"/>
		<rect x="521.06" y="-173.87" class="st33" width="132.81" height="132.81"/>
	</g>
	<g>
		<rect x="703.9" y="-323.61" class="st34" width="122.14" height="122.14"/>
		<rect x="826.04" y="-323.61" class="st35" width="122.14" height="122.14"/>
		<rect x="948.19" y="-323.61" class="st36" width="122.14" height="122.14"/>
	</g>
	<g>
		<rect x="-41.56" y="-303.64" class="st37" width="82.2" height="82.2"/>
		<rect x="-41.56" y="-303.64" class="st38" width="82.2" height="82.2"/>
		<rect x="40.64" y="-303.64" class="st39" width="82.2" height="82.2"/>
		<rect x="122.84" y="-303.64" class="st40" width="82.2" height="82.2"/>
		<rect x="205.04" y="-303.64" class="st37" width="82.2" height="82.2"/>
		<rect x="205.04" y="-303.64" class="st41" width="82.2" height="82.2"/>
		<rect x="287.24" y="-303.64" class="st37" width="82.2" height="82.2"/>
		<rect x="287.24" y="-303.64" class="st42" width="82.2" height="82.2"/>
		<rect x="369.44" y="-303.64" class="st43" width="82.2" height="82.2"/>
		<rect x="451.64" y="-303.64" class="st44" width="82.2" height="82.2"/>
		<rect x="533.84" y="-303.64" class="st37" width="82.2" height="82.2"/>
		<rect x="533.84" y="-303.64" class="st45" width="82.2" height="82.2"/>
	</g>
</g>
</svg>
