<?xml version="1.0" encoding="utf-8"?>
<!-- Generator: Adobe Illustrator 27.2.0, SVG Export Plug-In . SVG Version: 6.00 Build 0)  -->
<svg version="1.1" xmlns="http://www.w3.org/2000/svg" xmlns:xlink="http://www.w3.org/1999/xlink" x="0px" y="0px"
	 viewBox="0 0 1000 1000" style="enable-background:new 0 0 1000 1000;" xml:space="preserve">
<style type="text/css">
	.st0{fill:#FFFFFF;}
	.st1{fill:#3F2216;stroke:#000000;stroke-width:3;stroke-miterlimit:10;}
	.st2{fill:#2D1708;}
	.st3{fill:#EDB087;stroke:#000000;stroke-width:3;stroke-miterlimit:10;}
	.st4{fill:#E89C78;}
	.st5{fill:#2A150F;stroke:#000000;stroke-miterlimit:10;}
	.st6{fill:url(#SVGID_1_);stroke:#000000;stroke-width:2;stroke-miterlimit:10;}
	.st7{fill:url(#SVGID_00000132803122056666775590000013299797925026842763_);stroke:#000000;stroke-width:2;stroke-miterlimit:10;}
	.st8{fill:#114472;stroke:#000000;stroke-width:4;stroke-miterlimit:10;}
	.st9{fill:#FBB03B;stroke:#000000;stroke-width:2;stroke-miterlimit:10;}
	.st10{fill:#FFFFFF;stroke:#000000;stroke-width:2;stroke-miterlimit:10;}
	.st11{fill:#7A1D32;stroke:#000000;stroke-width:3;stroke-miterlimit:10;}
	.st12{fill:#114472;stroke:#000000;stroke-width:2;stroke-miterlimit:10;}
	.st13{fill:#4682AF;}
	.st14{opacity:0.38;}
	.st15{fill:none;stroke:#000000;stroke-width:2;stroke-miterlimit:10;}
	.st16{fill:none;stroke:#000000;stroke-width:2;stroke-linecap:round;stroke-miterlimit:10;}
	.st17{fill:none;stroke:#000000;stroke-width:3;stroke-linecap:round;stroke-miterlimit:10;}
	.st18{stroke:#000000;stroke-width:3;stroke-miterlimit:10;}
	.st19{fill:#FFFFFF;stroke:#000000;stroke-width:3;stroke-miterlimit:10;}
	.st20{fill:none;stroke:#000000;stroke-linecap:round;stroke-miterlimit:10;}
	.st21{fill:none;stroke:#000000;stroke-width:0.75;stroke-linecap:round;stroke-miterlimit:10;}
	.st22{fill:#F6D2BA;}
	.st23{fill:#EDB087;}
	.st24{fill:#7A1D32;}
	.st25{fill:#FBB03B;}
	.st26{fill:#3F2216;}
	.st27{fill:#114472;}
</style>
<g id="BG">
	<rect class="st0" width="1000" height="1000"/>
</g>
<g id="Волосы">
	<path class="st1" d="M554.87,321.49l0.01-0.9l0.11-8.67c5.33-16.44,1.33-30,1.33-30c3.78-24.22-8.44-31.33-8.44-31.33
		c2.22-0.22,4.44-1.56,4.44-1.56c-2,0-5.11-3.33-5.11-3.33c-3.11-20.22-21.56-23.56-21.56-23.56c-26,0-31.78-2.22-31.78-2.22
		c-49.78-8.67-58,15.33-58,15.33l-3.33-3.33c-7.33,9.33-4.44,14.89-4.44,14.89c-36.89,24.22-9.11,68.67-9.11,68.67l1.85,16.96
		l14.37,21.7l69.56-11.11l44.67-4.22L554.87,321.49z"/>
	<path class="st2" d="M435.89,255.48c0,0-14.62-2.11-20.44,16c-5.82,18.11,0,27.56,0,27.56c-1.29-4.85-2.61-12.95,0-22
		c0.66-2.28,1.79-6.09,4.73-10.19C425.43,259.51,432.66,256.56,435.89,255.48z"/>
	<path class="st2" d="M431.68,264.81c0,0-14.3,9.11-10.72,31.33s4.91,21.63,4.91,21.63S415.03,283.48,431.68,264.81z"/>
	<path class="st2" d="M439,251.92c0,0,9.98-32.44,49.99-24c-4.67-0.54-15.64-1.16-27.77,4.44
		C448.27,238.35,441.48,247.97,439,251.92z"/>
	<path class="st2" d="M454.63,248.14c0,0,17.52-27.56,74.91-10.37C529.54,237.77,487.07,225.77,454.63,248.14z"/>
	<path class="st2" d="M493.74,259.99c0.44-0.07,0.75-0.19,0.81-0.41c0.44-1.55-12.05-9.01-25.27-8.73
		c-7.02,0.15-12.72,2.46-16.58,4.54c3.63-1.45,9.32-3.18,16.41-3.15C481.27,252.31,490.1,257.53,493.74,259.99z"/>
	<path class="st2" d="M493.44,246.14c0,0,17.33-14.67,45.78,2C539.22,248.14,525.8,239.31,493.44,246.14z"/>
	<path class="st2" d="M555.66,272.59c0,0-13.03-6-14.66-9.11l1.62,3.11c0,0,12.57,7.64,13.03,7.43S555.66,272.59,555.66,272.59z"/>
	<polygon class="st2" points="555.74,277.22 542.22,268.75 542.96,270.81 555.21,277.7 	"/>
	<polygon class="st2" points="555.39,280.74 542.85,272.51 543.36,274.02 555.39,281.33 	"/>
	<polygon class="st2" points="555.74,284.35 543.8,276.12 544.28,277.63 555.74,284.94 	"/>
	<polygon class="st2" points="556.44,288.75 544.62,280.53 545.1,282.04 556.44,289.35 	"/>
	<polygon class="st2" points="420.97,317.55 430.89,309.92 431.68,307.75 421.44,316.25 	"/>
	<polygon class="st2" points="420.97,320.61 429.33,313.25 428.78,315.7 420.97,321.62 	"/>
	<polygon class="st2" points="422.33,322.92 428.44,317.77 427.56,321.12 421.78,324.7 	"/>
	<polygon class="st2" points="423.56,327.14 427.89,323.97 427.11,327.14 421.78,329.37 	"/>
	<path class="st2" d="M556.69,292.88c-0.35-0.22-9.76-7.56-9.76-7.56l0.46,2.37l9.3,6.37V292.88z"/>
	<polygon class="st2" points="555.81,295.81 548.43,291.52 548.7,292.92 555.81,296.99 	"/>
</g>
<g id="Голова">
	<path class="st3" d="M441.59,414.07l-1.33-25.04c0,0-8.3-8-8.74-14.96c0,0-23.41,6.81-25.48-31.56c0,0-2.07-22.07,14.81-10.07
		l11.26,15.56c0,0-2.52-24.74-1.48-32.44c0,0,6.37-10.52,6.81-27.7c0,0-2.67-20.3,4.15-24s14.96,1.63,14.96,1.63
		s12.44,5.83,30.52-2.94c0,0,6.22-1.06,10.22,6.05c0,0,1.04-3.7-3.85-9.04c0,0,12.15,2.81,28.89-3.26
		c16.74-6.07,18.81,23.85,18.81,23.85s3.11,8.89,9.93,22.81l1.33,31.82c0,0-1.63-15.67,4.44-13.15c6.07,2.52,5.78,8.15,5.78,8.15
		s4.74,18.37-9.04,32.44c0,0,0.74,14.81-2.67,21.48c-3.41,6.67-11.7,18.67-11.7,18.67l-0.03,2.41v54.64l-95.52-4.83L441.59,414.07z"
		/>
</g>
<g id="Лицо">
	<path class="st4" d="M456.85,443.99c-2.67-2.07-4.28-4.46-5.19-6.08v-21.9c0.41-2.48,0.96-7.89-1.33-14.1
		c-2.5-6.79-6.98-10.71-8.96-12.26c-0.22-0.59-0.44-1.18-0.66-1.78c4.93,3.58,9.85,7.15,14.78,10.73c2.56-1.37,5.47-1.37,7.5,0.08
		c1.23,0.88,1.83,2.06,2.11,2.78c1.63,2.34,3.26,4.67,4.88,7.01c2.96,1.83,7.13,4.1,12.38,6.07c6.61,2.48,9.92,3.72,14.63,3.7
		c4.75-0.01,12.32-0.03,16-1.11c0.38-0.11,1.8-0.55,2.22,0c0.36,0.47-0.18,1.43-0.34,1.72c-1.7,3.07-11.64,2.57-12.77,2.5
		c-11.95-0.68-21-3.33-21-3.33c-5.05-1.48-6.96-2.51-8.11-1.44c-1.88,1.74,1.24,6.34,3,16.22c1.37,7.71,2.05,11.56-0.11,13.89
		C472.31,450.56,462.7,448.54,456.85,443.99z"/>
	<path class="st4" d="M502.89,325.18l1.37,26.48l-12.8,3.44c0,0,8.5,7.94,17.09,2.34l1.51-1.6L502.89,325.18z"/>
	<path class="st4" d="M553.89,350.25c0,0,5.78-6.99,4.78-13.66c0,0-0.22,6.23,1,6.67c1.22,0.44,2.44-3.56,2.44-3.56
		s-1.27-16.83-5.04-15c-3.78,1.83-3.18,15.11-3.18,15.11l-1.11,5.78C552.78,345.59,551.56,350.37,553.89,350.25z"/>
	<path d="M502.78,323.97l2.67,27.87c0,0-7.26,3.11-12,3.7c0,0,5.63,3.35,12,1.89c6.37-1.45,4.3-3.67,4.3-3.67L502.78,323.97z"/>
	<path class="st4" d="M419.22,341.51l2.52,5.15c0,0-4.31,1.78-2.52,6.81c1.78,5.04,6.66,8.34,6.66,8.34v-6.41v-6.67l-2.36-4.59
		L419.22,341.51z"/>
	<path class="st0" d="M455.37,325.18c7.28,3.21,13.4,3.53,16.96,3.41c4.86-0.16,9.29-0.31,12.11-3.67
		c3.41-4.06,2.06-9.96,1.78-11.11c-14.64-2.64-23.43-0.34-27.74,1.3c-2.6,0.99-6.66,2.59-6.81,5.26
		C451.53,322.71,454.48,324.63,455.37,325.18z"/>
	<path class="st0" d="M516.93,321.49c3.22,1.87,8.07,3.91,13.93,3.67c2.56-0.1,5.4-0.22,8.12-2.14c5.44-3.85,5.64-11.59,5.65-12.77
		c-0.87,0-2.18,0-3.77-0.02c-6.18-0.07-9.65-0.28-14.81-0.31c-9.03-0.06-9.95,0.5-10.52,1.25
		C513.34,314.06,516.11,319.87,516.93,321.49z"/>
	<path d="M539.22,400.92c-7.43,6.55-23.98,19.01-43.33,16.78c-12.58-1.45-24.29-8.87-39.41-18.46c-5.41-3.43-9.76-6.55-12.77-8.81
		c0.85,1.14,1.7,2.27,2.55,3.41c5.09,4.39,12.94,10.39,23.52,15.74c11.55,5.84,21.67,10.95,34.77,9.97
		c12.66-0.95,22.44-7.18,28.53-12.3c1.83-1.17,3.15-2.22,4.04-3c0,0,2.11-1.89,2.11-1.89l0,0V400.92z"/>
	<path d="M483,380.37c2.12,0.12,4.25,0.25,6.37,0.37c4.13,0,8.62-0.18,13.41-0.67c7.7-0.78,14.55-2.15,20.44-3.7
		c0.27,0,0.54,0,0.81,0v0.81c-9.72,3.8-17.64,4.84-23.26,5.04c0,0-1.73,0.06-16.09-0.15l0,0l-1.69-0.89V380.37z"/>
	<path d="M484.69,381.14c-0.33-1.1-0.67-2.21-1-3.31c-0.31-0.04-0.63-0.09-0.94-0.13l0.17,2.67l0.09,0.81L484.69,381.14z"/>
	<path d="M524.03,377.19c0.16-0.06,0.28-0.21,0.29-0.39l0.4-4.4l-1.01,0.4c-0.16,0.06-0.28,0.22-0.29,0.39l-0.33,4.35L524.03,377.19
		z"/>
	<path d="M495.89,389.11c0,0,6.22,1.93,17.85-1.26l-0.52,1.26c0,0-5.41,1.78-16.37,1.04L495.89,389.11z"/>
	<path d="M412.22,350.37c0,0-4.59-8.69,0.24-13.62c0.63-0.64,1.61-0.77,2.42-0.4c2.81,1.26,9.4,4.95,13.01,13.02
		c0,0-4.81,6.78,1.56,9.89c0,0,5.04,3.56,0,4c-5.04,0.44-7.26-8.59-7.26-8.59s0.51-5.52,2.37-6.81c1.44-1-5.24-6.34-8.31-8.68
		c-1.11-0.85-2.73-0.55-3.42,0.66c-0.7,1.23-1.1,3.26-0.12,6.53C414.78,353.33,412.22,350.37,412.22,350.37z"/>
	<path d="M561.28,335.28c0.17-1.97,0.32-6.77-2.78-9.52c-0.23-0.2-0.48-0.4-0.76-0.58c-0.53,0.35-1.25,0.92-1.9,1.79
		c-1.48,2.02-1.09,3.72-1.36,9.17c-0.28,5.43-0.1,8.43-1.02,9.17c-0.69,0.55-0.87,1.56-0.48,2.35c0.01,0.01,0.01,0.03,0.02,0.04
		c0.74,1.48,2.84-2.81,2.89-5.93c0.05-3.11-1.53-10.85,0.74-14.41c1.14-1.78,2.67,0.25,3.18,2.44c0.58,2.47,0.73,5.03,0.56,7.56
		l-0.17,2.03c-0.15,0.23-0.14,0.53,0.03,0.72c0.2,0.23,0.51,0.19,0.53,0.18C560.93,338.63,561.1,336.95,561.28,335.28z"/>
	<path class="st5" d="M484.69,300.14l-28.58-2.89l-8.33,12.05l6.77-3.94c0.47-0.27,1.01-0.38,1.55-0.31
		c4.7,0.65,28.05,3.72,30.98,1.45c3.26-2.52,1.37-8.81,1.37-8.81L484.69,300.14z"/>
	<path class="st5" d="M512.56,297.25c0,0-2.52,4.96,1.04,8.37s26.81-3.26,26.81-3.26s4.89,1.04,6.52,2.37
		c1.63,1.33-1.33-5.93-5.33-8.59l-26.52,3.85L512.56,297.25z"/>
	<polygon points="487.52,315.25 485.73,311.86 458.75,312.3 450.19,318.59 450.19,321.62 452.26,321.62 452.26,319.55 
		458.48,315.11 483.84,314.37 486.19,315.55 	"/>
	<polygon points="514.63,315.67 514.63,309.53 536.26,307.75 545.74,308.77 545.74,312.44 543.96,316.44 544.41,312.44 
		543.96,310.66 533.3,310.51 516.56,311.4 515.31,317.15 	"/>
	<linearGradient id="SVGID_1_" gradientUnits="userSpaceOnUse" x1="473.8864" y1="327.7884" x2="473.8864" y2="314.4576">
		<stop  offset="0" style="stop-color:#0071BC"/>
		<stop  offset="0.1747" style="stop-color:#005892"/>
		<stop  offset="0.4617" style="stop-color:#003354"/>
		<stop  offset="0.705" style="stop-color:#001726"/>
		<stop  offset="0.8919" style="stop-color:#00060A"/>
		<stop  offset="1" style="stop-color:#000000"/>
	</linearGradient>
	<path class="st6" d="M467.99,314.83c-2.08,3.84-1.24,8.43,1.75,10.94c2.64,2.21,6.85,2.73,9.04,0.93
		c3.19-2.63,1.89-12.24,1.89-12.24l0,0L467.99,314.83z"/>
	
		<linearGradient id="SVGID_00000070086966762251519350000009557953907865580968_" gradientUnits="userSpaceOnUse" x1="532.2352" y1="323.5807" x2="532.2352" y2="310.355">
		<stop  offset="0" style="stop-color:#0071BC"/>
		<stop  offset="0.1747" style="stop-color:#005892"/>
		<stop  offset="0.4617" style="stop-color:#003354"/>
		<stop  offset="0.705" style="stop-color:#001726"/>
		<stop  offset="0.8919" style="stop-color:#00060A"/>
		<stop  offset="1" style="stop-color:#000000"/>
	</linearGradient>
	
		<path style="fill:url(#SVGID_00000070086966762251519350000009557953907865580968_);stroke:#000000;stroke-width:2;stroke-miterlimit:10;" d="
		M526.67,310.69c-1.58,5.29-0.1,10.2,3.1,12c1.84,1.03,4.79,1.35,6.59-0.1c1.47-1.19,1.65-3.14,1.95-6.56
		c0.21-2.35,0.09-4.31-0.06-5.68C534.4,310.47,530.54,310.58,526.67,310.69z"/>
	<path class="st0" d="M476.62,315.7h1.33c0.55,0,1.03,0.4,1.1,0.95c0.09,0.6,0.1,1.36-0.21,1.86c-0.59,0.96-2.22,1.33-2.22,1.33
		s-1.05-0.44-1.19-2.86C475.4,316.29,475.93,315.7,476.62,315.7z"/>
	<path class="st0" d="M534.1,311.77h1.08c0.45,0,0.83,0.32,0.89,0.75c0.07,0.47,0.08,1.07-0.17,1.46c-0.48,0.76-1.79,1.05-1.79,1.05
		s-0.85-0.35-0.96-2.25C533.11,312.24,533.54,311.77,534.1,311.77z"/>
</g>
<g id="Одежда">
	<path class="st8" d="M366.5,755.3l-1.79,39.07h282.67l-1.19-22.82c0,0,40.89,6.37,48-27.41c7.11-33.78-1.19-92.44-12.44-162.37
		c0,0-4.74-88.31-48.59-113.49l-72.3-21.62l-150.22,8.3c0,0-87.63,36.3-102.07,60.07c0,0-15.33,16.67,0,64.22
		c0,0,18.67,83.78,19.11,86.44c0,0,6.44,46.22,29.78,80.89c0,0,16.67,31.56,60.22-9.33c0,0,71.48-92.37,83.63-156.67l8.3-40.89
		l-59.11-20.44c0,0-19.85,45.93-45.63,72.3l-43.7,48.59"/>
	<path id="Буговки_00000170985247896695587040000002187479434345102998_" class="st9" d="M496.7,549.03c0,0-5.11-1.56-5.63,4
		c-0.52,5.56,5.7,6.72,6.81,5.36S501.3,551.25,496.7,549.03z"/>
	<path id="Буговки_00000120523564754017158620000014608846997003048837_" class="st9" d="M493.28,566.41
		c0,0-4.92-1.35-5.41,3.48c-0.5,4.83,5.48,5.84,6.55,4.66C495.49,573.37,497.7,568.34,493.28,566.41z"/>
	<path id="Буговки_00000008850804565208454460000008184482805877486519_" class="st9" d="M501.4,718.9
		c0,0-4.92-1.35-5.41,3.48c-0.5,4.83,5.48,5.84,6.55,4.66C503.61,725.86,505.82,720.83,501.4,718.9z"/>
	<path id="Буговки_00000067940804582642063570000011734273527093782154_" class="st9" d="M514.05,723.28
		c0,0-4.92-1.35-5.41,3.48c-0.5,4.83,5.48,5.84,6.55,4.66C516.26,730.24,518.47,725.21,514.05,723.28z"/>
	<path d="M312.56,581.03c0,0,15.2,18.81,42.71,11.11c27.51-7.7,38.18-6.52,38.18-6.52s8.89,5.33,3.56,7.11s-42.07,0-49.78,3.26
		c0,0-28.05-0.52-32.89-6.52s-6.81-13.54-6.81-13.54L312.56,581.03z"/>
	<path d="M393.44,585.62c0,0-54.94-18.07-64.65-18.37c-9.72-0.3-9.72-0.3-9.72-0.3l10.96,2.07c0,0,56.33,14.54,60.32,19.35
		s7.08,0.36,7.08,0.36L393.44,585.62z"/>
	<path d="M362.63,639.25c-1.48,0.89-16.3,4.44-16.89,16.59v4.89l0.74-0.89c1.79-2.14,2.9-4.71,3.56-7.42
		c0.59-2.42,3.28-6.3,12.59-11.17l5.93-4.97l-1.54-1.48L362.63,639.25z"/>
	<path d="M368.56,631.92c0,0-9.94,6.44-13.42,22.74c-3.47,16.3-3.47,14.81-3.47,14.81h0c3.23-1.75,5.53-4.85,6.2-8.46
		c1.24-6.69,4.61-18.43,13.66-29.1H368.56z"/>
	<path d="M333.08,664.65c1.15,5.98,8.76,43.77,20.62,65.71c4.68,8.66,12.56,15.25,22.03,17.95c6.39,1.83,15.09,2.33,24.38-3.95
		c2.15-1.45,5.53-3.41,7.48-5.12l2.52-2.21l-3.37-2.69c-4.4-0.24-7.6,3.28-11.15,5.91c-3.24,2.4-10.77,5.73-15.56,4.78
		c-8.93-1.78-21.78-4-32-41.78c-6.9-25.5-8.94-30.75-9.54-31.47l0,0c-1.42-1.72-2.74-3.53-3.94-5.4l-1.18-1.84
		C333.28,664.39,333.05,664.48,333.08,664.65z"/>
	<path d="M648.72,676.98c0,0,38.06,9.38,38.06,18.27c0,6.02-1.22,9.27-2.01,10.74c-0.52,0.96-1.46,1.66-2.55,1.73
		c-0.44,0.03-0.93-0.04-1.44-0.28c-1.78-0.85-0.67-6.63,1.11-8.41c0.53-0.53,0.57-1.47,0.35-2.51c-0.66-3.21-3.09-5.75-6.18-6.82
		c-8.62-2.97-29.21-9.92-34.61-10.45C634.56,678.59,648.72,676.98,648.72,676.98"/>
	<path d="M629.47,467.18l3.68,1.1c0,0,0.21,84.78-8.42,120.1s0,0,0,0l-7.42,12.3c3.95-17.35,7.45-36.77,9.83-58.02
		C630.15,515.87,630.05,488.64,629.47,467.18z"/>
	<path d="M657.44,587.34c0,0,24.3-19.35,23.9-23.02c-0.22-2.02,0.09,0.91,0.41,3.94c0.33,3.15-0.97,6.25-3.45,8.21
		c-7.49,5.92-15.16,13.07-20.19,13.52C651.44,590.59,657.44,587.34,657.44,587.34z"/>
	<path d="M668.84,589.48c0,0,10.78-4.33,10.38-8c-0.22-2.02,2.46-2.53,2.78,0.5c0.33,3.15,2.32,0.81-0.17,2.78
		c-7.49,5.92-7.8,8.02-12.83,8.46C662.33,593.81,668.84,589.48,668.84,589.48z"/>
	<path d="M333.08,606.97c0,0-10.3,2.96-7.93,13.55c0,0,1.21,5.7,3.64,6.44c0,0,0.39,6.7,2.37,8.46s8.5,4.28,10.13,3.98
		c0,0,2.23,5.04,6.08,4.74c3.85-0.3,11.88-0.99,11.88-0.99l5.31-5.24L333.08,606.97z"/>
</g>
<g id="Рубашка">
	<path class="st10" d="M496.26,607.25c-8.69,17.48-17.38,34.96-26.07,52.44c5.27,2.43,14.84,5.92,26.97,5.34
		c6.06-0.29,11.19-1.52,15.1-2.82c12.59-42.16,25.18-84.32,37.76-126.47l5.09-75.42l-5.09-13.66c0,0-13.34,64.38-33.49,48.3
		c-3.11-2.48-5.58-2.16-6-2.09c-5.91,1.01-0.9,25.27-5.32,37.05c-0.33,0.87-1.63,4.15-0.2,5.82c1.18,1.37,3.19,0.48,4.5,1.62
		c2.25,1.96,0.02,7.89-0.82,10.34c-2.19,6.39,0.34,2.87-3.26,21.93C502.54,585.01,498.68,599.02,496.26,607.25z"/>
	<path class="st10" d="M441.01,416.02c1.31,5.43,5.02,17.5,15.85,27.98c2.6,2.52,15.84,15.33,32.95,15.42
		c20.06,0.1,40.08-17.33,47.64-43.39c0,0,3.18,3.43,14.81,16.35c2.18,2.42,2.82,6.8,2.42,12.33c-1.72,23.99-22.97,69.51-22.97,69.51
		l-41.91-29.04L461,514.22l-32.89-83.56L441.01,416.02z"/>
	<path class="st11" d="M508.7,547.7c0.41-1.5,1.76-6.19-0.59-9.19c-1.48-1.88-3.33-1.69-4.74-2.96c-2.02-1.83-2.81-6.36,1.66-17.78
		c2.31-5.23,4.62-10.47,6.94-15.7c2.86,0.59,5.73,1.19,8.59,1.78c0.96,1.76,2.6,5.32,2.67,10.07c0.08,6.08-2.46,10.47-3.56,12.15
		c2.88,21.97,4.47,49.25,1.78,80.3c-1.82,20.99-5.25,39.73-9.19,55.85c-8.79,0.54-17.58,1.09-26.37,1.63
		c-5.23-1.38-10.47-2.77-15.7-4.15c4.35-7.9,8.69-15.8,13.04-23.7c8.83-17.45,14.44-32.89,18.07-44.74
		C510.39,561.62,504.91,561.57,508.7,547.7z"/>
</g>
<g id="Воротник">
	<path class="st12" d="M461,505.03l-7.31-24.7l-25.58-49.67l-8.89,9.78l-12.75,10.29c-2.71,3.06-5.62,9.53,2.52,20.08
		c12,15.56,13.33,18.22,13.33,18.22l16.85,2.17c0.17,0.02,0.25,0.22,0.14,0.35l-10.77,13.47l12.11,22.49l3.75,4.55L461,505.03z"/>
	<path class="st12" d="M562.48,447.15l26.22,36.11l-11.41-0.15c-0.07-0.02-11.72-6.02-11.66-5.97c1.94,1.8,14.53,13.36,18.92,15.01
		c0,0-14.24,106.24-68.02,171.04l-10.5,1.18c0,0,50.02-105.71,47.09-209.41l1.34-15.81c0.11-1.27,1.76-1.68,2.45-0.61L562.48,447.15
		z"/>
</g>
<g id="Body">
	<path class="st3" d="M406.23,590.11c0,0-28.69-5.03-55.09,2.05c-1.81,0.48-3.5,1.37-4.85,2.67c-1.59,1.54-3.07,3.91-2.63,7.24
		c0,0-15.56,5.78-16.59,10.37c-0.83,3.69,0.06,5.85,1.9,7.17c0.78,0.56,1.73,0.83,2.69,0.83l0,0c0,0-2.22,10.96,1.63,11.7
		c0,0,4,2.52,9.93,1.78c0,0-0.59,5.78,2.22,6.37c2.81,0.59,8.59,1.93,15.7-0.15L406.23,590.11z"/>
	<path class="st3" d="M491.07,667.85c0,0-15.7-7.1-22.89-7.11l-28.62,45.91c0,0,16.1,7.87,45.14,16.46L491.07,667.85z"/>
	<path class="st3" d="M543.34,420.38c-0.1-0.25,2.97-4.24,3.88-6.02c6.67-13.04-1.78-11.85-1.78-11.85
		c-19.11,5.33-71.56,40.3-71.56,40.3s-2.81-13.33-4.59-23.85c-1.78-10.52-5.78-15.56-5.78-15.56c-2.81-8.3-9.04-2.96-9.04-2.96
		c-1.63,5.19,0,12.89,0,12.89c1.04,13.04,0,29.78,0,29.78c-6.52,18.96,0.52,42.7,0.52,42.7c1.67,13.78-3.88,33.67-3.88,33.67
		l53.02,18.34l5.45-12.78c0,0,26.31-24.3,40.19-47.11c0,0,1.88-9.48-4.93-16.89c0,0,2.81-7.85-4-14.96
		C540.85,446.07,548.91,434.4,543.34,420.38z"/>
</g>
<g id="Тени">
	<path class="st13" d="M314.67,591.31c0,0,20.11,122.83,45.89,152.17c5.57,6.34,12.47,8.27,12.47,8.27
		c15.42,4.73,31.18-7.18,33.31-8.83c10.31-8.01,18.22-21.2,18.22-21.2l0,0l6.44-8.47c-2.74,2.53-6.86,6.59-11.33,12.11
		c-4.09,5.05-4.39,6.29-7.22,9.33c-6.84,7.35-14.72,10.5-17.44,11.56c-6.28,2.43-13.78,5.34-21.78,3.11
		c-15.25-4.25-22.6-24.44-26.44-35c-0.64-1.76-1.67-4.82-2.11-6.11c0,0-3.55-10.5-6.89-22.11c-2.88-10-11.25-45.04-20.44-93.22
		C316.44,592.38,315.56,591.85,314.67,591.31z"/>
	<path d="M343.83,600.42c4.05-0.75,9.78-1.62,16.69-2c14.96-0.83,29.85,0.94,29.83,1.98c0,0.22-0.7,0.53-3.88,0.86
		c-5.96-0.77-12.91-1.28-20.67-1.11c-8.41,0.18-15.87,1.1-22.15,2.26C343.72,601.74,343.78,601.08,343.83,600.42z"/>
	<path class="st13" d="M314.56,515.92c0,0-15.78,11.78-2,61.78c0,0,1.78,6.07,3.56,5.26s-15.11-36.81,0-65.48
		C316.11,517.48,319,514.14,314.56,515.92z"/>
	<path d="M328.79,619.48c0,0,18.73-8.78,42.85-8.2c6.54,0.16,10.71,1,9.69,2.65l0,0c0,0-34.44-1.89-48.22,5.56l-0.89,0.67
		L328.79,619.48z"/>
	<path d="M340.48,633.7c0.27-0.72,0.68-1.56,1.32-2.4c2.16-2.81,5.33-3.55,6.45-3.75c0.9-0.23,1.84-0.44,2.82-0.62
		c5.31-0.94,10.09-0.58,13.92,0.15l4.78,0.78c0,0,1.17,0.83-1,1.17c-2.44,0.38-10.02-0.45-14.67,0c-4.58,0.45-7.86,2.34-8.89,3.7
		c-0.06,0.08-1.56,2.07-1.56,2.07l0,0l-0.44-0.89C342.31,633.85,341.4,633.77,340.48,633.7z"/>
	<path d="M543,420.03l-22.89,23c0,0-1.33,2.22,0,1.56c1.33-0.67,23.66-20.1,23.78-21.78C544.01,421.14,543,420.03,543,420.03z"/>
	<path d="M540.26,445.99c0,0-11.48,8.67-14.44,11.19c-2.96,2.52-1.11,2.22-1.11,2.22l16.4-13.06c0,0,0.84-0.98,0-0.66
		C540.26,445.99,540.26,445.99,540.26,445.99z"/>
	<path d="M544.94,460.32c0,0-10.72,11.06-11.44,11.61c-0.72,0.56,0,1.11,0,1.11l11.7-12.16L544.94,460.32z"/>
	<path d="M479.17,663.18h120.72l28.44-104.6c0,0,1.03-1.56,1.09-1.11c0.06,0.44-17.01,107.56-17.01,107.56l47.7,15.7
		c0,0,0.81,1.19,0,1.33c-0.81,0.15-169.04-14.22-169.04-14.22L479.17,663.18z"/>
	<path d="M485.3,723.7v3.85c0,0,74.37,32.3,160.89,44.15v9.19l-118.81-31.7l-47.26-13.59c0,0-3-5.73,0-13.87L485.3,723.7z"/>
	<path d="M367.01,758.07v13.04c0,0,41.64,14.81,72.56-37.04l12.9-21.93l-11.2-4.7c0,0-20.98,36.01-44.06,46.15
		c-1.57,0.69-3.07,1.52-4.56,2.39C390.2,757.42,383.67,759.49,367.01,758.07z"/>
	<path class="st14" d="M505.03,535.74c1.46,0.26,3.82,0.89,5.97,2.62c7.14,5.73,5.6,18.4,4.89,24.22
		c-3.37,27.72-33.73,94.1-36.72,100.6l-11.95-2.44c7.75-12.33,16.09-27.74,23.33-46.15c9.2-23.4,13.9-44.7,16.36-61.71
		c0.55-1.84,1.27-5.13,0.75-9.18C507.2,540.09,505.93,537.36,505.03,535.74z"/>
	<path d="M376.78,551.92l16.44,36.46l13.01,1.1c0,0,37.02-42.67,44.89-69.78l2.99-14.67h-2c0,0-31.55,65.3-48.67,79.78
		c0,0-2.22,4.44-11.33-11.56l-13.33-20.22L376.78,551.92z"/>
	<polyline class="st15" points="406.7,467.48 422,493.37 433.33,493.37 423.11,506.48 438.89,534.48 	"/>
	<path class="st16" d="M579.51,485.63c1.38,0.91,3.32,1.98,5.79,2.74c1.54,0.47,2.96,0.72,4.16,0.85c-0.41,2.16-1.02,5.33-1.79,9.15
		c-5.56,27.56-10.44,51.89-20.59,79.26c-7.79,21.01-15.9,36.33-20.52,44.96c-8.74,16.36-17.67,30.3-25.78,41.78"/>
	<path class="st17" d="M312.56,520.14c0,0,25-3.2,47.41,11.93c11.17,7.55,19.5,24.91,28.15,39.03"/>
	<path class="st16" d="M324.56,508.59c0,0,42.67-5.78,68.89,72.44"/>
	<path d="M567.34,476.97l-13.76-10.47l0.08,3.56c0,0,13.71,9.91,13.68,9.91C566.72,479.99,567.34,476.97,567.34,476.97z"/>
	<path d="M520.12,525.12l-12.95,4.96l-1.42,3.4l11.31-4.48C518.71,528.35,519.87,526.87,520.12,525.12L520.12,525.12z"/>
	<polygon points="509.3,532.07 506.22,557.39 507.76,539.06 505.75,537.15 504.75,536.4 507.02,532.07 	"/>
	<polygon class="st18" points="485.89,794.37 485.3,727.55 491.04,731.87 488.17,794.37 	"/>
	<path class="st19" d="M565,586.55l2.52-19.45c18.42-1.15,36.84-2.3,55.26-3.45l0,0l-1.74,19.3
		C621.03,582.96,600.78,590.96,565,586.55z"/>
	<path d="M563.31,585.62c0,0,35.16,4.26,59.47-5.05l-1.13,4.17c0,0-5.27,8.75-59.54,4.01L563.31,585.62z"/>
	<path d="M536.11,734.37c0,0,82.84,29.89,118.85,24.44"/>
	<path d="M587.44,755.03c0,0,50.55,13.11,75.72,10.67"/>
	<path d="M690.33,712.59c0,0-0.22,33.11-15.33,45.33"/>
	<path class="st20" d="M332.44,609.92c0,0-4,1.33-2,6.33"/>
	<path class="st20" d="M334.11,622.81c0,0-1,5.56,4.56,7.33"/>
	<path class="st21" d="M346.74,632.92c0,0-1.41,3.22,1.59,5"/>
	<polygon class="st19" points="491.07,667.85 478.78,662.1 468.76,718.72 485.3,725.77 	"/>
	<polygon class="st19" points="451.12,519.7 454.11,508.49 510.33,527.48 507.02,540.55 	"/>
	<path class="st13" d="M402.19,461.62c0,0-56.38,26.77-74.52,39.35s0,2.72,0,2.72l74.52-40.44V461.62z"/>
	<path class="st13" d="M461.89,527.48c0,0-8.22-3.69-9.11-2.95c-0.89,0.73-31.19,60.69-39.56,63.86c0,0-4,4.32-1.11,2.93
		c2.89-1.39,28.67-31.3,42-62.01C454.11,529.3,455.67,526.14,461.89,527.48z"/>
	<path class="st13" d="M391.67,612.14c0,0-27.93,25.33-30.07,43.11c-2.15,17.78,2.96-1.33,2.96-1.33s4.67-16.49,18.44-28.36
		S391.67,612.14,391.67,612.14z"/>
	<path class="st13" d="M568.7,452.51l59.41,17.7c0,0,1.48,2.64,0.74,3.02c-0.74,0.38-59.03-18.43-59.03-18.43L568.7,452.51z"/>
	<path class="st13" d="M634.93,473.25c0,0,17.32,11.06,28.91,40.03c2.46,6.16,4.33,12.54,5.75,19.02l7.63,34.74
		c0,0-1.61,4.89-2.69,2.67c-1.09-2.22-5.75-40.91-16.2-62.44c-7.99-16.47-16.76-25.82-20.44-29.3c-1.08-1.02-2.38-1.76-3.8-2.16l0,0
		v-3.22L634.93,473.25z"/>
	<path class="st13" d="M679.67,588.81l10.4,75.45c0.18,1.27-0.06,2.57-0.67,3.7l0,0c-0.35,0.65-1.34,0.47-1.43-0.27l-9.31-76.18
		c-0.06-0.53,0.05-1.06,0.32-1.52L679.67,588.81z"/>
	<path d="M455,410.88c0,0,3.85,0.15,4.07-2.37s-0.87-7.02-0.87-7.02l0.54-0.21c0,0,1.66,6.56,1.14,7.67s-0.02,1.57-4.76,2.83
		L455,410.88z"/>
</g>
<g id="Colors">
	<g>
		<rect x="539.12" y="-178.06" class="st22" width="132.81" height="132.81"/>
		<rect x="671.93" y="-178.06" class="st23" width="132.81" height="132.81"/>
		<rect x="804.74" y="-178.06" class="st4" width="132.81" height="132.81"/>
	</g>
	<g>
		<rect x="82.5" y="-178.06" class="st24" width="132.81" height="132.81"/>
		<rect x="-50.31" y="-178.06" class="st25" width="132.81" height="132.81"/>
		<rect x="-183.12" y="-178.06" class="st26" width="132.81" height="132.81"/>
		<rect x="-315.93" y="-178.06" class="st2" width="132.81" height="132.81"/>
		<rect x="215.31" y="-178.06" class="st13" width="132.81" height="132.81"/>
		<rect x="348.12" y="-178.06" class="st27" width="132.81" height="132.81"/>
	</g>
</g>
</svg>
