<?xml version="1.0" encoding="utf-8"?>
<!-- Generator: Adobe Illustrator 27.2.0, SVG Export Plug-In . SVG Version: 6.00 Build 0)  -->
<svg version="1.1" xmlns="http://www.w3.org/2000/svg" xmlns:xlink="http://www.w3.org/1999/xlink" x="0px" y="0px"
	 viewBox="0 0 1000 1000" style="enable-background:new 0 0 1000 1000;" xml:space="preserve">
<style type="text/css">
	.st0{fill:#FFFFFF;}
	.st1{fill:none;stroke:#1A1A1A;stroke-width:5;stroke-miterlimit:10;}
	.st2{fill:none;stroke:#39B54A;stroke-width:6;stroke-miterlimit:10;}
	.st3{fill:#3F2216;stroke:#000000;stroke-width:2;stroke-miterlimit:10;}
	.st4{fill:#EDB087;stroke:#000000;stroke-width:2;stroke-miterlimit:10;}
	.st5{fill:#FFFFFF;stroke:#000000;stroke-width:2;stroke-miterlimit:10;}
	.st6{fill:#114472;stroke:#000000;stroke-width:2;stroke-linecap:round;stroke-miterlimit:10;}
	.st7{fill:#FFFFFF;stroke:#000000;stroke-width:2;stroke-linecap:round;stroke-miterlimit:10;}
	.st8{fill:#114472;stroke:#000000;stroke-width:2;stroke-miterlimit:10;}
	.st9{fill:none;stroke:#000000;stroke-width:2;stroke-miterlimit:10;}
	.st10{fill:#29ABE2;stroke:#000000;stroke-width:2;stroke-miterlimit:10;}
	.st11{fill:#EFEFEF;stroke:#000000;stroke-width:2;stroke-miterlimit:10;}
	.st12{fill:#7A1D32;stroke:#000000;stroke-width:2;stroke-miterlimit:10;}
	.st13{fill:none;stroke:#000000;stroke-width:2;stroke-linecap:round;stroke-miterlimit:10;}
	.st14{fill:#FBB03B;stroke:#000000;stroke-miterlimit:10;}
	.st15{fill:#FFFFFF;stroke:#000000;stroke-miterlimit:10;}
	.st16{fill:#08253A;}
	.st17{fill:#E89C78;}
	.st18{fill:#4682AF;}
	.st19{fill:#FFFFFF;stroke:#000000;stroke-width:1.3;stroke-miterlimit:10;}
	.st20{fill:#42210B;stroke:#000000;stroke-miterlimit:10;}
	.st21{fill:url(#SVGID_1_);stroke:#000000;stroke-miterlimit:10;}
	.st22{fill:#DDDDDD;}
	.st23{fill:url(#SVGID_00000080166407112010540250000005367052323134382008_);stroke:#000000;stroke-miterlimit:10;}
	.st24{fill:none;stroke:#000000;stroke-width:1.3;stroke-linecap:round;stroke-miterlimit:10;}
	.st25{fill:#333333;}
	.st26{fill:#4D4D4D;}
	.st27{fill:#1A1A1A;}
	.st28{fill:#F6D2BA;}
	.st29{fill:#EDB087;}
	.st30{fill:#7A1D32;}
	.st31{fill:#FBB03B;}
	.st32{fill:#3F2216;}
	.st33{fill:#2D1708;}
	.st34{fill:#114472;}
</style>
<g id="BG">
	<rect id="BG_00000021113892068526717250000008664379010032305566_" y="0" class="st0" width="1000" height="1000"/>
</g>
<g id="Main">
	<rect x="500" y="183.67" class="st1" width="359.22" height="409.06"/>
	<polyline class="st2" points="547.9,517.62 585.12,418.04 644.11,493.36 675.22,349.96 736.41,430.78 812.11,222.78 	"/>
	<path class="st3" d="M375.72,268.66c-1.17,9.86-1.4,14.53-1.4,16.71c0.01,1.35-0.09,2.72-0.29,4.06c-0.06,0.43-0.14,0.87-0.22,1.3
		l-0.29,1.51c0,0-2.07,1.52-2.63-7.04c-0.55-8.56,1.24-11.31-1.52-15.6c-2.76-4.27-4.54-1.52-4.97-8.41
		c-0.41-6.9,2.62-13.8-2.62-15.04c-5.24-1.24-23.04-0.15-23.04-0.15s3.17,2.48,2.33,2.91c-0.82,0.41-5.79-2.91-8.97-3.18
		c-3.17-0.27-6.21,3.32-6.21,3.32s-11.04,0.97-14.9-2.35c-2.01-1.73-4.26-1.06-5.94-0.01c-1.64,1.02-2.58,2.83-2.52,4.76
		c0.17,5.18,0.34,16.69-1.48,18.71c-1.25,1.4-2.51,3.91-3.4,5.94c-0.84,1.92-1.27,4-1.22,6.1l0.48,19.56l-1.65-2.89l-5.23-7.62
		c-0.58-0.86-1.06-1.76-1.4-2.72c0,0,0,0-0.01,0c-0.4-1.07-0.66-2.2-0.75-3.35c-0.37-4.51-1.33-12.54-3.65-15.83
		c-3.32-4.69-3.32-16.28,2.48-25.11c5.79-8.83,7.45-4.14,9.93-14.63l1.24-3.45c0,0,0.68,2.77,3.03,3.04c0,0,8.15-16.42,33.53-9.93
		c0,0,6.07,3.17,11.87,3.03c5.79-0.14,16.55-0.82,19.87,5.8c3.18,6.36,8.52,5.6,8.33,16.14c-0.02,0.86,0.14,1.7,0.42,2.52
		C375.81,249.13,377.27,255.51,375.72,268.66z"/>
	<path class="st4" d="M379.62,291.81c-0.24-1.88-1.88-3.38-3.78-3.24c-0.65,0.05-1.29,0.3-1.81,0.87c-0.06,0.43-0.14,0.87-0.22,1.3
		l-0.29,1.51c0,0-2.07,1.52-2.63-7.04c-0.55-8.56,1.24-11.31-1.52-15.6c-2.76-4.27-4.54-1.52-4.97-8.41
		c-0.41-6.9,2.62-13.8-2.62-15.04c-5.24-1.24-23.04-0.15-23.04-0.15s3.17,2.48,2.33,2.91c-0.82,0.41-5.79-2.91-8.97-3.18
		c-3.17-0.27-6.21,3.32-6.21,3.32s-11.04,0.97-14.9-2.35c-2.01-1.73-4.26-1.06-5.94-0.01c-1.64,1.02-2.58,2.83-2.52,4.76
		c0.17,5.18,0.34,16.69-1.48,18.71c-1.25,1.4-2.51,3.91-3.4,5.94c-0.84,1.92-1.27,4-1.22,6.1l0.48,19.56l-1.65-2.89l-5.23-7.62
		c-0.58-0.86-1.06-1.76-1.4-2.72c0,0,0,0-0.01,0c-0.31-0.16-10.72-5.35-9.36,6.48c1.38,12.01,5.65,23.73,16.01,23.04
		c0,0,6.62,9.25,7.45,10.77c0.82,1.51,0,20.14,0,20.14l-3.32,2.21c0,0,7.04,21.94,23.87,29.94c0,0,1.18,0.91,2.94,2.19
		c1.75,1.25,4.09,2.87,6.42,4.32c3.12,1.94,6.23,3.56,7.89,3.56c1.12,0,3.35-1.43,6.04-3.66c0.73-0.61,1.39-1.19,2.1-1.84
		c0.22-0.2,0.45-0.42,0.67-0.63c0.32-0.3,0.63-0.58,0.96-0.89l0.15-0.14c6.53-6.35,13.71-15.29,13.96-19.87c0,0-4.27-6.77-5.1-9.52
		c-0.24-0.79-0.42-2.26-0.56-3.94c-0.34-4.14-0.41-9.59-0.41-9.59s12.55-12.14,13.8-28.7c0,0,5.25-2.48,6.36-7.04
		C379.49,301.16,380.64,299.78,379.62,291.81z"/>
	<path class="st5" d="M376.14,383.87l-7.18,0.29c0,0-6.01-3.18-18.52-0.14c6.53-6.35,13.71-15.29,13.96-19.87
		c0,0-4.27-6.77-5.1-9.52c-0.24-0.79-0.42-2.26-0.56-3.94c2.68,1.58,8.57,9.18,8.57,9.18c0.47,0.89,0.93,1.81,1.37,2.76
		C373.16,372.2,376.14,383.87,376.14,383.87z"/>
	<path class="st5" d="M326.23,383.29c-13-0.21-22.3,10.33-22.3,10.33h-6.99l-8.64-32.39l11.13-10.07c0,0,7.04,21.94,23.87,29.94
		C323.29,381.11,324.47,382.02,326.23,383.29z"/>
	<path class="st6" d="M318.46,543.38v86.21c0,0-1.11,23.62-3.3,51.22c-2.21,27.59-19.05,39.74-19.05,39.74
		c-21.14,3.2-37.81,2.17-49.62,0.16c-13.64-2.32-20.76-5.96-20.76-5.96l12.01-86.64c4.17-0.2,8.79-2.45,13.4-8.57
		c39.55,7.91,50.96-10.12,50.96-10.12c6.71-7.87-0.87-5.29-1.28-5.15c3.3-3.13,1.47-7.44,1.47-7.44s-5.39,0.01-7.41,0.3
		c0,0,1.89-6.37-7.31-2.55c-0.93,0.38-2.31,1.43-3.58,1.94l-7.09,2.88c0,0,7.45-8.42-8-5.77c-15.46,2.65-17.03-10.13-17.03-10.13
		s-1.74-4.05-7.21-9.57v-61.72c0,0-0.32,1.08-0.84,2.92c-0.01,0.02-0.02,0.05-0.02,0.06c-2.42,8.31-9.36,31.52-12.52,37.03
		c-0.14,0.25-0.26,0.5-0.37,0.76c-1.91,4.61,1.37,11.13,3.7,14.88c1.13,1.83,2.05,2.99,2.05,2.99s-9.51-2.21-10.62,3.59
		c-1.11,5.8,1.24,5.94,1.24,5.94s2.35,1.52,1.79,4c-0.31,1.42-0.43,2.58-0.48,3.32c-0.01,0.02-0.01,0.05-0.02,0.07
		c-1.27,3.63-2.5,7.81-3.43,12.49c-0.45,2.24-0.79,4.41-1.06,6.49c-0.32,2.41-0.51,4.72-0.62,6.88c-0.12,2.04-0.15,3.95-0.14,5.74
		c0.09,0.16,0.17,0.31,0.25,0.47l0.01,0.01c0.57,1.07,1.14,2.12,1.7,3.19c-1.54-0.91-3.39-3.49-3.39-3.49s-21.92-26.48-32.2-41.61
		c-1.04-1.53-1.96-2.93-2.73-4.18c-0.27-0.45-0.52-0.88-0.76-1.29c-7.35-12.88-2.2-29.07-2.2-29.07l30.9-148.64l54.76-24.99
		l10.37,11.74l-19.87,9.7C260.14,391.18,276.34,461.69,318.46,543.38z"/>
	<path class="st7" d="M251.13,619.54c-4.61,6.12-9.23,8.37-13.4,8.57c-5.14,0.26-9.59-2.58-12.46-5.07c-0.01,0-0.01,0-0.01-0.01
		c-0.56-1.07-1.13-2.12-1.7-3.19l-0.12-6.22c0.11-2.16,0.3-4.47,0.62-6.88c1.89-11.64,4.48-18.18,4.48-18.18v-0.14
		c0-0.14,0-0.37,0.02-0.68c0.11,1.15,0.3,2.82,0.68,4.76c0.72,3.65,2.84,14.32,11.81,21.64C243.02,615.75,246.31,618,251.13,619.54z
		"/>
	<path class="st6" d="M318.46,499.78v43.6c-42.12-81.69-58.32-152.2-58.32-152.2l19.87-9.7l-10.37-11.74l18.65-8.51l8.64,32.39h6.99
		L318.46,499.78z"/>
	<path class="st8" d="M406.03,394.36c0,0-7.87,82.42-24.26,152.97l-0.38-5.33l-12.42-157.85l7.18-0.29c0,0-2.98-11.66-7.46-21.25
		l28.9,11.5l-8.84,12.14L406.03,394.36z"/>
	<line class="st9" x1="368.68" y1="362.62" x2="368.66" y2="362.62"/>
	<path class="st9" d="M300.81,604.26c-0.01,0.01-0.01,0.01-0.01,0.01"/>
	<path class="st8" d="M593.2,492.18c-1.92,25.38-7.62,26.36-7.62,26.36l-42.77,22.9c-41.12,25.12-56.29,25.12-56.29,25.12
		c-14-2.73-29.56-17.68-39.4-28.71c-0.32-0.38-0.71-0.81-1.11-1.24c-5.45-6.22-8.89-10.89-8.89-10.89c-0.1,0.48-0.2,1.2-0.3,2.14
		v0.01c-1.23,11.96-2.19,58-2.19,58c1.38,40.01,11.31,132.74,11.31,132.74c-1.79,1.02-4.5,1.42-7.41,1.47
		c-6.57,0.12-14.11-1.47-14.11-1.47c-20.7-3.59-36.71-88.86-36.71-88.86l-5.96-82.42c16.39-70.55,24.26-152.97,24.26-152.97
		l-17.3-8.1l8.84-12.14l44.52,15.55l20.97,57.12c5.79,27.05,32.29,55.74,32.29,55.74c9.38,8,20.69,0.83,20.69,0.83l43.46-30.81
		c0.06-0.05,0.15,0,0.16,0.07l0.05,0.32c0,0.02,0.01,0.06,0.01,0.1l1.58,10.72c1.63,7.65,4.09,13.32,6.76,17.52
		c4.38,6.92,9.31,9.86,11.97,11.01c0,0,0.01,0.01,0.02,0.01c0.19,0.09,0.37,0.16,0.53,0.24c0.88,0.35,1.4,0.46,1.4,0.46
		s0.02-0.86,0.09-2.19c0,0,0,0,0-0.01c0.05-1.02,0.11-2.3,0.2-3.7c0.17-3.17,0.45-6.93,0.79-9.43v-0.05
		c0.17-1.25,0.01-4.18,0.22-4.57c0.01-0.01,0.01-0.02,0.02-0.02c0.01,0.01,0.01,0,0.01,0c0.04-0.05,0.09-0.05,0.14-0.04
		c0.38,0.14,1.15,1.29,1.81,1.11C587.97,493.37,593.2,492.18,593.2,492.18z"/>
	<path class="st4" d="M627.35,455.83l-4.05,2.37c0,0,0,6.25-4.41,6.62c0,0,0.55,4.05-1.84,5.51l-2.77,2.12c0,0,1.48,6.16-2.38,7.45
		c0,0-4.56,8.78-14.58,10.74c-0.63,0.14-1.29,0.24-1.97,0.3c-4.92,0.48-8.92,1.29-11.87,2.06c-0.05,0.01-0.09,0.02-0.14,0.04h-0.01
		c-3.8,1.02-5.84,1.95-5.84,1.95l-9.43,6.3c-2.67-4.2-5.13-9.87-6.76-17.52l-1.58-10.72c0-0.04-0.01-0.07-0.01-0.1
		c0-0.29,0.19-0.56,0.45-0.66c1.7-0.62,7.41-3.54,16.4-16.49c0,0,3.4-9.34,16.23-8.93c1.2,0.04,2.41-0.15,3.55-0.55
		c3.12-1.06,9.21-3.24,12.42-5.24c4.1-2.56,3.6-1.79,3.5-1.66l-0.01,0.01l-1.85,3.4c-0.15,0.26,0.06,0.57,0.36,0.53
		c0.66-0.09,1.71-0.2,2.96-0.24c1.6-0.06,3.49-0.02,5.18,0.34c1.29,0.27,2.46,0.75,3.29,1.48
		C622.19,444.95,632.5,452.92,627.35,455.83z"/>
	<path class="st10" d="M635.42,422.86l-16.52,20.62c-1.97-0.73-3.46-1.04-4.53-1.19c-0.56-0.08-1.56-0.18-2.37-0.92
		c-0.39-0.36-0.62-0.75-0.75-1.03c1.67-1.52,3.35-3.03,5.02-4.55l14.85-13.56l2.09-1.9c0.6-0.54,1.52-0.49,2.06,0.11l0.1,0.11
		C635.94,421.2,635.96,422.17,635.42,422.86z"/>
	<line class="st9" x1="616.27" y1="435.79" x2="612.27" y2="439.42"/>
	<path class="st8" d="M474.11,886.19l-36.15-24c-17.39-21.81-56.56-17.39-56.56-17.39l-35.6-96.31
		c-1.01,4.48-11.69,41.19-13.73,48.23l-0.16,0.6c-0.11,0.37-0.17,0.57-0.17,0.57l0.34,12.52l0.01,0.42l0.99,37.85l0.04,1.37
		l-7.31,0.94h-0.02l-1.22,0.16c-2.81,0.48-5.5,1.12-8.06,1.88c-26.9,7.91-40.23,29.31-40.23,29.31v-3.32
		c-0.83-5.8-17.93-50.78-17.93-50.78l-11.83-107.53c11.81,2.01,28.49,3.04,49.62-0.16c0,0,16.84-12.14,19.05-39.74
		c2.2-27.61,3.3-51.22,3.3-51.22v0.16h69.27c0,0,16.01,85.28,36.71,88.86c0,0,7.54,1.59,14.11,1.47L474.11,886.19z"/>
	<path class="st9" d="M332.53,848.86c0,0,10.76-4.42,48.29-5.24"/>
	<path class="st5" d="M318.46,499.78l-14.53-106.15c0,0,9.3-10.54,22.3-10.33c1.75,1.25,4.09,2.87,6.42,4.32
		c0,0-8.49,0.48-11.25,2.32c-2.76,1.84,8.18,14.9,8.18,14.9l5.25,192.89l26.49,18.13l13.61-22.44l-25.94-189.69
		c5.15-3.49,9.02-14.24,7.92-15.31c-1.11-1.06-10.34-0.91-10.34-0.91c0.73-0.61,1.39-1.19,2.1-1.84c0.22-0.2,0.45-0.42,0.67-0.63
		c0.32-0.3,0.63-0.58,0.96-0.89l0.15-0.14c12.51-3.04,18.52,0.14,18.52,0.14L381.38,542l0.38,5.33l5.96,82.42h-69.27V499.78z"/>
	<path class="st11" d="M350.3,384.15c-0.32,0.31-0.63,0.6-0.96,0.89c0.22-0.21,0.43-0.42,0.67-0.65L350.3,384.15z"/>
	<path class="st12" d="M348.99,403.73c-5.14,3.5-19.41,1.11-19.41,1.11s-10.94-13.06-8.18-14.9c2.76-1.84,11.25-2.32,11.25-2.32
		c3.12,1.94,6.23,3.56,7.89,3.56c1.12,0,3.35-1.43,6.04-3.66c0,0,9.24-0.15,10.34,0.91C358.01,389.49,354.15,400.24,348.99,403.73z"
		/>
	<path class="st12" d="M374.94,593.42l-13.61,22.44l-26.49-18.13l-5.25-192.89c0,0,14.27,2.4,19.41-1.11L374.94,593.42z"/>
	<path class="st7" d="M398.65,478.12c-1.42-0.55,1.86-10.18,1.86-10.18c4.78-0.92,36.61,0,36.61,0l-1.38,9.85
		C435.74,477.79,417.21,485.35,398.65,478.12z"/>
	<path class="st13" d="M395.31,476.49c0,0,15.5,10.04,41.81,0.84"/>
	<path class="st4" d="M302.09,609.42c0,0-11.41,18.03-50.96,10.12c-4.82-1.54-8.11-3.79-10.07-5.4
		c-8.97-7.33-11.09-17.99-11.81-21.64c-0.38-1.94-0.57-3.6-0.68-4.76c-0.02,0.31-0.02,0.55-0.02,0.68v-0.67
		c0.01-0.02,0.01-0.05,0.02-0.07c0.05-0.73,0.17-1.9,0.48-3.32c0.56-2.48-1.79-4-1.79-4s-2.35-0.14-1.24-5.94
		c1.11-5.8,10.62-3.59,10.62-3.59l8.01,3.08c5.48,5.53,7.21,9.57,7.21,9.57s1.56,12.78,17.03,10.13c15.45-2.65,8,5.77,8,5.77
		l7.09-2.88c1.27-0.51,2.65-1.55,3.58-1.94c9.2-3.82,7.31,2.55,7.31,2.55c2.02-0.29,7.41-0.3,7.41-0.3s1.84,4.31-1.47,7.44
		C301.22,604.13,308.8,601.54,302.09,609.42z"/>
	<path id="Буговки_00000068669805361519383860000010742942434341942972_" class="st14" d="M213.05,589.87
		c0,0-2.38-3.48-3.72,0.44c-1.34,3.92,3.03,4.62,4.02,3.83C214.33,593.34,215.74,592.24,213.05,589.87z"/>
	<path id="Буговки_00000000211988540122338210000009420267651494165637_" class="st14" d="M206.7,582.46
		c0,0-2.38-3.48-3.72,0.44c-1.34,3.92,3.03,4.62,4.02,3.83C207.99,585.94,209.39,584.83,206.7,582.46z"/>
	<path id="Буговки_00000059307787331040945740000000295244485580864945_" class="st14" d="M555.41,521.63
		c0,0-3.95,1.48-0.46,3.72s5.21-1.84,4.68-2.99S558.35,519.58,555.41,521.63z"/>
	<path id="Буговки_00000087414356956991443050000009472737510823865477_" class="st14" d="M546.7,526.02
		c0,0-3.95,1.48-0.46,3.72s5.21-1.84,4.68-2.99C550.38,525.6,549.64,523.98,546.7,526.02z"/>
</g>
<g id="Shadows">
	<path d="M232.55,436.12c0,0,11.77,22.44,13.61,73.68c0,0-15.82,34.68-15.27,43.14s4.23,14.9,4.23,14.9h-2.58
		c0,0-7.91-13.25-8.46-16.93c-0.55-3.68-18.95-4.78-21.16-2.39c-2.21,2.39,0-1.2,0-1.2s8.65-6.71,19.13-2.48
		C222.06,544.85,243.49,499.13,232.55,436.12z"/>
	<path d="M228.54,583.11v5.44c0,0-2.6,6.54-4.48,18.18c-0.24,1.44-0.46,2.97-0.67,4.57l0.05,2.31l0.12,6.22l-0.01-0.01l-33.88-41.9
		l-2.31-2.86l-0.42-1.33l-2.21-7.03l34.94,43.62c0-0.14,0.01-6.88,2.36-14.29C223.32,591.92,225.63,586.31,228.54,583.11z"/>
	<polygon points="218.07,401.9 230.03,430.78 230.15,427.47 218.93,399.51 	"/>
	<path d="M440.43,449l-4.69,77.91c0,0,8.07,7.06,11.38,10.95l9.66,9.24C456.78,547.1,444.57,516.61,440.43,449z"/>
	<path d="M351.29,742.55l9.39-8.77l-32.56,7.73c0,0-6.62,49.67-9.38,55.74s-2.21,18.49-2.21,18.49l-0.05,37.53l16.05-3.96
		l-0.65-52.01l13.06-49.45l0,0C347.16,746.2,349.27,744.43,351.29,742.55z"/>
	<path class="st15" d="M583.32,493.05c-0.01,0-0.01,0.01-0.02,0.02c-0.21,0.38-0.05,3.32-0.22,4.57v0.05
		c-0.35,2.5-0.62,6.26-0.79,9.43c-0.42,2.07-0.93,3.95-1.53,5.22c-0.05,0.09-0.1,0.17-0.16,0.22c-0.16-0.07-0.35-0.15-0.53-0.24
		c-0.01,0-0.02-0.01-0.02-0.01c-2.66-1.15-7.59-4.1-11.97-11.01l9.43-6.3C577.49,494.99,579.52,494.06,583.32,493.05z"/>
	<path class="st16" d="M592.76,492.69c-2.25,18.76-3.13,19.83-6.62,24.2c-3.5,4.41-17.55-12.46-18.32-13.4
		c0.02,0.02,0.04,0.04,0.06,0.06c3.71,3.7,7.92,7.12,12.69,10.16c0.24-0.22,0.6-0.55,0.97-1.01c1.67-2.06,1.93-4.39,2.12-7.4
		c0.35-5.71,0.23-10.94,0.23-10.94l0,0L592.76,492.69z"/>
	<polygon points="348.63,414.69 333.36,454.97 333.36,459.58 348.63,418.27 	"/>
	<polygon points="350.01,427.38 334.74,467.67 334.74,472.27 350.01,430.97 	"/>
	<path class="st17" d="M594.42,476.22c0,0-10.6,1.1-11.09-3.31c-0.5-4.42,0.55-6.26,5.55-6.26c5,0,12.17,0.97,12.17,0.97
		s-5.38-3.73-12.42-4.14c-7.04-0.41,2.35-9.38,12.97-6.07c0,0,5.38-2.48-2.62-2.9c-8-0.41,1.1-4.55,1.1-4.55h7.45
		c0,0,2.07-3.31,2.21-4.69s-1.79-1.93-1.79-1.93s-9.4,6.07-11.46,6.21c-2.06,0.14-3.72,3.73-3.72,3.73s-1.38,2.76-2.76,3.04
		c-1.38,0.28-5.52,1.38-5.52,2.62c0,0.77-0.11,2.14-0.19,3.05c-0.06,0.65-0.24,1.28-0.55,1.85c-0.43,0.78-1.13,1.97-2.02,3.1
		c-1.52,1.93-2.45,4.97-1.43,6.48c1.02,1.52,0.63,4.55,3.03,4.55h7.92c0.97,0,1.89-0.4,2.56-1.1L594.42,476.22z"/>
	<path class="st17" d="M274.03,598.43c0,0-13.66,6.48-24.84,4.55c0,0-4,0.69-3.04,1.93c0.97,1.24,17.52,2.9,23.46,0
		s7.66-3.93,7.66-3.93c1.27-0.72,1.51-0.92,1.48-0.97c-0.06-0.12-1.93,0.6-3.7,1.44c-1.55,0.74-2.35,1.26-2.48,1.1
		c-0.07-0.09,0.08-0.38,1.21-1.68c1.84-2.11,2.77-2.87,2.62-3.1C276.33,597.63,275.86,597.64,274.03,598.43z"/>
	<path class="st17" d="M295.42,605.4c0,0-21.81,9.73-32.3,9.04c0,0-4,0.97-2.48,1.38c1.52,0.41,16.83,1.66,22.21-1.24
		c5.38-2.9,12.31-4.86,14.38-6.65c0.09-0.07,0.77-0.84,0.6-1.07c-0.23-0.32-1.92,0.63-2.07,0.4c-0.17-0.27,2.14-1.79,1.93-2.21
		C297.62,604.89,297.14,604.86,295.42,605.4z"/>
	<path class="st17" d="M231.53,582.15c0,0,4.42,4,7.86,3.86c3.45-0.14,0,1.93,0,1.93h-7.86
		C231.53,587.94,230.98,584.63,231.53,582.15z"/>
	<polygon class="st18" points="286.93,363.96 272.56,370.48 274.93,372.4 288.29,367.85 	"/>
	<path class="st18" d="M269.07,372.4l-51,23.42c0,0-1.15,2.52,2.93,1.26c4.07-1.26,49.48-23.33,49.48-23.33
		S270.56,372.61,269.07,372.4z"/>
	<path class="st18" d="M215.89,405.64l-27.33,130.69c0,0,4.44-6.89,6.22-14.44c1.78-7.56,22-107.2,22-107.2
		S218.19,410.34,215.89,405.64z"/>
	<path class="st18" d="M185.44,551.67c0,0-1.04,13.33,5.48,19.7l7.26,9.04c0,0-1.04-5.19-2.07-6.81s-8.44-8-8.3-13.19
		S185.44,551.67,185.44,551.67z"/>
	<path class="st18" d="M372.41,366.48l1.93,4.89l16.15,6.22c0,0,3.41-2.07,3.26-2.81C393.59,374.04,372.41,366.48,372.41,366.48z"/>
	<path class="st18" d="M396.56,379.44c0.05,0.14,0.17,0.21,0.22,0.23c1,0.56,41.11,14.44,41.11,14.44s3.78-2.56,0.56-3.67
		c-3.22-1.11-39.33-13.56-39.33-13.56C397.48,377.95,396.37,378.91,396.56,379.44z"/>
	<path class="st18" d="M441.44,394.11L460.85,449c0,0,6.37,19.68,10.22,25.4c3.85,5.72-2.52-0.8-2.52-0.8l-11.68-30.81l-15.43-43.41
		C441.44,399.37,438.58,392.53,441.44,394.11z"/>
	<path class="st18" d="M277.22,387.51L263,392.33c0,0,11.11,38.44,12.67,40.44c1.56,2-9.11-34.18-8.89-36.2
		C267,394.56,277.22,387.51,277.22,387.51z"/>
	<path class="st18" d="M393,391.18l9.33,5.39l-2.67,28.65c0,0-0.44-23.87,0-25.71c0.44-1.84-8.89-8.33-8.89-8.33H393z"/>
</g>
<g id="Лицо">
	<polygon class="st17" points="340.67,288.56 344.33,309 333.44,309 340.33,305.78 338.22,289.22 340.11,287.42 	"/>
	<path class="st17" d="M308.48,335.3c-0.49-0.14-0.95-0.28-1.19-0.07c-0.32,0.29-0.03,1.11,0.08,1.41c0.81,2.21,3.04,4.14,5.43,6.78
		c1.25,1.38,1.88,2.21,3.4,3.6c0.55,0.5,1.16,1.02,1.83,1.54c4.07,3.17,7.89,4.55,9.11,4.96c2.36,0.8,7.45,2.45,13.93,1.26
		c6.66-1.23,11.07-4.78,12.96-6.52c1.1-1.34,2.19-2.69,3.29-4.03c-0.05-1.06-0.1-2.12-0.15-3.18c-2.12,2.17-6.83,6.35-14.06,7.95
		c-8.62,1.9-15.53-1.03-18.61-2.33c-4.44-1.88-10.62-6.45-12.11-8.44c-0.92-1.24-1.52-1.63-2.72-2.41
		C309.64,335.8,309.17,335.5,308.48,335.3z"/>
	<polygon points="334.35,308.16 341.22,306.63 338.86,289.44 339.8,288.56 343.75,308.16 	"/>
	<path class="st19" d="M352.5,318.74c-0.3,1.34-1.22,4.71-4.23,7.45c-4.05,3.69-8.95,3.63-10.52,3.58
		c-1.75-0.06-5.55-0.17-8.82-3.09c-3.32-2.96-3.9-6.84-4.02-7.94H352.5z"/>
	<path class="st20" d="M329.96,277.07c-13.54,1.49-17.99-1.59-18.61-0.91c-0.61,0.68-5.6,1.78-5.6,1.78
		c2.69-3.35,5.63-6.68,5.63-6.68l16.6,2.21l2.96-2.04C331.85,275.28,329.96,277.07,329.96,277.07z"/>
	<path class="st20" d="M366.99,278.4c0,0-3.41-0.35-3.97-1.04c-0.55-0.7-3.64,2.09-16.85-1.11c0,0-1.96-2.26-0.41-5.45l2.21,2.06
		l16.12-0.15C364.99,272.9,365.95,274.55,366.99,278.4z"/>
	<path class="st0" d="M309.98,289.52c4.45,2.15,8.24,2.49,10.45,2.49c3.02,0.01,5.77,0.01,7.6-2.01c2.21-2.44,1.5-6.13,1.35-6.86
		c-9.02-1.97-14.53-0.73-17.24,0.19c-1.63,0.56-4.19,1.46-4.35,3.11C307.66,287.9,309.44,289.16,309.98,289.52z"/>
	<polygon points="330.15,284.07 329.12,281.92 312.36,281.6 306.91,285.31 306.84,287.2 308.13,287.24 308.18,285.95 312.14,283.34 
		327.89,283.44 329.32,284.23 	"/>
	
		<linearGradient id="SVGID_1_" gradientUnits="userSpaceOnUse" x1="328.3474" y1="333.0977" x2="328.3474" y2="324.4402" gradientTransform="matrix(0.9994 0.0358 -0.033 0.9219 2.4984 -27.3724)">
		<stop  offset="0" style="stop-color:#0071BC"/>
		<stop  offset="0.1747" style="stop-color:#005892"/>
		<stop  offset="0.4617" style="stop-color:#003354"/>
		<stop  offset="0.705" style="stop-color:#001726"/>
		<stop  offset="0.8919" style="stop-color:#00060A"/>
		<stop  offset="1" style="stop-color:#000000"/>
	</linearGradient>
	<path class="st21" d="M316.57,283.36c-0.34,0.62-1.06,2.16-0.79,4.12c0.09,0.66,0.24,1.76,1.06,2.65c1.38,1.5,4.11,1.77,5.59,0.73
		c2.03-1.43,1.43-6.96,1.43-6.96C321.42,283.72,319,283.54,316.57,283.36z"/>
	<path class="st22" d="M319.54,289.7l-0.14-0.68c-0.06-0.28,0.08-0.56,0.33-0.66c0.27-0.1,0.63-0.19,0.9-0.08
		c0.52,0.21,0.87,1,0.87,1s-0.09,0.58-1.21,0.89C319.95,290.27,319.62,290.06,319.54,289.7z"/>
	<path class="st0" d="M362.81,290.09c-3.84,1.89-7.08,2.08-8.97,2.02c-2.57-0.09-4.91-0.17-6.41-2.12
		c-1.81-2.37-1.11-5.81-0.96-6.49c7.74-1.57,15.82-0.89,18.11,0.06c1.38,0.57,1.06,1.73,1.15,3.29
		C365.81,288.22,363.28,289.77,362.81,290.09z"/>
	<polygon points="345.16,284.42 346.07,282.26 365.27,281.99 365.9,283.89 366.5,287.34 365.33,287.4 365.19,284.53 364.07,283.48 
		347.21,283.76 345.92,284.56 	"/>
	
		<linearGradient id="SVGID_00000099659572592106360270000010713620336127188141_" gradientUnits="userSpaceOnUse" x1="355.5604" y1="342.9596" x2="355.5604" y2="333.1669" gradientTransform="matrix(0.9443 0.1106 -0.1043 0.8909 55.3216 -53.1862)">
		<stop  offset="0" style="stop-color:#0071BC"/>
		<stop  offset="0.1747" style="stop-color:#005892"/>
		<stop  offset="0.4617" style="stop-color:#003354"/>
		<stop  offset="0.705" style="stop-color:#001726"/>
		<stop  offset="0.8919" style="stop-color:#00060A"/>
		<stop  offset="1" style="stop-color:#000000"/>
	</linearGradient>
	<path style="fill:url(#SVGID_00000099659572592106360270000010713620336127188141_);stroke:#000000;stroke-miterlimit:10;" d="
		M352.06,283.97c-0.17,0.73-0.35,1.79-0.31,3.08c0.04,1.42,0.07,2.32,0.63,3.1c1.02,1.44,3.49,2.02,5.24,1.13
		c1.74-0.88,2.15-2.89,2.43-4.24c0.32-1.55,0.14-2.87-0.03-3.65c-1.27-0.11-2.54-0.22-3.82-0.33
		C354.83,283.37,353.44,283.67,352.06,283.97z"/>
	<path class="st22" d="M357.06,288.51l0.34,0.59c0.14,0.24,0.08,0.56-0.14,0.73c-0.25,0.19-0.58,0.4-0.89,0.39
		c-0.58-0.01-1.16-0.63-1.16-0.63s-0.07-0.58,0.97-1.26C356.48,288.13,356.88,288.21,357.06,288.51z"/>
	<path class="st24" d="M358.34,340.5c-23.78,23.09-47.97-3.36-47.97-3.36"/>
	<path class="st17" d="M293.78,302.89c0,0-6.44-11.2-8.22-10.88c-1.78,0.32-3.56,1.88-2.78,5.44c0.78,3.55,1.78,7.22,1.78,7.22
		l1.33,3.5c0,0,1.67-0.28,1-2.16s-3.56-8-2.67-9.78s2.78-0.44,2.78-0.44s1.93,4.33,2.3,5.11s-0.81,1.11,0,3s1.92,2.11,1.92,2.11
		l-0.11,2.16l0.89,2.28C292,310.44,293.67,311.44,293.78,302.89z"/>
	<path class="st17" d="M373.89,296.89c0,0,1.13-4.78,2.51-4s1.27,6.11,1.27,6.11l-3.78,7.78l1.89-6.44l-2.22-0.54L373.89,296.89z"/>
</g>
<g id="Spectators">
	<path class="st25" d="M210.74,836.25c0,0-11.04-4.98-6.41-18.87c4.63-13.88,6.41-72.26,6.41-72.26s20.23-56.25-3.77-81.16
		s-71.34-29.19-105.87-14.24s-46.99,60.87-48.06,73.69c-1.07,12.82-1.78,68.35,15.31,91.13c17.09,22.78,30.61,23.85,30.61,23.85
		l-3.2,25.27l-63.01,41.29c0,0-30.61,69.06-32.75,90.78v4.27h185.11h91.49l-8.54-81.88c0,0-17.09-21.72-37.38-34.89l-47.35-21
		l-6.41-16.02l16.38,0.71l-9.26-16.38C184.04,830.55,199.35,839.09,210.74,836.25z"/>
	<path class="st26" d="M661.58,626c0,0-33.37-13.99-57.05,6.46c-23.68,20.45-31.75,34.98-31.75,34.98l-5.92,9.69
		c0,0-1.61,56.51,11.3,78.57c12.92,22.07,23.68,39.29,29.6,44.13c5.92,4.84,4.97,26.37,4.97,26.37l-9.28,22.6l-80.73,40.36
		c0,0-24.76,41.98-22.6,83.42l-0.13,27.98h320.35c0,0-7-74.81-12.38-83.95s-36.06-37.67-62.97-52.2
		c-26.91-14.53-39.29-13.99-39.29-13.99l-12.38-24.76v-24.22c0,0,32.29-29.6,30.14-80.19s0-63.5-17.76-78.03
		c-17.76-14.53-33.9-11.84-33.9-11.84L661.58,626z"/>
	<path class="st27" d="M238.78,1000c0,0,8.24-111.17,25.65-136.82c17.4-25.65,38.71-62.22,38.71-62.22s17.17-41.51,106.01-29.95
		c0,0,14.67,1.16,28.17,13.23c13.5,12.07,31.82,19.92,31.82,19.92s28.85,38.41,32.06,55.35c3.21,16.94,18.33,50.58,18.33,50.58
		s30.81,74.23,27.6,89.9H238.78z"/>
	<path class="st27" d="M689.79,999.96c0,0,35.31-94.68,47.6-101.85s63.46-30.71,63.46-30.71l10.24-18.42v-17.91
		c0,0-12.12,2.95-20.64-1.9c-3.29-1.87-5.46-5.22-6.11-8.95l0,0c-0.84-4.83-3.98-8.95-8.43-11.02c-8.7-4.06-22.48-12.03-23.17-22.15
		c-0.54-7.85,1.78-17.28,4.09-24.42c2.23-6.88,1.66-14.37-1.53-20.86c-3.8-7.74-7.65-18.31-4.86-25.35
		c4.21-10.63,12.45-22.04,13.59-38.52c0.75-10.8,8.75-19.95,19.43-21.68c2.55-0.41,5.37-0.52,8.5-0.2c3.92,0.4,7.86-0.53,11.07-2.82
		c2.5-1.78,5.49-3.83,8.06-5.35c2.91-1.72,11.13-0.56,17.48,0.7c4.41,0.88,9.04-0.18,12.45-3.1c4.72-4.04,13.12-7.76,24.32,1.07
		c0,0,9.67,6.08,19.36,8.25c5.52,1.24,10.35,4.63,13.44,9.36c1.7,2.59,3.02,5.38,3.02,7.78c0,3.72,5.75,10.31,10.82,15.4
		c4.89,4.91,7.6,11.57,7.6,18.49v24.15c0,4.14,0.58,8.26,1.77,12.22c2.11,7,4.97,19.41,1.81,27.49
		c-4.13,10.55-3.32,16.58-11.96,30.99c-1.67,2.78-3.07,5.72-4.32,8.72c-1.81,4.34-7.14,11.44-22.62,12.5c0,0-11.26,15.35,5.12,35.31
		l5.63,10.24c0,0,49.64,14.33,72.68,33.27c23.03,18.94,37.87,99.29,37.87,99.29H689.79z"/>
</g>
<g id="Colors">
	<g>
		<rect x="689.79" y="-169.5" class="st28" width="132.81" height="132.81"/>
		<rect x="822.6" y="-169.5" class="st29" width="132.81" height="132.81"/>
		<rect x="955.41" y="-169.5" class="st17" width="132.81" height="132.81"/>
	</g>
	<g>
		<rect x="257.32" y="-169.5" class="st30" width="132.81" height="132.81"/>
		<rect x="124.51" y="-169.5" class="st31" width="132.81" height="132.81"/>
		<rect x="-8.3" y="-169.5" class="st32" width="132.81" height="132.81"/>
		<rect x="-141.11" y="-169.5" class="st33" width="132.81" height="132.81"/>
		<rect x="390.13" y="-169.5" class="st18" width="132.81" height="132.81"/>
		<rect x="522.94" y="-169.5" class="st34" width="132.81" height="132.81"/>
	</g>
</g>
</svg>
