<?xml version="1.0" encoding="utf-8"?>
<!-- Generator: Adobe Illustrator 27.2.0, SVG Export Plug-In . SVG Version: 6.00 Build 0)  -->
<svg version="1.1" xmlns="http://www.w3.org/2000/svg" xmlns:xlink="http://www.w3.org/1999/xlink" x="0px" y="0px"
	 viewBox="0 0 1000 1000" style="enable-background:new 0 0 1000 1000;" xml:space="preserve">
<style type="text/css">
	.st0{fill:#FFFFFF;}
	.st1{fill:#F0C0A5;stroke:#000000;stroke-width:3;stroke-miterlimit:10;}
	.st2{fill:#BE7F4D;stroke:#000000;stroke-width:3;stroke-miterlimit:10;}
	.st3{fill:#433A51;stroke:#000000;stroke-width:3;stroke-miterlimit:10;}
	.st4{fill:#322C3D;stroke:#000000;stroke-width:3;stroke-miterlimit:10;}
	.st5{fill:#FFFFFF;stroke:#000000;stroke-width:3;stroke-miterlimit:10;}
	.st6{fill:#5D5272;stroke:#000000;stroke-width:3;stroke-miterlimit:10;}
	.st7{fill:none;stroke:#000000;stroke-width:3;stroke-miterlimit:10;}
	.st8{fill:#3F2216;stroke:#000000;stroke-width:3;stroke-linecap:round;stroke-linejoin:round;stroke-miterlimit:10;}
	.st9{fill:#F0C0A5;stroke:#000000;stroke-width:3;stroke-linecap:round;stroke-linejoin:round;stroke-miterlimit:10;}
	.st10{fill:#EDB087;stroke:#000000;stroke-width:3;stroke-linecap:round;stroke-linejoin:round;stroke-miterlimit:10;}
	.st11{fill:#0F3B5B;stroke:#000000;stroke-width:3;stroke-linecap:round;stroke-linejoin:round;stroke-miterlimit:10;}
	.st12{fill:#114472;stroke:#000000;stroke-width:3;stroke-linecap:round;stroke-linejoin:round;stroke-miterlimit:10;}
	.st13{fill:#E6E6E6;stroke:#000000;stroke-width:3;stroke-linecap:round;stroke-linejoin:round;stroke-miterlimit:10;}
	.st14{fill:#FFFFFF;stroke:#000000;stroke-width:3;stroke-linecap:round;stroke-linejoin:round;stroke-miterlimit:10;}
	.st15{fill:#7A1D32;stroke:#000000;stroke-width:3;stroke-linecap:round;stroke-linejoin:round;stroke-miterlimit:10;}
	.st16{fill:none;stroke:#000000;stroke-width:3;stroke-linecap:round;stroke-linejoin:round;stroke-miterlimit:10;}
	.st17{fill:#FBB03B;stroke:#000000;stroke-width:2;stroke-miterlimit:10;}
	.st18{fill:#342E3F;}
	.st19{fill:#092130;}
	.st20{fill:#E89C78;}
	.st21{fill:#4682AF;}
	.st22{fill:#7D7199;}
	.st23{fill:#9086B2;}
	.st24{fill:none;stroke:#000000;stroke-width:2;stroke-miterlimit:10;}
	.st25{fill:#E7B28C;}
	.st26{fill:none;stroke:#474649;stroke-linecap:round;stroke-linejoin:round;stroke-miterlimit:10;}
	.st27{fill:#2A150F;stroke:#000000;stroke-miterlimit:10;}
	.st28{fill:url(#SVGID_1_);stroke:#000000;stroke-width:2;stroke-miterlimit:10;}
	.st29{fill:url(#SVGID_00000007420275016336809040000014068264587061714056_);stroke:#000000;stroke-width:2;stroke-miterlimit:10;}
	.st30{fill:#F4DBCA;}
	.st31{fill:#F6D2BA;}
	.st32{fill:#EDB087;}
	.st33{fill:#7A1D32;}
	.st34{fill:#FBB03B;}
	.st35{fill:#3F2216;}
	.st36{fill:#2D1708;}
	.st37{fill:#114472;}
	.st38{fill:#F0C0A5;}
	.st39{fill:#BDA895;}
	.st40{fill:#F2D14E;}
	.st41{fill:#45B7BD;}
	.st42{fill:#C6434A;}
	.st43{fill:#EB8080;}
	.st44{fill:#77373A;}
	.st45{fill:#7F6B97;}
	.st46{fill:#404E75;}
	.st47{fill:#F2A26E;}
</style>
<g id="BG">
	<rect x="2.31" class="st0" width="1000" height="1000"/>
</g>
<g id="Клиент">
	<path class="st1" d="M751.07,504.26c-98.37,34.07-125.63,82.67-125.63,82.67l-21.92-42.97c0,0-12.15,7.11-27.26,1.19
		c0,0-34.67-35.85-45.63-63.11c0,0-10.67-18.97-10.07-36.15l-2.67-54.22L517,389l0.3-16l0.51,0.59
		c6.32,7.34,11.11,15.89,13.89,25.17c1.62,5.4,2.72,10.88,1.89,14.24c-1.24,5.07,0.66,7.57,2.38,8.77c1.8,1.24,3.45,2.68,4.75,4.45
		l15.24,20.71c-0.65-4.36-1.81-8.63-3.44-12.72c-5.93-14.88-1.45-25.65-1.45-25.65c7.23-13.17,15.73-2.7,19.04,2.38
		c1.31,2.01,2.73,3.95,4.27,5.79l4.04,4.85c2.47,2.96,5.02,5.85,7.76,8.55c17.01,16.77,19.41,37.09,19.41,37.09
		c2.08,29.04,29.34,30.22,29.34,30.22h43.51c11.21,0,22.31-2.11,32.73-6.24c15.89-6.31,28.94-13.31,28.94-13.31L751.07,504.26z"/>
	<path class="st2" d="M764.11,350.78c-1.18,37.33-9.18,69.33-9.18,69.33l-14.82,57.78c0,0-13.05,7-28.94,13.31
		c-10.42,4.13-21.52,6.24-32.73,6.24h-43.51c0,0-27.26-1.18-29.34-30.22c0,0-2.4-20.32-19.41-37.09c-2.74-2.7-5.29-5.59-7.76-8.55
		l-4.04-4.85c-1.54-1.84-2.96-3.78-4.27-5.79c-3.31-5.08-11.81-15.55-19.04-2.38c0,0-4.48,10.77,1.45,25.65
		c1.63,4.09,2.79,8.36,3.44,12.72l-15.24-20.71c-1.3-1.77-2.95-3.21-4.75-4.45c-1.72-1.2-3.62-3.7-2.38-8.77
		c0.83-3.36-0.27-8.84-1.89-14.24c-2.78-9.28-7.57-17.83-13.89-25.17L517.3,373l-0.3,16c0,0-18.07-16.3-19.85-28.15
		c-1.78-11.85,1.18-26.96,1.18-26.96s0.6-7.41-2.37-19.85c-2.96-12.45,6.23-19.85,6.23-19.85l14.44-14.45
		c2.41-2.41,4.5-5.12,6.21-8.08c4.11-7.1,13.19-21.16,22.6-24.88c0,0,11.56-7.71,32.89-4.45c0,0,9.48-13.03,37.63-15.4
		c0,0,17.78-1.78,36.45,2.66l26.66,1.19c0,0,16,0.29,22.82,8c0,0,22.22,13.03,26.67,17.78c4.44,4.74,18.66,16.59,24.59,35.55
		C759.07,311.07,765.3,313.44,764.11,350.78z"/>
	<path class="st3" d="M962.33,855.37c-4.74-65.48-24.59-139.26-24.59-139.26s-8.59-32-32.3-76.74c-23.7-44.74-64.59-55.7-64.59-55.7
		c-13.92-12.15-53.33-30.82-53.33-30.82c-64.59,1.19-181.93,114.37-181.93,114.37c-29.33,31.41-34.07,75.85-34.07,75.85
		L545.44,892.7l-14.81,85.34l-3.56,22.96h448.89L962.33,855.37z M770.33,875.52L757.15,1000h-39.56l51.33-150.12
		c0.26-0.78,1.41-0.59,1.41,0.23V875.52z"/>
	<polygon class="st4" points="545.44,892.7 530.63,978.04 513.74,978.04 522.93,889.15 	"/>
	<path class="st5" d="M513.74,978.04v-2.08c0,0-12.44,1.78-22.22-3.26c0,0-0.22-11.71,0.96-28.15c1.19-16.45,3.78-37.63,9.41-56.59
		c0,0,12.44,0.3,21.04,1.19L513.74,978.04z"/>
	<path class="st6" d="M787.52,552.85c-64.59,1.19-181.93,114.37-181.93,114.37l19.85-39.11c0,0,26.67-79.11,135.41-109.92
		L787.52,552.85z"/>
	<path class="st7" d="M760.85,518.19C652.11,549,625.44,628.11,625.44,628.11s-15.4-13.63-8.88-27.85l8.88-13.33
		c0,0,27.26-48.6,125.63-82.67C751.07,504.26,759.37,509.59,760.85,518.19z"/>
	<path class="st8" d="M394.78,393.89c0,0-0.67,18.22-7.11,42.44l-2,8.67c-2.69,11.33-4.67,8.22-4.67,8.22
		c-0.67-8.44,2.22-31.33,2.22-31.33c-2-8.22-3.11-15.33-3.11-15.33c-6.67-9.12-4.22-29.56-4.22-29.56c-2-6.44-11.33-9.11-11.33-9.11
		c-14.23,1.55-35.56,1.33-35.56,1.33c1.56,3.56,0,5.34,0,5.34c-4-6-17.33-5.56-17.33-5.56s-4.45,1.78-13.78,2
		c-9.33,0.22-14-3.78-14-3.78s-3.33-4.44-11.33-4c-8,0.45-9.34,11.34-9.34,11.34c1.34,7.77-1.78,20.66-1.78,20.66
		c-1.77,10-11.55,25.78-11.55,25.78c1.33,19.56-2.67,35.11-2.67,35.11c-3.55,0-10-19.11-10-19.11v-21.11c0,0-12-20.22-5.11-46
		c0,0,6-19.56,23.78-26.22c0,0-2.45-7.57,6.36-15.64c0.61-0.55,1.57-0.43,2.01,0.27l2.52,4.03c0,0,8.89-15.33,36-15.55
		c0,0,14.89-1.34,24.66,4.89c0,0,16.23,5.55,26,6.89c0,0,17.78-1.78,25.56,9.55c0,0,7.11,6.89,8.22,19.56c0,0,0.76,4.54,4.38,5.77
		c0.34,0.11,0.4,0.56,0.09,0.74l-3.58,2.15C388.11,366.33,398.33,369.89,394.78,393.89z"/>
	<path class="st9" d="M501.89,887.96c-5.63,18.96-8.22,40.14-9.41,56.59l-25.41,1.04c-10.93,6.9-23.71,4.16-24.45,4
		c-0.02-0.01-0.03-0.01-0.03-0.01c-5.22-10.17-13.85-22.56-24.92-35.47c-7.34-8.56-14.72-15.55-21.46-21.19
		c-4.35-3.65-9.71-5.87-15.37-6.34c-11.04-0.92-28.28-0.54-39.84,1.38c-16.44,2.74-10.3-7.7-10.3-7.7s3.86-8.59,30.08-15.48
		c26.22-6.89,44.44,1.33,44.44,1.33c13.11,5.78,46.45,11.56,46.45,11.56s19.77,0.66,30,7.77L501.89,887.96z"/>
	<path class="st10" d="M444.85,956.11c2.11,7.05-22.81,8.74-22.81,8.74c3.11,7.41-16.74,6.08-16.74,6.08c-5.19,7.11-16,4.44-16,4.44
		c-3.56,2.22-5.93,1.19-5.93,1.19c-13.18-0.45-27.93-8-27.93-8c-4,16.88-26.88,32.44-26.88,32.44h-87.09l16.27-32.44
		c0,0,6.67-16,24.3-20c0,0,0,0,0.01-0.01c0.59-0.25,19.4-8.62,33.62-19.77l-14.23-7.63c0,0-9.89-5.36-17.23-9.09
		c-3.84-1.95-6.99-3.45-7.65-3.5c0,0-6.23-50.82,22.37-56.6c1.63,0.6,16.74,1.04,16.74,1.04h22.22c0,0,10.37,5.04,38.07-5.19
		c0,0,15.68-3.4,21.62-1.48l19.57,2.23c0,0,24.29,10.88,34.52,29.11c0,0-33.34-5.78-46.45-11.56c0,0-18.22-8.22-44.44-1.33
		c-26.22,6.89-30.08,15.48-30.08,15.48s-6.14,10.44,10.3,7.7c11.56-1.92,28.8-2.3,39.84-1.38c5.66,0.47,11.02,2.69,15.37,6.34
		c6.74,5.64,14.12,12.63,21.46,21.19c11.07,12.91,19.7,25.3,24.92,35.47c0,0,0.01,0,0.03,0.01
		C442.73,949.69,443.17,950.48,444.85,956.11z"/>
	<path class="st11" d="M386.33,1001h-57.77c0,0,22.88-15.56,26.88-32.44c0,0,14.75,7.55,27.93,8L386.33,1001z"/>
	<path class="st12" d="M244.11,787.81v49.78c-4.11,5.16-6.9,11.83-8.66,17.17c-1.89,5.74-3.88,11.44-5.84,17.15
		c-6.81,19.86-6.24,47.31-6.24,47.31c-100.07-3.33-124.74-30.07-124.74-30.07S73.15,864.26,70.78,821c0,0-7.11-8.3-6.52-112.59
		l11.85-90.67c0.92-4.07,2.38-8.46,4.67-12.93c11.06-21.61,33.48-29.42,40.96-31.66l93.04-11.11l-17.19,32l21.34,28.74l-14.52,24.29
		L244.11,787.81z"/>
	<path class="st12" d="M254.81,605.61l-3.14,50.5l-7.56,119.56v12.14l-39.7-140.74l14.52-24.29l-21.34-28.74l17.19-32L229,549.22
		l14.22-9.55c-6.81,6.96-9.33,18.37-9.33,18.37c-0.74,36.74,13.04,59.4,13.04,59.4l1.03-1.63
		C248.58,614.13,251.47,610.04,254.81,605.61z"/>
	<path class="st13" d="M289.3,598.6l-12-2.79c0,0-1.78-6.81-10.3-5.62c0,0-6.71,8.17-12.19,15.42c-3.34,4.43-6.23,8.52-6.85,10.2
		l-1.03,1.63c0,0-13.78-22.66-13.04-59.4c0,0,2.52-11.41,9.33-18.37l8.45-13.78l2.22-1.33c0,0-3.4,15.59-7.29,22.67
		c-1.21,2.2-1.9,4.64-1.9,7.15v0.25l43.41,40L289.3,598.6z"/>
	<path class="st11" d="M232.11,918.56L217.22,1001H90.93l7.7-111.85c0,0,24.67,26.74,124.74,30.07L232.11,918.56z"/>
	<path class="st14" d="M257.74,968.56L241.47,1001h-24.25l14.89-82.44l13.04,0.66c0,0-0.45,15.41,6.81,30.97L257.74,968.56z"/>
	<path class="st10" d="M392.83,458.77c-0.41,1.83-0.45,3.24-0.51,3.57c-1.66,8.97-3.38,18-10.17,23.36
		c-1.46,1.15-3.99,2.79-7.93,3.74c-0.69,3.93-1.37,7.19-1.89,9.56c-1.23,5.6-1.87,8.47-3.22,12.11c-0.64,1.72-1.65,4.39-3.44,7.56
		c-3.96,6.96-8.89,11.29-11.33,13.22c-2.34,1.86-5.81,4.24-10.44,6.22c0,1.19,0,2.37,0,3.56l0.22,12.44c0,0,1.04,14-2.96,20.52
		c-4,6.52-28.15,23.11-28.15,23.11v2.37c-13.22,5.67-23.7-1.51-23.7-1.51l-1.19-3.97l-42.32-39c-0.69-0.64-1.09-1.54-1.09-2.48
		c0-1.86,0.57-3.67,1.53-5.27c4.04-6.71,7.66-23.33,7.66-23.33v-16.23c0,0-9.11-14.44-11.78-22.89c0,0-21.78-1.77-23.11-27.55
		c-1.33-25.78,5.11-25.11,5.11-25.11s6.67-3.56,10.89,1.78l2.22,2.44c0,0,6.45,19.11,10,19.11c0,0,4-15.55,2.67-35.11
		c0,0,9.78-15.78,11.55-25.78c0,0,3.12-12.89,1.78-20.66c0,0,1.34-10.89,9.34-11.34c8-0.44,11.33,4,11.33,4s4.67,4,14,3.78
		c9.33-0.22,13.78-2,13.78-2s13.33-0.44,17.33,5.56c0,0,1.56-1.78,0-5.34c0,0,21.33,0.22,35.56-1.33c0,0,9.33,2.67,11.33,9.11
		c0,0-2.45,20.44,4.22,29.56c0,0,1.11,7.11,3.11,15.33c0,0-2.89,22.89-2.22,31.33c0,0,1.98,3.11,4.67-8.22
		C385.67,445,396.84,441.07,392.83,458.77z"/>
	<path class="st12" d="M522.93,889.15c-8.6-0.89-21.04-1.19-21.04-1.19l-20.22-2.52c-10.23-7.11-30-7.77-30-7.77
		c-10.23-18.23-34.52-29.11-34.52-29.11l-5.26-18.25v-0.01l-4.82-16.71c-0.21,0.51-0.41,1.02-0.61,1.53
		c-6.91,17.63-8.88,31.21-8.88,31.21c-5.94-1.92-21.62,1.48-21.62,1.48c-27.7,10.23-38.07,5.19-38.07,5.19l7.85-52.15l3.85-15.11
		l45.78-125.48c4.59-8.3,0.59-13.04,0.59-13.04l-23.85-28c14.08-24.89,8.67-34.22,8.67-34.22l3.11,1.56c0,0,46,9.55,60.67,22.88
		c0,0,16.44,5.63,20.88,62.23c0,0,23.12,91.55,27.86,95.7c0,0,22.22,48.89,29.63,78.52C522.93,845.89,529.3,869.52,522.93,889.15z"
		/>
	<path class="st12" d="M395.37,660.26l-45.78,125.48l-3.85,15.11l0.74-78.66l1.63-98.08c0,0,4.89-19.26,3.85-41.04
		c-1-21.09-7.43-28.5-7.83-28.94L380.78,585c0,0,5.41,9.33-8.67,34.22l23.85,28C395.96,647.22,399.96,651.96,395.37,660.26z"/>
	<path class="st13" d="M348.11,624.11l-4.59-2.37c0,0-7.11-20.44-10.08-23.85c-1.11-1.28-4.27-1.29-7.79-0.79
		c-5.83,0.81-12.65,3.01-12.65,3.01v-2.37c0,0,24.15-16.59,28.15-23.11c4-6.52,2.96-20.52,2.96-20.52s0.01,0.01,0.02,0.02
		c0.4,0.44,6.83,7.85,7.83,28.94C353,604.85,348.11,624.11,348.11,624.11z"/>
	<path class="st14" d="M348.11,624.11l-1.63,98.08l-0.74,78.66L337.89,853h-22.22c0,0,9.33-51.11,5.92-82.81l-3.7-89.86l-2-34.22
		c0,0,1.78-4.11-0.22-7.78c0,0,9.52-22.47,9.98-41.23c3.52-0.5,6.68-0.49,7.79,0.79c2.97,3.41,10.08,23.85,10.08,23.85
		L348.11,624.11z"/>
	<path class="st15" d="M321.59,770.19c3.41,31.7-5.92,82.81-5.92,82.81s-15.11-0.44-16.74-1.04c-1.63-0.59-38.6-12.74-38.6-12.74
		l2.23-14L279.44,741l12.45-96c-1.78-3.78,0-6.78,0-6.78c-7.11-5-14.59-42.41-14.59-42.41l12,2.79c0,0,10.48,7.18,23.7,1.51
		c0,0,6.82-2.2,12.65-3.01c-0.46,18.76-9.98,41.23-9.98,41.23c2,3.67,0.22,7.78,0.22,7.78l2,34.22L321.59,770.19z"/>
	<path class="st14" d="M315.67,928.78c-14.22,11.15-33.03,19.52-33.62,19.77c0.46-0.45,15.17-14.86,19.39-27.4L315.67,928.78z"/>
	<path class="st14" d="M284.21,912.06l-8.1,7.46l0.45-10.96C277.22,908.61,280.37,910.11,284.21,912.06z"/>
	<path class="st15" d="M301.44,921.15c-4.22,12.54-18.93,26.95-19.39,27.4c-0.01,0.01-0.01,0.01-0.01,0.01c-17.63,4-24.3,20-24.3,20
		l-5.78-18.37c-7.26-15.56-6.81-30.97-6.81-30.97l30.96,0.3l8.1-7.46C291.55,915.79,301.44,921.15,301.44,921.15z"/>
	<path class="st14" d="M291.89,645l-12.45,96l-16.88,84.22l-2.23,14l-16.22-1.63v-61.92l7.56-119.56l3.14-50.5
		c5.48-7.25,12.19-15.42,12.19-15.42c8.52-1.19,10.3,5.62,10.3,5.62s7.48,37.41,14.59,42.41C291.89,638.22,290.11,641.22,291.89,645
		z"/>
	<path class="st14" d="M298.93,851.96c-1.63-0.59-38.6-12.74-38.6-12.74l-16.22-1.63c-4.11,5.16-6.9,11.83-8.66,17.17
		c-1.89,5.74-3.88,11.44-5.84,17.15c-6.81,19.86-6.24,47.31-6.24,47.31l8.74-0.66l13.04,0.66l30.96,0.3l0.45-10.96
		C276.56,908.56,270.33,857.74,298.93,851.96z M257.1,914.26c-1.71,1.2-4.08,1.16-5.63-0.23c-2.09-1.89-0.98-4.28,0.48-6.07
		c1.45-1.8,4.07-2.16,5.9-0.75C261.59,910.09,259.28,912.72,257.1,914.26z"/>
	<path class="st16" d="M257.1,914.26c-1.71,1.2-4.08,1.16-5.63-0.23c-2.09-1.89-0.98-4.28,0.48-6.07c1.45-1.8,4.07-2.16,5.9-0.75
		C261.59,910.09,259.28,912.72,257.1,914.26z"/>
	<path class="st12" d="M276.11,919.52c0,0,4.05-0.69,8.1-7.46"/>
	<path class="st14" d="M374.35,734.16c0,0-0.24-6.71,1.53-11.16S429,738.56,429,738.56s-1.96,10.67-3.65,11.11
		C423.67,750.11,388.6,749.76,374.35,734.16z"/>
	<path d="M370.85,732.11c0,0,29.04,18.54,58.15,15.94c29.11-2.6,0,0,0,0l-1.55,4.33c-7.59,0.33-19.06-0.07-32.22-4.12
		c-11.44-3.52-20.16-8.57-26-12.59L370.85,732.11z"/>
	<path id="Буговки_00000170985247896695587040000002187479434345102998_" class="st17" d="M176.74,891.37
		c0,0-6.07,1.94-2.81,7.74s10.15,2.72,10.32,0.63S182.75,890.44,176.74,891.37z"/>
	<path id="Буговки_00000120523564754017158620000014608846997003048837_" class="st17" d="M197.74,893.56
		c0,0-6.82,1.6-4.24,7.77c2.58,6.16,10.47,3.44,10.98,1.31C204.99,900.5,204.34,892.98,197.74,893.56z"/>
</g>
<g id="Тени_00000154416019739938741580000010739689266604960396_">
	<path class="st18" d="M663.67,999.33c18.22-2.04,36.44-4.74,54.66-6.78c16.44-48.44,32.89-96.89,49.33-145.33
		c1.98-4.63,3.95-9.25,5.93-13.88c-0.64,11.74-1.28,23.47-1.93,35.21c0.44,10.35,0.89,20.69,1.33,31.04
		c-3.85,24.62-7.7,49.23-11.56,73.85c0.15,8.15,0.41,18.41,0.56,26.56C729.26,1000.26,696.41,999.07,663.67,999.33z"/>
	<path class="st18" d="M775.22,827.32c0,0,11.56-39.32-6.78-90.24c3.44,12.6,6.67,28.93,7.44,48.15
		c0.68,17.04-0.75,31.89-2.72,43.78L775.22,827.32z"/>
</g>
<g id="Тени">
	<path d="M405.7,813L445,703.44v4.39c0,2.1-0.29,4.2-0.85,6.22l-32.26,116.25L405.7,813z"/>
	<path d="M129,627.44c0,0-16.23-16.76-46.25-22.02c-0.43-0.08-0.85,0.04-0.85,0.04c-0.57,0.25-1.07,0.55-1.05,0.86
		c0.04,0.56,1.8,0.85,2.17,0.92c2.96,0.54,29.24,6.96,44.43,21.97c0.59,0.59,1.81,1.81,4.67,5.33c7.48,9.21,23.16,27.64,31.33,50.89
		c4.14,11.78,4.86,21.13,6.3,39.85c1.77,23.11,0.76,42.22-0.47,55.26h-17.39c-0.52,0-0.99,0.33-1.15,0.83l-0.3,0.91
		c-0.18,0.54,0.04,1.14,0.53,1.43l90.29,53.74c0.81,0.48,1.84-0.1,1.84-1.04c0-0.37-0.17-0.72-0.46-0.95
		c-18.17-13.66-36.34-27.32-54.51-40.98c-1.83-1.34-3.86-3-5.93-5.04c-1.88-1.85-3.45-3.67-4.74-5.33
		c0.21-18.57-0.44-34.16-1.19-45.78c-1.32-20.78-2.06-31.41-5.43-42.94c-1.14-3.88-6.62-21.95-18.44-38.88
		c-4.11-5.89-11.6-14.66-17.61-22.4C132.41,631.06,130.31,628.79,129,627.44z"/>
	<path class="st19" d="M100.11,892.85l-0.89,9.63c8.93,5.44,19.94,10.96,33.01,15.23c38.17,12.49,72.18,7.27,90.4,2.92
		c-8.39-0.24-15.84-0.68-22.15-1.17c-8.69-0.66-19.33-1.5-33.11-3.8c-3.36-0.56-11.32-1.94-21.43-4.33
		c-8.34-1.98-12.99-3.08-19.46-5.44c-2.53-0.93-9.18-3.45-17.31-7.78C105.5,896.16,102.44,894.32,100.11,892.85z"/>
	<path class="st20" d="M355.83,967.07c-3.97-0.96-9.74-2.9-15.59-7.11c-11.22-8.06-15.41-19.16-16.8-23.52
		c-0.16-0.32-2.38-4.71-4-4.33c-1.41,0.33-1.61,4.08-1.67,5.22c-0.48,9.28,5.36,16.76,6.7,18.41c0.87,1.07,4.66,5.56,11.41,8.96
		c7.05,3.55,13.58,4.01,17.11,4c0.2,0.07,0.67,0.2,0.86-0.01c0.03-0.03,0.05-0.07,0.14-0.4c0.12-0.45,0.1-0.47,0.14-0.57
		c0.14-0.33,0.5-0.48,0.69-0.56C355.26,966.99,355.65,967.04,355.83,967.07z"/>
	<path class="st20" d="M390,972.78c0,0-26-14.67-26.33-17.78c0,0-1.56,0.11,0,2.11c1.56,2,10.89,15.89,17.89,17.33
		S390,972.78,390,972.78z"/>
	<path class="st20" d="M401.13,970.12l-15.44-19c0,0-1.44-2.99,1.89-1s20,16.92,20,16.92S406.35,970.34,401.13,970.12z"/>
	<path class="st20" d="M402.78,941.11c0,0-2-0.44-1.67,1.22c0.33,1.67,15.67,21.22,15.67,21.22s6.56,1.78,6.33-3L402.78,941.11z"/>
	<path class="st20" d="M276.44,998.44c0,0,4.11-6,7.11-8c0,0,1.11,3.78,0,8H276.44z"/>
	<path class="st20" d="M264.22,998.44l-0.56-9.33c0,0-5.78,5.22-5.89,9.33H264.22z"/>
	<path d="M292.99,638c0,0,9.79,4.66,22.68,0.33c0,0,1.55,5.89-0.78,6.67s-20.8,1.56-21.9-0.44S291.2,640.56,292.99,638z"/>
	<path d="M312.68,661.74c-0.87,7.92-3.13,13.44-5.04,17.04c-1.24,2.33-1.57,2.41-7.33,12.02c-2.89,4.83-4.05,6.87-4.67,7.98
		c-2.24,4.01-3.63,6.79-5.41,10.33c-4.74,9.49-4.6,10.25-4.37,10.41c0.24,0.17,0.92-0.06,3.04-2.19
		c6.34-10.55,11.35-18.53,14.63-23.68c4.63-7.27,7.9-12.18,9.14-19.77C313.5,668.88,313.13,664.6,312.68,661.74z"/>
	<path d="M314.86,688.95c-2.87,7.85-6.17,13.56-8.52,17.19c-3.6,5.56-17.54,25.57-20.22,29.44c-0.84,1.21-2.65,3.85-2,4.56
		c0.54,0.59,2.57-0.4,4.08-1.25c6.16-7.41,11.18-14.07,15.11-19.53c7.2-10.01,9.94-14.96,11.1-21.51
		C315.05,694.16,315.01,691.03,314.86,688.95z"/>
	<path class="st18" d="M760.85,724.74c0,0-39.85-43.46-97.18-73.23C663.67,651.51,724.26,645.97,760.85,724.74z"/>
	<path d="M767.89,873c-5.41,40.89-10.81,81.78-16.22,122.67c-8.3,0.07-16.59,0.15-24.89,0.22c13.26-45.11,26.52-90.22,39.78-135.33
		c0.02-0.04,0.03-0.06,0.05-0.06C766.85,860.48,767.28,864.65,767.89,873z"/>
	<path class="st20" d="M342.44,538.88c-3.25,1.57-7.91,3.47-13.73,4.76c-15.44,3.41-27.71-0.04-30.52-0.89
		c-1.83-0.55-7.49-2.36-14-6.3c-4.06-2.46-6.29-3.8-8.81-6.44c-2.76-2.88-4.94-6.33-10.57-12.85c-0.93-1.08-2.54-2.91-3.22-2.56
		c-0.53,0.27-0.31,1.74-0.06,2.92c0.52,2.13,1.45,5.09,3.18,8.34c2.97,5.57,6.65,8.89,9.63,11.56c1.98,1.76,6.6,5.64,13.63,9.04
		c2.67,1.29,12.62,5.9,26.07,6.37c2.93,0.1,3.43-0.08,5.58-0.27c2.01-0.17,2.52-0.13,6.57-0.28c1.64-0.06,1.98-0.09,3.01-0.15
		c0.88-0.05,1.49-0.07,1.81-0.09c3.06-0.13,9.98-1.67,11.42-1.96c0.01,0,0-0.18,0-0.53c0-0.39-0.01-0.74-0.01-1.11
		c-0.01-0.39-0.02-0.44-0.03-0.92c-0.02-0.56-0.02-0.97-0.03-1.56c0,0-0.01-0.69-0.01-1.38
		C342.33,543.57,342.36,541.53,342.44,538.88z"/>
	<path class="st20" d="M324.11,445.44l2.44-6.33l6.06,35.72l-19.78-0.56c0,0-5.67-1.44,1.89-4.89l10.44-0.67L324.11,445.44z"/>
	<path d="M311.07,507c0,0,14.82,1.78,21.26,0c-0.13,0.41-0.26,0.81-0.39,1.22c-2.89,0.56-6.51,1-10.67,0.94
		c-3.67-0.05-6.89-0.48-9.54-1C311.52,507.78,311.29,507.39,311.07,507z"/>
	<path class="st20" d="M238.11,455.29c0,0-6-18.74-10.89-12.07c-4.89,6.67-2,18-2,18s2.67,6.89,3.33,7.11
		c0.67,0.22,1.56-6.44,0.44-10.67c-1.11-4.22,0.22-8.22,0.22-8.22s4.44,2.13,5.33,5.62c0.89,3.49-3.33,6.16-1.56,8.38
		c1.78,2.22,2,1.12,2.67,4.89c0.67,3.77,2.44-5.56,2.44-5.56S236.56,458.7,238.11,455.29z"/>
	<path class="st20" d="M382.67,459.33c0,0,6-10.22,6.22-6.67c0.22,3.56-2.22,16.11-2.22,16.11s-4.78,8.89-6.44,11.44
		c-1.67,2.56-3.11,2.52-3.11,2.52s4.89-12.18,6.56-14.63c1.67-2.44,1.33-6.78,1.33-6.78s-5.44,1-4.33-0.44
		C381.78,459.44,382.67,459.33,382.67,459.33z"/>
	<path d="M260.33,511.44c0,0,13.1,20.9,38.22,28.23s44.85-2.94,44.85-2.94l0.49,2.94c-3.58,1.58-8.64,3.44-14.89,4.59
		c-3.35,0.62-14.16,2.34-26.81-0.49c-20.2-4.53-32.65-17.91-36.86-22.88c-1.27-1.62-2.54-3.23-3.81-4.85
		C261.12,514.51,260.73,512.98,260.33,511.44z"/>
	<path class="st21" d="M208.06,566.48c-0.16,0.68-0.45,1.56-0.98,2.52c-0.71,1.27-1.57,2.14-2.19,2.67
		c-68.61,1.98-94.78,12.35-106.33,21.78c-1.76,1.43-12,10.07-12.6,9.42c-0.49-0.52,5.58-6.93,10.31-11.79
		c3.11-2.48,7.15-5.32,12.14-7.99c3.3-1.76,7.8-3.86,13.12-5.55c8.39-2.66,15.03-3.09,20.21-3.5c15.65-1.23,0.62-0.85,49.62-5.76
		C199.16,567.49,203.87,566.88,208.06,566.48z"/>
	<path class="st21" d="M80.93,622.72c-0.16-0.56-0.97-0.52-1.06,0.06C77.79,635.84,67.94,699.66,69,733.59
		c1.19,37.93,2.67,61.93,2.67,61.93s4.44-2.96,4.15-11.56c-0.28-8.06-4.98-79.78,1.51-113.93c1.1-5.77,2.06-11.57,2.72-17.41
		c1.12-9.86,2.58-22.78,2.58-23.33C82.63,628.72,81.63,625.16,80.93,622.72z"/>
	<path class="st21" d="M385.59,590.04c0,0,34.96,6.96,56.89,21.48c0,0,5.04,7.11,1.04,4.44c-4-2.67-15.79-12.59-49.82-21.33
		C393.7,594.63,385.72,593.17,385.59,590.04z"/>
	<path class="st21" d="M352.85,566.33l24.89,20.74c0,0,2.08,6.37-6.89,27.26l-2.74,5.04c0,0-1.93,0.59,1.04-7.11
		c2.96-7.7,6.67-18.94,5.78-22.21s-21.19-20.61-21.19-20.61S351.22,566.63,352.85,566.33z"/>
	<path class="st21" d="M231.07,552.26c0,0-10.37,7.7-14.67,15.7s-12.59,23.85-12.59,23.85s1.93,1.33,6.37-6.81
		s10.84-21.78,16.01-24.3C231.37,558.19,231.07,552.26,231.07,552.26z"/>
	<path class="st21" d="M234.78,838.55l-79.56-49.33c-6.27-1.61-9.53-2.08-9.78-1.41c-0.35,0.93,5.13,4.07,16.44,9.41
		c22.52,13.56,45.04,27.11,67.56,40.67C231.22,838.11,233,838.33,234.78,838.55z"/>
	<path class="st21" d="M460.11,656.26l1.78,18.3L486.56,763c0,0-4.22-4.67-5.11-9.56c-0.89-4.89-21.33-78.22-21.33-78.22
		S459,664.41,460.11,656.26z"/>
	<path class="st21" d="M77.89,837.59c0,0,6.52,43.59,38.67,58.22c0,0,26.22,11.11,41.33,12c0,0-37.78-8.59-47.41-18.66
		S91.96,881.29,77.89,837.59z"/>
	<path class="st22" d="M582.19,728.26c2.45-8.77,6.79-21.18,14.81-34.67c8.79-14.77,18.04-24.21,26.37-32.59
		c7.94-7.99,19.37-18.27,34.67-28.44c12.25-9.38,24.49-18.77,36.74-28.15c11.73-6.23,14.75-7.08,15.11-6.52
		c1.01,1.57-18.31,14.73-45.04,36.15c-28.1,22.52-42.15,33.78-50.67,45.33c-19.6,26.6-26.2,56.03-30.4,54.83
		C582.47,733.83,582.22,730.66,582.19,728.26z"/>
	<path class="st22" d="M712.26,591.07c20.87-13.18,37.69-21.86,46.4-25.46c8.05-3.32,16.34-5.5,16.34-5.5
		c4.58-1.2,6.86-1.8,9.26-1.93c5.98-0.3,9.08,2.2,20.98,9.01c5.71,3.27,8.2,4.52,30.87,18.25c1.35,0.82,4.07,2.48,3.85,2.96
		c-0.3,0.67-5.96-1.23-8.3-2.07c-11.28-4.08-16.83-9.63-24.89-14.81c-4.49-2.89-11.41-6.72-21.04-9.78
		c-2.54,0.57-5.74,1.34-9.41,2.37c0,0-6.21,1.75-12.44,4c-7.44,2.69-20.17,8.37-35.51,17.23C723,587.25,717.63,589.16,712.26,591.07
		z"/>
	<path class="st23" d="M775.22,547c-2.02-4.01-4.56-8.46-7.78-13.11c-2.7-3.9-5.42-7.3-8-10.22c-4.95,1.09-10.25,2.5-15.81,4.36
		c-12.54,4.18-23.01,9.47-31.38,14.53c-5.34,3.23-5.76,4.02-5.64,4.28c0.41,0.9,8.13-1.66,13.19-3.62c6.52-2.51,7.76-3.68,16.44-7.7
		c12.93-5.99,16.48-6.31,19.7-5.48c3.22,0.83,5.57,2.66,7.04,4.07c2.96,4,5.93,8,8.89,12C773,546.41,774.11,546.7,775.22,547z"/>
	<path d="M203.22,574.7l-10.67,21.11l19.78,26.3L199.89,647l27.33,97.11l-30.67-98.29l11.5-23.71l-20.61-26.3
		C192.7,588.77,197.96,581.74,203.22,574.7z"/>
	<path d="M143.67,780.11c0,0-42.07-9.78-65.78,15.41C77.89,795.52,98.93,778.33,143.67,780.11z"/>
	<path d="M95.07,863.96c0,0,8,24,33.48,28.89C128.56,892.85,113.74,890.63,95.07,863.96z"/>
	<path d="M204.11,914.04l15.11,1.08c0,0,1.43-31.92,10.37-55.6c0,0-12.15,22.89-12.74,49.67v2.88l-26.75-1.33l-5.84,1.33
		L204.11,914.04z"/>
	<path d="M352.56,789c0.89-0.89,16.67-45.22,16.67-45.22h1.63L354.63,789H352.56z"/>
	<g>
		<line class="st24" x1="507.96" y1="885.15" x2="521.74" y2="873.15"/>
		<line class="st24" x1="515.92" y1="885.46" x2="521.65" y2="880.47"/>
		<line class="st24" x1="500.19" y1="884.2" x2="521.65" y2="865.51"/>
		<line class="st24" x1="492.09" y1="883.53" x2="520.67" y2="858.65"/>
		<line class="st24" x1="484.63" y1="882.31" x2="519.58" y2="851.88"/>
		<line class="st24" x1="479.41" y1="879.15" x2="518.11" y2="845.44"/>
		<line class="st24" x1="473.82" y1="876.3" x2="516.67" y2="838.97"/>
		<line class="st24" x1="467.41" y1="874.16" x2="514.27" y2="833.34"/>
		<line class="st24" x1="459.71" y1="873.15" x2="512.33" y2="827.32"/>
	</g>
	<path d="M101.89,907.81L95.07,1000l5.01-0.44l4.76-82.6c0.17-2.94-0.13-5.9-0.89-8.74l-1.77-6.62L101.89,907.81z"/>
	<polygon points="213.74,998.44 227.52,921.15 224.63,921.15 212.13,998.44 	"/>
	<path d="M238.11,455.29c-1.98-5.14-3.78-8.88-4.69-10.34c-0.42-0.67-0.91-1.19-1.87-2.23c-0.52-0.56-0.89-0.91-1.44-1.02
		c-0.71-0.14-1.32,0.18-1.56,0.32c-1.16,0.62-2.84,2.87-3.53,6.08c-1.46,6.88,1.94,16.83,2.69,18.94
		c-1.65-2.51-6.45-10.45-4.23-18.59c1.18-4.33,4.27-8.44,5.98-8.68c0.33-0.05,0.65-0.05,0.96-0.01c1.1,0.12,2.07,0.76,2.77,1.62
		c0.56,0.69,1.13,1.43,1.68,2.23c2.65,3.84,4.09,7.64,4.9,10.66L238.11,455.29z"/>
	<path d="M238.11,462.78c0,0-1.41-5.55,0-7.49l1.67-1.03c0,0-1.4,5.52-1.15,6.24S238.11,462.78,238.11,462.78z"/>
	<path d="M380.57,461.39c0,0,5.38-5.15,6.83-8.81c1.45-3.66,2.63,1.16,0.43,9.63c-2.2,8.47-7.61,18.01-7.61,18.01
		s-0.85,2.33-3.11,2.52c-2.26,0.19-0.33,1.07-0.33,1.07s4,0.44,9.11-12.22s3.7-20.25,3.7-20.25s-1.18-3.84-3.11,0.57
		c-1.93,4.41-5.41,7.53-5.41,7.53L380.57,461.39z"/>
	<path class="st25" d="M594.19,545.37c0.46-4.8,0.78-9.85,0.93-15.15c0.3-11.01-0.24-21.14-1.22-30.22
		c2.46-3.02,5.49-6.38,6.56-5.78c0.73,0.41,0.2,2.45-0.22,5c-0.44,2.66-0.48,6.33-0.56,13.67c-0.04,3.61,0.21,8.82,1.56,15.33
		c0.96,4.53,1.93,9.06,2.89,13.59c-1.06,0.69-2.39,1.43-4,2.07C597.83,544.8,595.77,545.19,594.19,545.37z"/>
	<path class="st25" d="M571.33,473.33c3.55-2.67,4.31-7.07,5.67-15.78c0.96-6.16,2.12-13.55,0.67-21.44
		c-0.28-1.52-0.89-4.33-1.56-8.78c0,0-0.23-1.57-1.02-7.41l-3.61-4.26c-2.17-3.62-4.81-7.43-6.15-6.95c-1.73,0.62-0.25,8,0.27,13.87
		c0.71,8.05,0.16,19.35-5.38,33.63c0.73,6.49,1.45,12.98,2.18,19.47C564.76,475.81,568.34,475.58,571.33,473.33z"/>
	<line class="st26" x1="516.67" y1="891.07" x2="519.58" y2="894.41"/>
	<line class="st26" x1="510.49" y1="891.07" x2="518.7" y2="900.49"/>
	<line class="st26" x1="504.1" y1="891.56" x2="518.11" y2="907.63"/>
	<line class="st26" x1="502.34" y1="897.36" x2="517.22" y2="914.42"/>
	<line class="st26" x1="501.25" y1="903.92" x2="516.67" y2="921.61"/>
	<line class="st26" x1="499.55" y1="909.78" x2="515.8" y2="928.43"/>
	<line class="st26" x1="498.25" y1="916.23" x2="514.51" y2="934.88"/>
	<line class="st26" x1="497.5" y1="923.3" x2="513.75" y2="941.95"/>
	<line class="st26" x1="496.73" y1="929.99" x2="512.98" y2="948.63"/>
	<line class="st26" x1="496.21" y1="936.57" x2="512.47" y2="955.21"/>
	<line class="st26" x1="495.69" y1="943.22" x2="511.94" y2="961.87"/>
	<line class="st26" x1="495.17" y1="949.86" x2="511.32" y2="968.38"/>
	<line class="st26" x1="494.67" y1="956.26" x2="509.48" y2="973.25"/>
	<line class="st26" x1="494.67" y1="962.54" x2="504.01" y2="973.25"/>
	<line class="st26" x1="494.09" y1="967.68" x2="497.92" y2="972.08"/>
	<path d="M494.31,769.62c0,0-6.94-9.36-22.94-6.62l-5.78,1.56c0,0,17.73-2.52,28.72,7.26V769.62z"/>
</g>
<g id="Лицо">
	<path d="M325.94,444.78l1.19,25.04c0,0-12.67,0-14.22,2.44s18.22,1.11,18.22,1.11l-4.8-33.49l-0.05,0.08
		C325.31,441.35,325.84,443.09,325.94,444.78z"/>
	<path d="M347.22,494.14h-1.17l-0.27,2.47l-2.56,0.62c-15.25,4.89-40.12,0.15-45.88-1.07l-0.91-2.92l-1.44-0.33l1.11,4.94h1.78
		l-0.02-0.05c8.36,2.22,15.57,3.09,20.92,3.42c5.45,0.34,11.22,0.66,18.61-0.89c3.79-0.8,6.87-1.84,9.06-2.7
		c0.12-0.04,0.24-0.09,0.36-0.13C346.94,496.38,347.08,495.26,347.22,494.14z"/>
	<path class="st27" d="M303.62,408.53l-28.58-2.89l-8.33,12.05l6.77-3.94c0.47-0.27,1.01-0.38,1.55-0.31
		c4.7,0.65,28.05,3.72,30.98,1.45c3.26-2.52,1.37-8.81,1.37-8.81L303.62,408.53z"/>
	<path class="st27" d="M341.41,408.53c0,0-3.34,5.02-0.38,9.28c2.96,4.26,27.23,0.58,27.23,0.58s4.69,1.88,6.09,3.59
		c1.4,1.7-0.33-6.66-3.86-10.18l-27.03,0.11L341.41,408.53z"/>
	<path class="st0" d="M275.71,433.28c6.99,3.81,13.06,4.64,16.62,4.82c4.85,0.25,9.28,0.47,12.38-2.64
		c3.74-3.76,2.89-9.75,2.7-10.92c-14.36-3.86-23.32-2.31-27.75-1.03c-2.67,0.77-6.85,2.02-7.23,4.67
		C272.09,430.5,274.87,432.66,275.71,433.28z"/>
	<polygon points="308.58,426.08 307.08,422.55 280.15,420.73 271.1,426.28 270.84,429.3 272.91,429.48 273.08,427.41 279.65,423.5 
		304.99,424.89 307.22,426.27 	"/>
	
		<linearGradient id="SVGID_1_" gradientUnits="userSpaceOnUse" x1="294.5373" y1="437.0124" x2="294.5373" y2="423.6817" gradientTransform="matrix(0.9965 0.0838 -0.0838 0.9965 37.0759 -22.7345)">
		<stop  offset="0" style="stop-color:#0071BC"/>
		<stop  offset="0.1747" style="stop-color:#005892"/>
		<stop  offset="0.4617" style="stop-color:#003354"/>
		<stop  offset="0.705" style="stop-color:#001726"/>
		<stop  offset="0.8919" style="stop-color:#00060A"/>
		<stop  offset="1" style="stop-color:#000000"/>
	</linearGradient>
	<path class="st28" d="M289.15,424.02c-2.39,3.65-1.95,8.3,0.83,11.05c2.44,2.43,6.6,3.29,8.93,1.68
		c3.39-2.35,2.91-12.04,2.91-12.04l0,0L289.15,424.02z"/>
	<path class="st0" d="M296.19,428.73l1.33,0.11c0.55,0.05,0.99,0.49,1.02,1.04c0.04,0.61-0.01,1.36-0.36,1.84
		c-0.67,0.91-2.33,1.14-2.33,1.14s-1.01-0.53-0.95-2.95C294.92,429.22,295.5,428.68,296.19,428.73z"/>
	<path class="st0" d="M340.33,435c1.97,1.63,5.86,4.36,11.39,5.28c3.1,0.51,10.51,1.74,15.01-3.1c3.27-3.53,3.19-8.32,3.09-9.95
		c-0.9-0.05-2.25-0.13-3.89-0.25c-6.37-0.44-9.94-0.86-15.26-1.21c-8.07-0.53-9.88-0.2-10.63,0.38c-0.07,0.06-0.17,0.15-0.29,0.28
		C337.71,428.71,339.47,433.12,340.33,435z"/>
	<path d="M338.2,426.6l0.74-1.92l22.41-0.54l9.71,1.62l-0.22,3.78c-0.74,3.04-1.31,4.53-1.7,4.49c-0.14-0.02-0.26-0.23-0.35-0.63
		c0.22-1.31,0.45-2.63,0.67-3.94l-0.35-1.86l-10.99-0.79l-17.31-0.09l-2.25,2.13L338.2,426.6z"/>
	
		<linearGradient id="SVGID_00000098928767960400692500000010075136738237836728_" gradientUnits="userSpaceOnUse" x1="356.6221" y1="439.4553" x2="356.6221" y2="426.3439" gradientTransform="matrix(0.9983 0.058 -0.058 0.9983 25.7568 -19.718)">
		<stop  offset="0" style="stop-color:#0071BC"/>
		<stop  offset="0.1747" style="stop-color:#005892"/>
		<stop  offset="0.4617" style="stop-color:#003354"/>
		<stop  offset="0.705" style="stop-color:#001726"/>
		<stop  offset="0.8919" style="stop-color:#00060A"/>
		<stop  offset="1" style="stop-color:#000000"/>
	</linearGradient>
	
		<path style="fill:url(#SVGID_00000098928767960400692500000010075136738237836728_);stroke:#000000;stroke-width:2;stroke-miterlimit:10;" d="
		M351.29,426.6c-2.03,5.29-0.67,10.39,2.49,12.23c1.85,1.08,4.79,1.32,6.72-0.11c1.6-1.18,1.96-3.1,2.48-5.91
		c0.45-2.41,0.4-4.46,0.28-5.86C359.27,426.83,355.28,426.72,351.29,426.6z"/>
	<path class="st0" d="M357.89,431.48l1.11,0.06c0.46,0.03,0.84,0.38,0.88,0.82c0.04,0.49,0.02,1.1-0.26,1.5
		c-0.54,0.75-1.91,0.97-1.91,0.97s-0.86-0.41-0.86-2.37C356.83,431.91,357.31,431.45,357.89,431.48z"/>
	<path class="st30" d="M557.22,447.22v19.56c0,2.41,0.67,4.8,2.12,6.72c1.74,2.32,4.58,3.89,8.58-0.66
		c1.12-1.28,1.81-2.88,1.97-4.57c0.32-3.55,0.93-10.83,1.28-18.97c0.87-19.88-1.73-19.85-1.5-31.42c0.02-1.13,0.1-3.75-1.22-6.59
		c-1.3-2.79-3.25-4.34-5.89-6.41c-0.9-0.71-1.83-1.34-3.11-1.44c-1.23-0.09-2.18,0.36-2.67,0.59c-2.84,1.38-4.02,4.44-4.59,5.93
		c-0.87,2.26-1.01,4.15-1.19,6.52c-0.05,0.72-0.17,2.55-0.01,4.98c0.04,0.62,0.43,6.16,2.16,10.5c0.14,0.36,0.64,1.56,1.28,3.3
		c0.39,1.05,0.69,1.9,0.87,2.43c0.37,0.88,0.73,1.88,1.04,2.98C557.03,443.17,557.22,445.42,557.22,447.22z"/>
</g>
<g id="Персонаж">
</g>
<g id="Палитра">
	<g>
		<rect x="690.67" y="-200.96" class="st31" width="132.81" height="132.81"/>
		<rect x="823.48" y="-200.96" class="st32" width="132.81" height="132.81"/>
		<rect x="956.29" y="-200.96" class="st20" width="132.81" height="132.81"/>
	</g>
	<g>
		<rect x="258.21" y="-200.96" class="st33" width="132.81" height="132.81"/>
		<rect x="125.4" y="-200.96" class="st34" width="132.81" height="132.81"/>
		<rect x="-7.42" y="-200.96" class="st35" width="132.81" height="132.81"/>
		<rect x="-140.23" y="-200.96" class="st36" width="132.81" height="132.81"/>
		<rect x="391.02" y="-200.96" class="st21" width="132.81" height="132.81"/>
		<rect x="523.83" y="-200.96" class="st37" width="132.81" height="132.81"/>
	</g>
	<g>
		<rect x="706.67" y="-350.7" class="st30" width="122.14" height="122.14"/>
		<rect x="828.81" y="-350.7" class="st38" width="122.14" height="122.14"/>
		<rect x="950.96" y="-350.7" class="st25" width="122.14" height="122.14"/>
	</g>
	<g>
		<rect x="-38.79" y="-330.73" class="st39" width="82.2" height="82.2"/>
		<rect x="-38.79" y="-330.73" class="st40" width="82.2" height="82.2"/>
		<rect x="43.41" y="-330.73" class="st41" width="82.2" height="82.2"/>
		<rect x="125.61" y="-330.73" class="st42" width="82.2" height="82.2"/>
		<rect x="207.81" y="-330.73" class="st39" width="82.2" height="82.2"/>
		<rect x="207.81" y="-330.73" class="st43" width="82.2" height="82.2"/>
		<rect x="290.01" y="-330.73" class="st39" width="82.2" height="82.2"/>
		<rect x="290.01" y="-330.73" class="st44" width="82.2" height="82.2"/>
		<rect x="372.21" y="-330.73" class="st45" width="82.2" height="82.2"/>
		<rect x="454.41" y="-330.73" class="st46" width="82.2" height="82.2"/>
		<rect x="536.61" y="-330.73" class="st39" width="82.2" height="82.2"/>
		<rect x="536.61" y="-330.73" class="st47" width="82.2" height="82.2"/>
	</g>
</g>
</svg>
