<?xml version="1.0" encoding="utf-8"?>
<!-- Generator: Adobe Illustrator 27.2.0, SVG Export Plug-In . SVG Version: 6.00 Build 0)  -->
<svg version="1.1" xmlns="http://www.w3.org/2000/svg" xmlns:xlink="http://www.w3.org/1999/xlink" x="0px" y="0px"
	 viewBox="0 0 1000 1000" style="enable-background:new 0 0 1000 1000;" xml:space="preserve">
<style type="text/css">
	.st0{fill:#FFFFFF;}
	.st1{fill:#9E9E9E;}
	.st2{fill:#161616;stroke:#000000;stroke-width:2;stroke-linecap:round;stroke-linejoin:round;stroke-miterlimit:10;}
	.st3{fill:#343436;stroke:#000000;stroke-width:2;stroke-linecap:round;stroke-linejoin:round;stroke-miterlimit:10;}
	.st4{fill:#020404;stroke:#000000;stroke-width:2;stroke-miterlimit:10;}
	.st5{fill:#1D1D1F;stroke:#000000;stroke-width:3;stroke-miterlimit:10;}
	.st6{fill:#010200;}
	.st7{fill:#454545;stroke:#000000;stroke-width:2;stroke-linecap:round;stroke-linejoin:round;stroke-miterlimit:10;}
	.st8{fill:#545356;stroke:#000000;stroke-width:2;stroke-linecap:round;stroke-linejoin:round;stroke-miterlimit:10;}
	.st9{fill:#131313;stroke:#000000;stroke-width:3;stroke-linecap:round;stroke-linejoin:round;stroke-miterlimit:10;}
	.st10{fill:#343436;stroke:#000000;stroke-width:3;stroke-linecap:round;stroke-linejoin:round;stroke-miterlimit:10;}
	.st11{fill:#FFFFFF;stroke:#000000;stroke-width:3;stroke-linecap:round;stroke-linejoin:round;stroke-miterlimit:10;}
	.st12{fill:#114472;stroke:#000000;stroke-width:3;stroke-miterlimit:10;}
	.st13{fill:#3F2216;stroke:#000000;stroke-width:3;stroke-miterlimit:10;}
	.st14{fill:#EDB087;stroke:#000000;stroke-width:3;stroke-miterlimit:10;}
	.st15{fill:#0E334F;}
	.st16{fill:#123F5B;}
	.st17{fill:#E89C78;}
	.st18{fill:#F6D2BA;}
	.st19{fill:#FBB03B;stroke:#000000;stroke-width:2;stroke-miterlimit:10;}
	.st20{fill:#4682AF;}
	.st21{fill:#212327;stroke:#000000;stroke-width:3;stroke-miterlimit:10;}
	.st22{fill:#131519;stroke:#000000;stroke-width:3;stroke-miterlimit:10;}
	.st23{fill:#EDB087;}
	.st24{fill:#7A1D32;}
	.st25{fill:#FBB03B;}
	.st26{fill:#3F2216;}
	.st27{fill:#2D1708;}
	.st28{fill:#114472;}
</style>
<g id="BG">
	<rect id="BG_00000021113892068526717250000008664379010032305566_" class="st0" width="1000" height="1000"/>
</g>
<g id="Стол">
	<polygon class="st1" points="0,816.58 817.74,671.64 998.56,729.36 1000,1000 0,1000 	"/>
</g>
<g id="Монитор">
	<path class="st2" d="M223.18,801.99c0,0-1.68,5.33,0,8.1s44.37,35.59,44.37,35.59l9.14-0.72l-2.69-4.01L223.18,801.99z"/>
	<polygon class="st3" points="274.01,840.95 223.18,801.99 304.79,785.31 419.19,761.98 474.36,798.54 	"/>
	<path class="st4" d="M208.75,860.51c0,0-4.17,9.78-1.92,18.92c2.24,9.14,45.86,46.98,55.64,49.22c9.78,2.24,40.71-4.87,40.71-4.87
		l236.03-50.93l-77.28-64.29L208.75,860.51z"/>
	<path class="st5" d="M211.64,856.98c0,0-6.73,7.05-0.8,14.11s34.47,39.76,51.47,46.02c0,0,14.27,3.37,30.14-1.44
		c15.87-4.81,252.04-54.83,252.04-54.83l-29.94-55.15c0,0-19.76-13.47-33.23-11.86C467.85,795.41,211.64,856.98,211.64,856.98z"/>
	<polygon class="st6" points="506.49,796.86 223.18,862.51 267.92,905.32 566.14,845.44 	"/>
	<polygon class="st7" points="289.32,722.54 309.04,800.22 325.4,806.72 303.51,719.42 	"/>
	<polygon class="st8" points="301.11,719.42 325.4,806.72 378.31,796.14 357.62,711 	"/>
	<polygon class="st9" points="131.79,456.79 124.58,461.12 136.12,738.66 143.82,744.43 	"/>
	<polygon class="st10" points="131.31,456.79 143.82,744.43 564.69,681.42 564.69,432.26 	"/>
	<polygon class="st11" points="148.63,473.14 160.17,720.38 548.34,667.95 548.34,446.69 	"/>
</g>
<g id="Персонаж">
	<path class="st12" d="M831.17,650.15c-34.63,27.18-68.79,31.99-68.79,31.99l-110.47,3.6c0,0,9.61-28.86,12.19-31.43
		c0,0,3.43-0.22,10.28-1.03c18.51-2.21,61.96-8.86,129.85-27.82C804.24,625.46,824.76,636.05,831.17,650.15z"/>
	<path class="st12" d="M889.25,666.63V1000H557.96l-2.56-26.94L526.22,1000H317.46l-11.86-65.41c0,0,0.93-0.95,2.65-2.47
		c8.12-7.06,33.9-26.22,64.05-14.85l29.18,37.2l38.16-65.74l36.7-65.13l19.68-34.9l3.27-5.79c0,0,27.25-40.73,82.09-62.53
		c54.84-21.81,70.55-34.63,70.55-34.63l110.47-3.6c0,0,34.16-4.82,68.79-31.99L889.25,666.63z"/>
	<path class="st13" d="M814.63,520.29c-3.43,16.88-10.21,40.54-23.14,59.88l-1.69,1.92c0,0-41.04,8.91-86.58,6.82
		c0,0-25.65-3.85-33.03-19.56c-7.37-15.71-30.45-56.13-30.45-56.13l-7.38-13.46c0,0-2.56-9.3-17.63-5.77c0,0-5.78,4.48,0,17.32
		c0,0,4.81,27.25,5.13,41.36l0.64,5.13l-3.64-3.36c-3.06-2.82-5.21-6.52-6.14-10.57l-8.83-38.34l-2.26-5.52
		c-1.45-3.54-2.01-7.37-1.66-11.17l1.27-13.17c0.47-4.88-1.14-9.73-4.4-13.38l-7.53-8.39c0,0-8.05-3.73-12.38-3.01l6.21-21.1
		c0.51-1.72,1.16-3.39,1.96-4.99c0,0-0.36-2.22-0.36-5.29c0-5.26,1.05-13.03,6.73-16.59c6.75-4.23,23.13-13.45,30.92-17.82
		c2.81-1.57,5.74-2.95,8.73-4.13l18.39-7.2c2.35-0.93,4.65-1.97,6.92-3.11l18.45-9.4c3.06-1.56,6.32-2.71,9.69-3.41l9.78-2.05
		c6.9-1.45,13.97-1.97,21.01-1.55l15.95,0.96c6.14,0.38,12.14,1.87,17.72,4.44l20.42,9.35l8.66-9.86c0,0,6.97,9.86,3.13,21.65
		l-0.49,2.65c0,0,33.91-1.69,36.32,36.8c1.56,24.95,2.31,50.41,2.64,65.23C817.96,497.15,816.96,508.83,814.63,520.29z"/>
	<path class="st14" d="M804.24,625.46c-67.89,18.96-111.34,25.62-129.85,27.82l-3.39-13c0,0-7.22,15.15-32.47,7.93
		c0,0-8.46,0.43-15.47-20.32c-1-2.98-2.15-5.89-3.53-8.71c-4.19-8.56-13.26-28.68-16.36-47.67c-4.09-25.02-2.89-26.7-2.89-26.7
		l-0.16-12.02l-5.56-7.81c-2.08-2.91-3.34-6.33-3.66-9.9l-3.6-40.25v-20.92l7.53,8.39c3.27,3.65,4.87,8.5,4.4,13.38l-1.27,13.17
		c-0.36,3.8,0.21,7.63,1.66,11.17l2.26,5.52l8.83,38.34c0.93,4.06,3.07,7.75,6.14,10.57l3.64,3.36l-0.64-5.13
		c-0.32-14.11-5.13-41.36-5.13-41.36c-5.78-12.84,0-17.32,0-17.32c15.06-3.53,17.63,5.77,17.63,5.77l7.38,13.46
		c0,0,23.08,40.41,30.45,56.13c7.38,15.7,33.03,19.56,33.03,19.56c45.54,2.09,86.58-6.82,86.58-6.82s0.25,26.94,5.29,34.16
		C800.15,623.46,804.24,625.46,804.24,625.46z"/>
	<path class="st14" d="M392.82,886.81c0,0-2.56,10.58-18.92,21.16l-1.6,9.31c-30.15-11.37-55.93,7.79-64.05,14.85l-3.32-5.45
		c-1.76-2.9-3.93-5.54-6.49-7.76c-5.38-4.69-16.2-16.5-23.63-40.44c0,0-11.55-4.82-9.62-17.97c1.93-13.15,21.43,0,21.43,0
		s8.07,3.71,5.19-5.84c-1.83-6.06-2.38-11.24-2.53-14.21c-0.09-1.83,0.59-3.62,1.91-4.89c2.54-2.43,7.33-5.74,13.12-3.59
		c0,0,7.06-14.75,18.92-11.54c0,0,9.3,4.48,10.58,10.26c0,0,11.86-8.02,24.37-1.29c0,0,3.53,0.32,5.13,19.57
		c0,0,3.2,16.35,10.26,15.7c0,0,1.53,0,0.5-7.24c-0.3-2.1,1.29-4,3.4-4.11c2.12-0.11,4.91,0.45,7.95,2.94
		c3.68,3.02,5.81,7.52,6.14,12.27L392.82,886.81z"/>
	<path class="st14" d="M496.01,788.7l-19.68,34.9l-10.25,9.97c0,0-12.19,4.98-13.3-4.81c-1.13-9.78,9.13-20.21,9.13-20.21
		L496.01,788.7z"/>
</g>
<g id="Тени">
	<path class="st15" d="M720.06,1000c0,0,13.47-47.3,51.47-79.53c0,0,11.54-2.41,14.43-30.78c2.89-28.38,42.81-141.9,42.81-141.9
		s25.01-66.86,47.38-74.07l12.27-5.86h8.98L857.62,1000H720.06z"/>
	<path class="st15" d="M596.33,998.44c0,0-18.49-44.94,2.67-73.8l-1.6-3.85L557,974l2.33,24.56L596.33,998.44z"/>
	<path class="st16" d="M371.69,918.91c-3.82-1.5-8.08-2.68-12.78-3.25c-25.65-3.12-45.9,14.18-51.43,19.24l11.19,64.05l43.16-0.19
		L402,956.43L371.69,918.91z"/>
	<path d="M523.97,770.4c0,0,72.34,86.57,57.05,170.89l-6.03,7.29c1.24-5.95,2.11-12.68,2.69-18.98
		c6.54-70.3-33.77-128.72-59.48-159.21H523.97z"/>
	<path d="M554.33,972.22l34.79-40.52l0,0c0.75,2.37,0.2,4.95-1.47,6.79c-8.07,8.92-31.44,35.59-30.95,44.55L554.33,972.22z"/>
	<path class="st17" d="M628.55,498.04c0,0,20.56,22.49,15.39,51.23c0,0-0.48,12.15-9.26,6.61L628.55,498.04z"/>
	<path class="st18" d="M628.59,496.95c-1.25-0.75-3.31-1.77-6.01-2.16c-2.36-0.35-5.02-0.74-7.05,0.8c-3.17,2.4-2.36,7.64-2.13,9.06
		c0.18,1.16,0.75,4.79,3.37,6.19c1.08,0.57,2.07,0.53,2.39,0.56c2.36,0.21,5.16,7.8,7.59,37.26c0,0-0.96,10.1,4.57,9.86
		c5.53-0.24,9.14-5.53,3.37-43.05c0.08-2.32-0.08-5.99-1.52-10.18C631.84,501.48,629.97,498.7,628.59,496.95z"/>
	<path class="st17" d="M655.68,647.99c1.79-5.32,3.45-11.28,4.77-17.82c2.86-14.19,3.23-26.88,2.69-37.1l2.73,2.24
		c1.79,13.41,3.58,26.83,5.37,40.24c-0.45,1.6-1.3,3.76-2.97,5.87C663.89,646.97,657.31,647.82,655.68,647.99z"/>
	<path class="st17" d="M307.2,834.7h-4.81c0,0-0.64,6.09,3.37,11.06s1.44,1.92,1.44,1.92V834.7z"/>
	<path class="st17" d="M325.33,824.17c-0.41,1.23-0.81,2.82-0.9,4.71c-0.2,4.14,1.15,7.36,2,9.02l6.27-4.51
		c-0.09-1.01-0.42-3.09-1.88-5.17C328.91,825.48,326.26,824.47,325.33,824.17z"/>
	<path class="st17" d="M285.71,862.11c0,0,7.86,3.37,10.42-2.41C296.14,859.71,298.86,869.65,285.71,862.11z"/>
	<path class="st18" d="M403.92,901.96"/>
	<path class="st18" d="M423.92,812.73"/>
	<polygon points="407.65,946.93 398.39,963.52 366.16,996.35 362.54,997.43 396.95,961.6 406.55,945.72 	"/>
	<polyline points="562.93,969.17 563.94,998.56 559.33,998.56 557,976.06 563.44,966.17 562.93,969.17 	"/>
	<path id="Буговки_00000068669805361519383860000010742942434341942972_" class="st19" d="M330.07,976.24
		c0,0-0.91-7.33-6.15-2.3c-5.23,5.03,1.01,9.63,3.19,9.19C329.29,982.68,332.36,982.09,330.07,976.24z"/>
	<path id="Буговки_00000000211988540122338210000009420267651494165637_" class="st19" d="M326.13,959.61
		c0,0-0.91-7.33-6.15-2.3c-5.23,5.03,1.01,9.63,3.19,9.19S328.42,965.46,326.13,959.61z"/>
	<path class="st20" d="M528.56,761.98c0,0,42.66-35.56,102.67-56.54l22.67-15.11h12.44c0,0-38.22,25.87-55.56,30.05
		c-17.33,4.18-44.64,24.05-44.64,24.05S545.44,763.86,528.56,761.98z"/>
	<path class="st20" d="M662.33,678.33l5.11-20c0,0,33.78-4.37,57.78-8.18c24-3.82,32.22-7.82,32.22-7.82s-23.7,17.01-60.22,18
		c0,0-24.22,0.44-24.89,4.44C671.67,668.78,667.25,686.69,662.33,678.33z"/>
	<path class="st20" d="M508.56,781.44c0,0-78.16,135.11-84.63,143.56s-7.81,13.78-7.81,13.78s8,0.06,11.56-7.08
		c3.56-7.14,40.89-67.61,41.33-69.38s40-71.26,42.67-73.62c2.67-2.37,0-13.48,0-13.48L508.56,781.44z"/>
</g>
<g id="Кресло">
	<path class="st21" d="M998.56,633.8c0,0-100.05,19.72-108.23,31.27c-0.08,0.12-0.16,0.23-0.24,0.35
		c-7.18,10.18-12.64,21.46-16.31,33.36c-11.16,36.19-41.91,137.6-47.02,172.88c-0.24,1.68-0.56,3.33-0.88,5
		c-0.7,3.61-1.33,12.09,4.8,22.19c0,0-34.13,4.61-42.32,24.67c-0.35,0.86-0.69,1.72-1.09,2.56l-35,73.3h43.77
		c0,0,19.72-46.18,38-62.05c3.51-3.05,6.56-5.53,9.2-7.55c7.44-5.7,16.54-8.81,25.92-8.81h0c0,0-8.66-5.77-3.85-31.27
		c4.81-25.49,45.7-172.2,45.7-172.2s9.01-33.87,26.46-37.04c5.96-1.08,22.62-5.76,28.51-7.18l32.58-7.86V633.8z"/>
	<path class="st22" d="M796.22,1000c0.96,0,24.69-50.67,24.69-50.67s17.64-29.18,46.5-29.82c0,0-8.02-13.15-4.49-25.33
		c3.53-12.19,37.52-137.89,37.52-137.89l19.88-62.21c0,0,8.02-16.03,25.65-17.96l52.59-13.47V1000H796.22z"/>
</g>
<g id="Палитра">
	<g>
		<rect x="716.23" y="-184.74" class="st18" width="132.81" height="132.81"/>
		<rect x="849.04" y="-184.74" class="st23" width="132.81" height="132.81"/>
		<rect x="981.85" y="-184.74" class="st17" width="132.81" height="132.81"/>
	</g>
	<g>
		<rect x="283.77" y="-184.74" class="st24" width="132.81" height="132.81"/>
		<rect x="150.96" y="-184.74" class="st25" width="132.81" height="132.81"/>
		<rect x="18.15" y="-184.74" class="st26" width="132.81" height="132.81"/>
		<rect x="-114.66" y="-184.74" class="st27" width="132.81" height="132.81"/>
		<rect x="416.58" y="-184.74" class="st20" width="132.81" height="132.81"/>
		<rect x="549.39" y="-184.74" class="st28" width="132.81" height="132.81"/>
	</g>
</g>
</svg>
