<?xml version="1.0" encoding="utf-8"?>
<!-- Generator: Adobe Illustrator 27.2.0, SVG Export Plug-In . SVG Version: 6.00 Build 0)  -->
<svg version="1.1" xmlns="http://www.w3.org/2000/svg" xmlns:xlink="http://www.w3.org/1999/xlink" x="0px" y="0px"
	 viewBox="0 0 1000 1000" style="enable-background:new 0 0 1000 1000;" xml:space="preserve">
<style type="text/css">
	.st0{fill:#DDDDDD;stroke:#000000;stroke-width:3;stroke-miterlimit:10;}
	.st1{fill:#FFFFFF;stroke:#000000;stroke-width:3;stroke-linecap:round;stroke-linejoin:round;stroke-miterlimit:10;}
	.st2{fill:#C4C4C4;stroke:#000000;stroke-miterlimit:10;}
	.st3{fill:#8AD6F7;}
	.st4{fill:#F86299;}
	.st5{fill:#C69C6D;}
	.st6{fill:#A071C9;}
	.st7{fill:#85C971;}
	.st8{fill:none;stroke:#000000;stroke-width:5;stroke-miterlimit:10;}
	.st9{fill:none;stroke:#000000;stroke-width:3;stroke-linecap:round;stroke-linejoin:round;stroke-miterlimit:10;}
	.st10{fill:#FEF6B3;}
	.st11{fill:none;stroke:#000000;stroke-width:4;stroke-miterlimit:10;}
	.st12{fill:none;stroke:#000000;stroke-width:4;stroke-linecap:round;stroke-linejoin:round;stroke-miterlimit:10;}
	.st13{fill:none;stroke:#8CC63F;stroke-width:6;stroke-miterlimit:10;}
	.st14{fill:none;stroke:#F15A24;stroke-width:6;stroke-miterlimit:10;}
	.st15{fill:none;stroke:#29ABE2;stroke-width:6;stroke-miterlimit:10;}
	.st16{fill:#114472;stroke:#000000;stroke-width:2;stroke-linecap:round;stroke-linejoin:round;stroke-miterlimit:10;}
	.st17{fill:#14527F;stroke:#000000;stroke-width:2;stroke-linecap:round;stroke-linejoin:round;stroke-miterlimit:10;}
	.st18{fill:#EDB087;stroke:#000000;stroke-width:2;stroke-linecap:round;stroke-linejoin:round;stroke-miterlimit:10;}
	.st19{fill:#009245;stroke:#000000;stroke-width:2;stroke-linecap:round;stroke-linejoin:round;stroke-miterlimit:10;}
	.st20{fill:#FFFFFF;stroke:#000000;stroke-width:2;stroke-linecap:round;stroke-linejoin:round;stroke-miterlimit:10;}
	.st21{fill:#3F2216;stroke:#000000;stroke-width:2;stroke-linecap:round;stroke-linejoin:round;stroke-miterlimit:10;}
	.st22{fill:#0F3856;stroke:#000000;stroke-width:2;stroke-linecap:round;stroke-linejoin:round;stroke-miterlimit:10;}
	.st23{fill:#7A1D32;stroke:#000000;stroke-width:2;stroke-linecap:round;stroke-linejoin:round;stroke-miterlimit:10;}
	.st24{fill:none;stroke:#000000;stroke-width:2;stroke-linecap:round;stroke-linejoin:round;stroke-miterlimit:10;}
	.st25{fill:#12384F;stroke:#000000;stroke-width:2;stroke-linecap:round;stroke-linejoin:round;stroke-miterlimit:10;}
	.st26{fill:#E89C78;}
	.st27{opacity:0.46;}
	.st28{fill:#4682AF;}
	.st29{fill:#FBB03B;stroke:#000000;stroke-width:2;stroke-miterlimit:10;}
	.st30{fill:#6D6D6D;stroke:#000000;stroke-width:3;stroke-miterlimit:10;}
	.st31{fill:#939393;stroke:#000000;stroke-width:3;stroke-miterlimit:10;}
	.st32{fill:#FFFFFF;stroke:#000000;stroke-width:3;stroke-miterlimit:10;}
	.st33{fill:#E49277;stroke:#000000;stroke-width:3;stroke-miterlimit:10;}
	.st34{fill:#2F2627;stroke:#000000;stroke-width:3;stroke-miterlimit:10;}
	.st35{fill:#575256;stroke:#000000;stroke-width:3;stroke-miterlimit:10;}
	.st36{fill:#A7A3A0;stroke:#000000;stroke-width:3;stroke-miterlimit:10;}
	.st37{fill:none;stroke:#000000;stroke-width:3;stroke-miterlimit:10;}
	.st38{fill:#A6A29F;stroke:#000000;stroke-width:3;stroke-miterlimit:10;}
	.st39{fill:#8A5E4B;stroke:#000000;stroke-width:3;stroke-linecap:round;stroke-linejoin:round;stroke-miterlimit:10;}
	.st40{fill:#FEC3B3;stroke:#000000;stroke-width:3;stroke-linecap:round;stroke-linejoin:round;stroke-miterlimit:10;}
	.st41{fill:#414851;stroke:#000000;stroke-width:3;stroke-linecap:round;stroke-linejoin:round;stroke-miterlimit:10;}
	.st42{fill:#2E363C;stroke:#000000;stroke-width:3;stroke-linecap:round;stroke-linejoin:round;stroke-miterlimit:10;}
	.st43{fill:#5C6670;}
	.st44{fill:#2A150F;stroke:#000000;stroke-miterlimit:10;}
	.st45{fill:#FFFFFF;}
	.st46{fill:url(#SVGID_1_);stroke:#000000;stroke-miterlimit:10;}
	.st47{fill:url(#SVGID_00000122687854225726229050000005225852078680748675_);stroke:#000000;stroke-miterlimit:10;}
	.st48{fill:#FFFFFF;stroke:#000000;stroke-linecap:round;stroke-linejoin:round;stroke-miterlimit:10;}
	.st49{fill:#F6D2BA;}
	.st50{fill:#EDB087;}
	.st51{fill:#7A1D32;}
	.st52{fill:#FBB03B;}
	.st53{fill:#3F2216;}
	.st54{fill:#2D1708;}
	.st55{fill:#114472;}
	.st56{fill:#F4DBCA;}
	.st57{fill:#F0C0A5;}
	.st58{fill:#E7B28C;}
	.st59{fill:#BDA895;}
	.st60{fill:#F2D14E;}
	.st61{fill:#45B7BD;}
	.st62{fill:#C6434A;}
	.st63{fill:#EB8080;}
	.st64{fill:#77373A;}
	.st65{fill:#7F6B97;}
	.st66{fill:#404E75;}
	.st67{fill:#F2A26E;}
</style>
<g id="Доска">
	<rect x="292.37" y="310.03" class="st0" width="311.97" height="449.9"/>
	<rect x="311.37" y="319.67" class="st1" width="276.74" height="427.56"/>
	<rect x="372.7" y="301.59" class="st2" width="153.49" height="25.88"/>
	<path class="st3" d="M347.96,354.93l57.48,4.59l-2.81,58.52l-58.52-4.89C345.4,393.74,346.68,374.33,347.96,354.93z"/>
	<polygon class="st4" points="424.11,366.19 430.33,424.11 488.7,416.7 480.41,358.19 	"/>
	<polygon class="st5" points="488.7,456.56 480.78,511.22 537.67,517.67 545,462.56 	"/>
	<polygon class="st6" points="479.22,565 535.04,555.52 545.36,613.9 487.64,623 	"/>
	<polygon class="st7" points="364.11,554.12 423.22,548.56 426.33,610.09 367.22,614.33 	"/>
	<line class="st8" x1="375.55" y1="563.27" x2="413.56" y2="561.67"/>
	<path class="st9" d="M378.48,579.84c0,0,2.67-4.15,12.3-3.12c9.63,1.02,11.26,0,11.26,0"/>
	<path class="st9" d="M380.11,590.48c0,0,3.7,2.96,8,2.07c4.3-0.89,9.33-0.95,9.33-0.95l3.41-1.12"/>
	<polygon class="st10" points="461.34,566.32 401.74,561.59 397.45,623.77 457.48,627.95 	"/>
	<line class="st8" x1="360.7" y1="369" x2="392.7" y2="371.22"/>
	<line class="st8" x1="437.3" y1="379.07" x2="470.56" y2="373.3"/>
	<line class="st11" x1="495.06" y1="471.78" x2="533.56" y2="475.61"/>
	<line class="st12" x1="489.52" y1="574.34" x2="527.85" y2="568.1"/>
	<line class="st12" x1="490.94" y1="582.97" x2="529.27" y2="576.72"/>
	<line class="st12" x1="414.11" y1="584.17" x2="448.44" y2="585.61"/>
	<line class="st12" x1="412.11" y1="574.48" x2="451.12" y2="576.12"/>
	<line class="st13" x1="437" y1="476.41" x2="470.93" y2="476.41"/>
	<line class="st14" x1="379.09" y1="481.15" x2="413.02" y2="481.15"/>
	<line class="st14" x1="374.66" y1="496.26" x2="418.19" y2="496.26"/>
	<line class="st15" x1="434.19" y1="490.78" x2="474.48" y2="490.78"/>
	<line class="st15" x1="434.19" y1="505.74" x2="474.48" y2="505.74"/>
	<line class="st11" x1="494.21" y1="482.57" x2="532.71" y2="486.41"/>
	<path class="st12" d="M353.44,382.93c0,0,6.96-8,10.96,1.48c2.75,6.53,7.27,2.31,9.81-0.96c1.29-1.66,3.58-2.16,5.44-1.18
		c2.38,1.25,4.16,2.58,4.01,4.95c-0.23,3.64,11.11-0.3,11.11-0.3"/>
	<path class="st12" d="M353.44,399.07c0,0,5.04-8.15,10.37,0.74c3.43,5.71,7.77,2.98,10.44,0.3c2.02-2.03,5.12-2.67,7.69-1.39
		c1.55,0.77,3.06,1.9,3.95,3.54"/>
	<path class="st12" d="M434.78,393.15c0,0,4-8.59,11.85-3.26c5.05,3.43,11.2,1.73,14.95,0.07c1.63-0.72,3.09-1.74,4.47-2.88
		c1.56-1.29,4.75-2.86,8.59,1.06c5.48,5.6,3.7-4.92,3.7-4.92"/>
	<path class="st12" d="M438.19,404.7c0,0,4-8.59,11.11-2.44s14.67,0.92,14.67,0.92l6.96-5.88"/>
	<path class="st12" d="M454.56,357.89c0,0-28.07,14.37-28.67,32.44c-0.59,18.07,19.7,24.15,19.7,24.15s26.96,8.74,36.89-18.22
		c4.47-12.13,1.58-20.28-2.94-25.56c-5.06-5.91-12.85-8.73-20.59-7.91l-5.51,0.58"/>
	<path class="st12" d="M489.11,497.67c0,0,5.89-7.89,10.89,0.44s16.33,0,16.33,0s6.67-4.01,9.33-0.06c2.67,3.95,7.04,7.06,7.04,7.06
		"/>
	<path class="st12" d="M383.52,451.22l-1.48,8.59l-2.96-2.96c-9.93-13.78,0-29.33,0-29.33"/>
	<line class="st12" x1="371.96" y1="459.81" x2="382.04" y2="459.81"/>
	<path class="st9" d="M491.33,597.8c0,0,1.78-5.63,12.71-4.67c6.43,0.57,13.14,0.43,17.56,0.22c4.02-0.19,7.94-1.5,11.13-3.95
		c0.78-0.6,1.42-1.21,1.72-1.75"/>
	<path class="st9" d="M501.52,605.81c0,0,0.3-1.78,14.22-2.3c13.93-0.52,14.44-3.85,14.44-3.85"/>
	<path class="st9" d="M413.02,598.18c0,0,12.44-1.33,20,2c7.56,3.33,12.74-1.13,12.74-1.13"/>
	<path class="st9" d="M412.62,608.03c0,0,15.7-2.07,27.7,0.89c0,0,4.44,0.33,5.04-0.8"/>
</g>
<g id="Персонаж">
	<path class="st16" d="M790.56,543.67l-2.34,13.04c0,0,3,37.62-10.33,48.29c0,0-3.7,3.56-7.26,4.44l-69.48,0.6
		c0,0,12.11-16.26,10.37-38.82h-15.85c0,0-2.52-2.66-2.97-6.81c-0.44-4.15-6.37-13.19-6.37-13.19s-5.33-7.85-9.18-4.29
		c-3.85,3.55-0.45,9.63-1.63,15.26c-1.19,5.62-5.33,9.03-5.33,9.03c-5.06-0.38-11.06-0.55-17.04-0.58l8.89-24.64l14.37-26.63
		l45.03-70.22l-2.37-10.67h12.15l24.88-19.14l38.83,38.4C794.93,457.74,802.33,487.89,790.56,543.67z"/>
	<path class="st16" d="M781.22,716.56l-2.89,1.11c-39.61,13.1-131.02,14.22-131.02,14.22V607.43c1.17,0.23,2.38,0.45,3.62,0.68
		c21.03,3.85,37.77,0.89,37.77,0.89l12.45,1.04l69.48-0.6c3.56-0.88,7.26-4.44,7.26-4.44L781.22,716.56z"/>
	<path class="st16" d="M635.21,730.93H601l17.78-130.82c0,0,2.34,0.88,6.9,2.19l-8.46,54.03l6.67,23.34l9.9-10.01l0.1,3.78
		l0.61,26.45L635.21,730.93z"/>
	<path class="st17" d="M731.22,438.48h-12.15l2.37,10.67l-45.03,70.22L662.04,546l-8.89,24.64c-0.64-0.01-1.29-0.01-1.93-0.01
		l3.56-37.63l1.19-2.79l1.47-3.43c7.34-21.56,26.97-56.74,26.97-56.74c19.7-32.6,59.05-72.85,59.05-72.85l1.1,2.03l9.77,18.37
		l1.77,1.75L731.22,438.48z"/>
	<path class="st16" d="M659.7,439.64c-0.97,1.75-16.68,30.1-18.66,41.99c-2.04,12.26-5.82,16.46-8.48,48.58
		c-2.67,32.12-1.7,40.75-1.7,40.75c-4.26,0.14-6.97,0.26-6.97,0.26l4.44-40.44c0,0-48.22-38.37-57.7-58.82l-27.74-40.6
		c0,0,12.11-22.66,27.59-25.32l31.56,38.52l32.59,27.7L659.7,439.64z"/>
	<path class="st18" d="M527.37,395.96c0,0-0.89-1.92,1.26-4.96c1.07-1.52,3.48-1.17,5.62-0.44c1.91,0.66,3.66,1.68,5.25,2.92
		c4.76,3.7,15.28,8.78,15.28,8.78v-9.85l-27.71-5.63c2.9,0,5.77-0.61,8.41-1.8c4.12-1.85,11.46-4.05,19-1.02
		c11.41,4.6,15.41,14.67,15.41,14.67v5.04l0.59,2.37c-15.48,2.66-27.59,25.32-27.59,25.32l3.37-6.73L527.37,395.96"/>
	<path class="st18" d="M526.19,413.59"/>
	<path class="st19" d="M554.78,392.41v9.85c0,0-10.52-5.08-15.28-8.78c-1.59-1.24-3.34-2.26-5.25-2.92
		c-2.14-0.73-4.55-1.08-5.62,0.44c-2.15,3.04-1.26,4.96-1.26,4.96l-42.52-11.55l1.48-3.71l40.74,6.08L554.78,392.41z"/>
	<path class="st17" d="M681.74,413.15l-1.63,7.26c-9.11,2.07-12,17.26-12,17.26l-4.89,10c-8.44,18-17.55,42-17.55,42
		c-9.11,39.11-14.81,81.29-14.81,81.29s-0.97-8.63,1.7-40.75c2.66-32.12,6.44-36.32,8.48-48.58c1.98-11.89,17.69-40.24,18.66-41.99
		c0.02-0.02,0.03-0.05,0.04-0.06c0.01-0.01,0.01-0.02,0.01-0.02l4.99-6.49c0.01-0.02,0.02-0.03,0.02-0.03l10.61-13.82L681.74,413.15
		z"/>
	<path class="st20" d="M743.46,397.19c0,0-39.35,40.25-59.05,72.85c0,0-19.63,35.18-26.97,56.74l-1.47,3.43l5.92-31.88l10.22-53.55
		c7.11-2,13.02-11.74,13.02-11.74c-1.98-6.12-5.02-12.63-5.02-12.63l3.85-0.89l28.89-15.11c25.78-8.74,26.67-14.52,26.67-14.52
		L743.46,397.19z"/>
	<path class="st18" d="M751.67,350.78c-3.86,19.7-14.08,12.44-14.08,12.44l1.93,26.67c0,0-0.89,5.78-26.67,14.52l-28.89,15.11
		l-3.85,0.89l1.63-7.26l3.11-2.96c-0.69-6.43-1.38-12.87-2.07-19.3c-1.71-0.75-4.23-2.11-6.56-4.56c-2.61-2.74-3.7-5.49-5-8.89
		c-1.15-3-2.51-7.4-3.13-13c-3.98-3.68-9.16-9.81-9.61-17.52c-0.06-0.94-0.47-8.02,2.08-8.89c0.65-0.22,1.34,0.01,1.88,0.29
		c0.75,0.79,1.5,1.58,2.26,2.37c0,0,1.63,3.86,2.52-16.14c0,0-0.29-5.49,4-8c0,0,1.34-6.23,0-15.12c0,0,0.3-4,5.93-2.66l19.55-0.27
		c0,0,1.97,0.82,3.3,4.16c1.33,3.33,1.56-4.16,1.56-4.16s7.33,4.82,15.11,3.38c7.77-1.45,8.33-3.89,8.33-3.89s7.89-0.78,7.33,7.33
		c0,0-1.89,11.89,1.67,17.78s3,12.11,3,12.11l0.03,12.34c0,0,3.16-0.04,6.34-8.63C743.37,338.93,755.52,331.07,751.67,350.78z"/>
	<path class="st21" d="M747.52,313.3c-3.71,16.29-3.85,21.77-3.85,21.77l-0.3,3.86c-3.18,8.59-6.34,8.63-6.34,8.63L737,335.22
		c0,0,0.56-6.22-3-12.11s-1.67-17.78-1.67-17.78c0.56-8.11-7.33-7.33-7.33-7.33s-0.56,2.44-8.33,3.89
		c-7.78,1.44-15.11-3.38-15.11-3.38s-0.23,7.49-1.56,4.16c-1.33-3.34-3.3-4.16-3.3-4.16l-19.55,0.27c-5.63-1.34-5.93,2.66-5.93,2.66
		c1.34,8.89,0,15.12,0,15.12c-4.29,2.51-4,8-4,8c-0.89,20-2.52,16.14-2.52,16.14l-1.48-13.63c0,0-9.33-13.03-2.22-28
		c0,0,4.89-6.81,5.78-11.11c0.89-4.29,6.52-11.7,14.96-10.96l14.52-1.93c0,0,15.55-5.77,25.93,0c10.37,5.78,8.88,5.78,8.88,5.78
		l6.52,8C737.59,288.85,751.22,297,747.52,313.3z"/>
	<path class="st20" d="M647.31,607.43v66.01h-13.42l-0.1-3.78l10.77-10.88l1.13-51.67C646.22,607.21,646.76,607.32,647.31,607.43z"
		/>
	<path class="st18" d="M688.7,609c0,0-16.74,2.96-37.77-0.89c-1.24-0.23-2.45-0.45-3.62-0.68c-0.55-0.11-1.09-0.22-1.62-0.32
		c-8.78-1.76-15.48-3.5-20.01-4.81c-4.56-1.31-6.9-2.19-6.9-2.19s-10.96-2.22-7.26-8.89c0,0-2.52-7.11,2.81-7.11l6.67-1.33
		c0,0-11.33-2.59-6.67-6.96c4.67-4.38,8.45-3.04,8.45-3.04l1.11-1.56c0,0,2.71-0.12,6.97-0.26c5.19-0.16,12.67-0.34,20.36-0.33
		c0.64,0,1.29,0,1.93,0.01c5.98,0.03,11.98,0.2,17.04,0.58c0,0,4.14-3.41,5.33-9.03c1.18-5.63-2.22-11.71,1.63-15.26
		c3.85-3.56,9.18,4.29,9.18,4.29s5.93,9.04,6.37,13.19c0.45,4.15,2.97,6.81,2.97,6.81h5.48C701.15,571.22,703.52,587.78,688.7,609z"
		/>
	<path class="st22" d="M778.78,736.11l-4.07,136.22l-124.67-17.55c0,0-15.41-67.35-14.82-87.6c0.59-20.25-0.01-36.25-0.01-36.25
		l-0.71-31.04h12.81v32c0,0,91.41-1.12,131.02-14.22L778.78,736.11z"/>
	<path class="st23" d="M645.69,607.11l-1.13,51.67l-10.77,10.88l-9.9,10.01l-6.67-23.34l8.46-54.03
		C630.21,603.61,636.91,605.35,645.69,607.11z"/>
	<line class="st24" x1="743.22" y1="554.63" x2="711.52" y2="571.22"/>
	<path class="st20" d="M701.15,610.04L688.7,609c14.82-21.22,12.45-37.78,12.45-37.78h10.37
		C713.26,593.78,701.15,610.04,701.15,610.04z"/>
	<path class="st23" d="M685.13,433.04c0,0-5.91,9.74-13.02,11.74l-10.22,53.55l-5.92,31.88l-1.19,2.79l-3.56,37.63
		c-7.69-0.01-15.17,0.17-20.36,0.33c0,0,5.7-42.18,14.81-81.29c0,0,9.11-24,17.55-42l4.89-10c0,0,2.89-15.19,12-17.26
		C680.11,420.41,683.15,426.92,685.13,433.04z"/>
	<path class="st24" d="M685.13,433.04c0.89,2.74,1.56,5.4,1.65,7.37l36.25-20.98"/>
	<polygon class="st25" points="647.31,673.44 647.31,699.89 634.5,699.89 633.89,673.44 	"/>
</g>
<g id="Тени">
	<path class="st26" d="M622.52,573.74l3.15,0.63c2.78,0.8,15.7,3.23,28.89,4.37c4.33,0.38,7.15,0.48,7.15,0.59
		c-0.01,0.16-5.56,0.22-11.56-0.22c-5.49-0.4-9.68-1.1-12.78-1.63c-8.23-1.4-9.3-2.24-14.7-2.85c-0.73-0.08-3.44-0.37-3.43-0.67
		c0-0.19,1.16-0.32,1.24-0.33C621.46,573.53,622.21,573.68,622.52,573.74z"/>
	<path class="st26" d="M625.03,582.72c1.62,0.3,3.24,0.59,4.86,0.89c11.28,2.63,20.09,3.69,26.17,4.16
		c3.11,0.24,7.15,0.46,7.15,0.59c-0.01,0.16-5.56,0.22-11.56-0.22c-2.93-0.22-7.28-0.55-12.78-1.63c-6.3-1.24-9.45-1.86-10.33-2.1
		c-1.29-0.36-2.55-0.78-4.38-0.75c-1.12,0.02-2.78,0.22-2.81,0.02c-0.02-0.11,0.49-0.17,0.61-0.54c0.17-0.5-0.52-1.08-0.39-1.23
		c0.1-0.11,0.55,0.14,0.62,0.18C622.73,582.39,623.6,582.7,625.03,582.72z"/>
	<path class="st26" d="M614.73,590.5l3.15,0.63c12.54,1.76,22.19,3.27,28.89,4.37c3.46,0.57,7.29,1.21,7.27,1.39
		c-0.04,0.28-10.06-0.84-11.68-1.02c-6.65-0.74-9.98-1.11-12.78-1.63c-4.59-0.85-9.21-1.56-13.81-2.41
		c-1.43-0.26-1.72-0.36-2.28-0.25c-0.35,0.07-0.86,0.22-1.03,0c-0.11-0.14,0.03-0.31-0.03-0.72c-0.06-0.39-0.21-0.5-0.17-0.61
		C612.35,590.08,612.89,590.04,614.73,590.5z"/>
	<path d="M705.3,570.19c4.17-1.94,8.54-4.13,13.04-6.63c6.41-3.56,12.19-7.21,17.33-10.78c-2.47-22.74-4.94-45.48-7.41-68.22
		c6.98,32.87,12.16,56.9,13.04,60.59c0.03,0.11,0.62,0.88,1.11,2.07c0.53,1.28,0.73,2.43,0.81,3.22c1.6-0.57,3.92-1.3,6.78-1.89
		c3.32-0.69,6.83-1.42,11.22-0.96c2.13,0.22,5.42,0.82,9.22,2.63c-8.41-0.14-14.95,1.21-19.33,2.44c-2.31,0.65-6.74,2.04-21.74,9.81
		c-6.65,3.44-12.1,6.45-15.93,8.59C710.73,570.78,708.01,570.48,705.3,570.19z"/>
	<path class="st27" d="M690.69,610.11c7.61,2.26,15.94,4.3,24.94,5.9c23.93,4.25,45.26,4.09,62.38,2.45l-0.58-9.33
		c0.07-0.68,0.06-1.54-0.44-1.91c-0.94-0.69-2.82,0.84-5.04,1.77c-2.49,1.05-4.35,0.91-8.08,0.89c-4.81-0.02-9.61,0.55-14.42,0.52
		C741.29,610.35,719.85,610.29,690.69,610.11z"/>
	<path d="M657.99,568c0,0,18.36-45.92,35.92-69.25l1.64-1.44L683.33,522l-17.56,33.56L659.7,568l-2.03,1.04L657.99,568z"/>
	<polygon points="757.44,422.67 734,442.22 724.56,441.56 727.11,451.11 708.11,477.67 712.89,475.56 729.56,451.22 726.78,443.22 
		736.44,443.44 756.56,424.89 	"/>
	<path d="M788.22,556.71c0,0-3.07-3.27-7.96-3.49l-2.22-0.37c0,0,9.37,4.82,9.85,5.63C788.37,559.29,788.22,556.71,788.22,556.71z"
		/>
	<path d="M620.58,671.44l2.64,12.37l6.22-5.04l2.01,45.04c0,0-10.02,3.85-14.23,4s-4.22,0.15-4.22,0.15v2.97h22.21L633.56,671
		l-7.37,6.74l-2.08,1.71L620.58,671.44z"/>
	<path d="M641.7,738.51l7.6,8.41l13.04,84.15l-11.8-3.44l-6.42-81.01l-2.06-2.52c-1.22-1.49-1.69-3.46-1.27-5.35l0,0
		C640.87,738.33,641.41,738.19,641.7,738.51z"/>
	<polygon points="650.93,608.11 650.93,651.81 653.15,645.89 652.89,608.45 	"/>
	<path d="M581.22,479.67c0,0,24.67,32.11,46.22,43.56L581.22,479.67z"/>
	<path d="M629.3,530.78c0,0,0.5-34.89,7.31-60.22l-2.15,0.48c0,0-1.88,5.42-4.04,17.81c-1.64,9.37-2.58,18.86-2.88,28.37
		c-0.17,5.23,0.88,13.48,0.83,14.9L629.3,530.78z"/>
	<path class="st28" d="M563.37,412.11l5.93-2.96l23.85,28.74c0,0,7.85,9.48,2.52,5.19c-5.33-4.3-26.37-31.41-26.37-31.41
		s-3.26,0.89-4.59,1.48C563.37,413.74,559.4,414.1,563.37,412.11z"/>
	<path class="st28" d="M758.63,426.48l33.33,32.22c-0.51,0.14-1.31,0.29-2.26,0.2c-3.2-0.27-11.3-8.79-12.26-9.96
		c-6.15-7.47-15.39-17.48-18.5-18.39c-0.31-0.09-1.78-0.44-2.84-1.7c-0.33-0.39-0.53-0.76-0.66-1.02c-0.01-0.2-0.02-0.86,0.43-1.34
		C756.47,425.87,757.64,425.8,758.63,426.48z"/>
	<path class="st28" d="M751.33,418l-7.87-15.78c0,0-2.79,0.41-3.57,3.82c0,0,3.67-0.82,5.72,5.52c2.06,6.33,5.28,7.87,5.28,7.87
		S752.46,420.27,751.33,418z"/>
	<path class="st28" d="M793,469.22c0,0,3.56,29.7-2.22,51.33c0,0-1.33,1.89-1-1c0.33-2.89,5.04-29.89,2.19-48.22
		C791.96,471.33,792.58,464.78,793,469.22z"/>
	<path class="st28" d="M717.72,449.39c-11.04,16.41-36.3,54.04-42.06,63.83c-0.6,1.01-2.21,3.76-2.07,3.85
		c0.2,0.13,3.72-5,7.29-10.29l36.89-56.11c0.97-1.73,1.39-2.63,1.28-2.71C718.96,447.9,718.52,448.37,717.72,449.39z"/>
	<path class="st28" d="M716.78,571.67c6.13-2.33,10.84-4.8,14.05-6.65c6.36-3.67,10.12-6.97,17.23-9.74
		c4.61-1.79,7.46-2.15,9.8-2.06c1.32,0.05,4.89,0.35,4.89,0.34c0,0-0.04,0-0.07-0.01c-0.29,0.36-0.79,0.87-1.53,1.15
		c-1.55,0.6-2.69-0.35-4.58-0.49c-0.4-0.03-1.22-0.05-4.72,1.28c-3.6,1.36-5.89,2.56-5.89,2.56c-5.75,2.98-18.53,10.24-18.94,10.43
		c-0.3,0.13-0.6,0.26-0.6,0.26c-0.01,0-0.01,0.01-0.01,0.01c-0.61,0.25-1.09,0.41-6.16,2.47
		C717.52,572.32,715.72,573.07,716.78,571.67z"/>
	<path class="st28" d="M775,623.52l3.02,88.81c0.04,0.31,0.04,0.73-0.2,1.07c-0.43,0.61-1.4,0.61-1.47,0.6
		c-3-0.18-2.57-88.23-2.57-88.23l0,0L775,623.52z"/>
	<path class="st28" d="M730.7,413.59l-27.85,33.26c0,0,12.67-13.33,19.33-21.56S730.7,413.59,730.7,413.59z"/>
	<path class="st28" d="M665.89,437c0,0-14.44,29.33-17.11,38.22s0.78-6,0.78-6l15.56-32.67l1.33-1.33L665.89,437z"/>
	<path class="st26" d="M684.3,396.13c0,0,17.72,12.32,41.35-12.2c0.32-0.52,0.63-1.13,0.91-1.82c0.74-1.83,0.94-3.52,0.96-4.74
		c-2.51,2.97-6.54,6.93-12.44,10c-12.83,6.67-25.39,4.41-29.53,3.48l-1.9-0.29L684.3,396.13z"/>
	<path d="M682.14,389.59c3.61,1.2,13.58,3.97,25.53,0.44c10.77-3.18,17.28-9.76,19.85-12.66c-0.17,0.67-0.35,1.33-0.52,2
		c-2.63,3.02-7.26,7.48-14.28,10.57c-8.86,3.9-16.72,3.5-20.28,3.28c-4.31-0.27-7.85-1.09-10.3-1.81V389.59z"/>
	<path class="st28" d="M770.44,606c0,0,10,0.1,14-17.89c0,0,3-14.56,1.56-27c0,0-2-2.48-1.67,1.81c0.33,4.3,3.25,12.25-2.22,27.71
		c-5.47,15.46-11.67,14.37-11.67,14.37S768,606.53,770.44,606z"/>
	<path d="M668.85,456.64c0,0-16.37,19.19-18.15,22.14c-1.78,2.95-1.78,4.77-1.78,4.77l19.93-25.14V456.64z"/>
	<path d="M666.33,470.09c0,0-16.81,17.34-19.33,21.05c-2.52,3.71-1.78,4.54-1.78,4.54l21.01-23.84
		C666.24,471.85,668.55,466.98,666.33,470.09z"/>
	<path d="M672.39,444.06c0,0-3.63-2.5-3.54-6.06c0.09-3.55-1.8,2.41-1.8,2.41s2.5,6.65,4.06,5.15
		C672.67,444.06,672.39,444.06,672.39,444.06z"/>
	<path d="M696.57,487.25c0,0,11.7,6.81,23.26,8.44c0,0,4.63,0.07,6.26-0.01c1.63-0.07,0.52,1.56,0.52,1.56s-8.56,0.45-14.19-1.18
		c-5.63-1.63-16.5-6.85-16.81-7.85C695.29,487.21,696.57,487.25,696.57,487.25z"/>
	<path id="Буговки_00000170985247896695587040000002187479434345102998_" class="st29" d="M720.87,600.29
		c0,0-3.27,1.74-0.8,4.72s6.08,0.5,5.96-0.71S724.21,599.14,720.87,600.29z"/>
	<path id="Буговки_00000120523564754017158620000014608846997003048837_" class="st29" d="M733.1,599.37
		c0,0-3.73,1.62-1.62,4.88c2.11,3.25,6.34,0.88,6.41-0.39S736.81,598.36,733.1,599.37z"/>
</g>
<g id="Стол_и_Ноутбук">
	<polygon class="st0" points="1000,953.44 1000,1000 399.67,1000 399.67,856.56 611.37,856.56 611.43,839.96 611.52,813.59 	"/>
	<polygon class="st30" points="611.43,839.96 611.37,856.56 399.67,856.56 399.67,839.96 	"/>
	<path class="st31" d="M399.67,707.52v132.44h211.76l0.09-26.37V707.52H399.67z M508.7,795.26c-7.75,0-14.03-6.29-14.03-14.04
		s6.28-14.04,14.03-14.04c7.76,0,14.04,6.29,14.04,14.04S516.46,795.26,508.7,795.26z"/>
	<path class="st32" d="M522.74,781.22c0,7.75-6.28,14.04-14.04,14.04c-7.75,0-14.03-6.29-14.03-14.04s6.28-14.04,14.03-14.04
		C516.46,767.18,522.74,773.47,522.74,781.22z"/>
</g>
<g id="Клиент_1">
	<path class="st33" d="M363.89,681.44c0.89,8.67-0.89,10.67-0.89,10.67s-4.22,4.89-8.89,3.33c0,0-0.22,9.78-1.55,16.67
		c-1.34,6.89-9.12,12.45-9.12,12.45l-0.88,22c-24-22.23-122.23-15.86-122.23-15.86l-0.96-12.44c0,0,68.03,3.63,99.22-4.07
		c4.5-1.11,8.22-4.25,10.15-8.47c5.29-11.61,16.51-36.94,20.85-52.42l3.95-12.01l-0.54,6.38c0,0,4.89-7.34,9.78-7.34
		c4.89,0,1.33,19.34,1.33,19.34S363,672.78,363.89,681.44z"/>
	<path class="st34" d="M353.63,640.25l-0.09,1.04l-3.95,12.01c-4.34,15.48-15.56,40.81-20.85,52.42c-1.93,4.22-5.65,7.36-10.15,8.47
		c-31.19,7.7-99.22,4.07-99.22,4.07l-4.74-6.3c-11.15-24.56-14.85-45.62-15.18-47.54c0.03,0.04,0.04,0.08,0.06,0.12
		c-0.01-0.03-0.03-0.1-0.07-0.2c0,0,0-0.01,0-0.02c-0.01-0.03-0.01-0.04-0.01-0.04c-1-3.02-9.73-30.16-9.32-48.39
		c0.45-19.33,13.33-36.45,13.33-36.45s13.34-21.11,34.45-28c0,0,15.3-6.2,42.11-4.44c1.82,0.12,3.66,0.1,5.48-0.06
		c6.36-0.58,23.96-1.18,40.85,7.17c0,0,16.13,8.48,22.46,40.18c0.4,2.04,0.87,4.07,1.4,6.08c1.01,3.83,2.77,12.34,3.62,27.37
		C354.04,631.91,353.98,636.09,353.63,640.25z"/>
	<path class="st33" d="M214.63,711.96c0,0-11.41,2.23-13.63-1.48c-2.22-3.7-12.15-20-13.04-31.85c-0.89-11.85,1.78-14.07,1.78-14.07
		s8.53-2.42,9.71-0.15v0.01C199.78,666.34,203.48,687.4,214.63,711.96z"/>
	<path class="st35" d="M531.22,1000H411.67l-13.11-11.22L343.44,1000H190.78L51.22,963.22c0,0,0.59-62.22,11.26-113.18l7.11-35.56
		l124.15-48.29c0,0,98.82,1.03,164.37,15.03l122.45,62.89c0,0,5.77,2.67,8.44,11.11c2.67,8.45,20.44,68.89,20.44,68.89L531.22,1000z
		"/>
	<path class="st36" d="M190.78,1000H42.93c0,0-18.37-22.26,4.14-36.78h4.15L190.78,1000z"/>
	<path class="st35" d="M358.11,781.22c-65.55-14-164.37-15.03-164.37-15.03l24.89-26.67c0,0,84.04-8.3,126.76,26.04
		C345.39,765.56,354.78,770.56,358.11,781.22z"/>
	<path class="st32" d="M345.39,765.56c-42.72-34.34-126.76-26.04-126.76-26.04v-6.82l1.7-2c0,0,98.23-6.37,122.23,15.86
		C342.56,746.56,350.44,753.17,345.39,765.56z"/>
	<polygon class="st36" points="411.67,1000 343.44,1000 398.56,988.78 	"/>
	<path class="st37" d="M199.45,664.41c0-0.03-0.01-0.05-0.01-0.07"/>
	<path class="st37" d="M199.44,664.32c-0.01-0.03-0.01-0.04-0.01-0.04"/>
</g>
<g id="Клиент_2">
	<path class="st38" d="M945,798.33c-12.44,104-21.39,127.61-21.39,127.61l-64.25-23.13l18.83-27.88c0,0,18.66-29.19,30.07-46.82
		c9.45-14.61,28.47-25.45,34.71-28.74c0,0,0,0,0-0.01C944.26,798.69,945,798.33,945,798.33z"/>
	<path class="st39" d="M929,606.33c0,0,10.22,7.78,8.67,9.34c-1.56,1.55-9.34,2.89-9.34,2.89c3.56,0.44,6.23,8.44,6.23,8.44
		c-3.56,8.44-12.34,10.33-12.34,10.33s-5,4.34-12.22,4.67c-0.6,0.03-1.19,0.02-1.74-0.01c-6.14-0.37-9.59-4.1-9.59-4.1
		s-22.11,1.55-33,0.55c-10.89-1-10.03-5.2-12.23-9.11c-2-3.56-3.11-15.22-3.11-15.22c-1.27-3.36-3.64-5.23-5.83-6.26
		c-3.77-1.78-7.25-4.11-10.53-6.68c-0.59-0.46-1.25-0.96-1.97-1.5c-8-6-8.22-18.67-9.56-23.89c-1.33-5.22-6.11-6.78-6.11-6.78
		c2.11,12.22-2.89,10.44-2.89,10.44c-6.66-2.66-9.33-12.66-9.33-12.66S798.56,553.89,803,541c2.68-7.76,13.32-15.44,21.38-20.32
		c5.95-3.61,12.45-6.19,19.27-7.62c12.69-2.67,35.47-5.93,54.46-0.5c28,8,33.33,36,33.33,36s3.78,20.88,0,27.77
		c-3.77,6.89,1.18,16.45,1.18,16.45s9.05,9.33,5.05,9.33s-7.56-1.55-7.56-1.55C925.44,601.67,929,606.33,929,606.33z"/>
	<path class="st9" d="M754.62,821.04c-0.01,0.02-0.02,0.04-0.02,0.04"/>
	<line class="st9" x1="794.66" y1="879.52" x2="784.37" y2="875.81"/>
	<path class="st40" d="M853.89,678.04v-2.82c-0.25-4.26-1.1-8.38-2.02-11.72c-1.24-4.58-2.57-7.69-2.57-7.69l-5.19-10.96
		c0,0-19.41-3.85-23.7-10.96c-4.3-7.11-4.89-25.63-4.89-25.63s-3.85-0.45-5.19-4c-1.33-3.56,5.19-11.7,5.19-11.7
		c1.18-6.67-2.08-13.12-2.08-13.12s5,1.78,2.89-10.44c0,0,4.78,1.56,6.11,6.78c1.34,5.22,1.56,17.89,9.56,23.89
		c0.72,0.54,1.38,1.04,1.97,1.5c3.28,2.57,6.76,4.9,10.53,6.68c2.19,1.03,4.56,2.9,5.83,6.26c0,0,1.11,11.66,3.11,15.22
		c2.2,3.91,1.34,8.11,12.23,9.11c10.89,1,33-0.55,33-0.55s3.45,3.73,9.59,4.1C888.52,649.46,853.89,678.04,853.89,678.04z"/>
	<path class="st9" d="M754.63,821c0,0-0.01,0.02-0.01,0.04c-0.01,0.02-0.02,0.04-0.02,0.04"/>
	<path class="st41" d="M942.97,799.36c0,0.01,0,0.01,0,0.01c-6.24,3.29-25.26,14.13-34.71,28.74
		c-11.41,17.63-30.07,46.82-30.07,46.82l-18.83,27.88l-64.7-23.29l35.82-112.74l-46.11,109.03l-39.35-14.16l17.61-42.43l2.67-38.81
		l87.4-70.82v-15.71h17.49l53.03-33.18c0,0,13.34,21.63,16.89,50.97C943.64,740.75,942.98,798.39,942.97,799.36z"/>
	<path class="st1" d="M853.89,675.22l-52.59,49.04l7.11-8.15l43.46-52.61C852.79,666.84,853.64,670.96,853.89,675.22z"/>
	<path class="st42" d="M923.22,660.7l-53.03,33.18H852.7v15.71l-87.4,70.82l-2.67,38.81l-17.61,42.43l-5.77-2.08l2.05-5.09
		l13.3-33.4c-0.06,0-0.03-2.07,2.7-27.34c3.26-30.22,8.59-38.22,8.59-38.22l32.3-41.78l29.62-35.41l21.49-22.52
		c0,0,1.33,3.11,2.57,7.69l-43.46,52.61l-7.11,8.15l52.59-49.04v2.82c0,0,34.63-28.58,54.37-36.05c0.55,0.03,1.14,0.04,1.74,0.01
		c7.22-0.33,12.22-4.67,12.22-4.67C925.19,642.07,923.22,660.7,923.22,660.7z"/>
	<polygon points="830.48,766.78 794.66,879.52 784.37,875.81 	"/>
	<path class="st43" d="M921.74,668.76c0,0,22.34,28.39,16.95,126.46c0,0-0.8-0.3-0.95-12.74c-0.15-12.44-1.93-63.26-4.44-72.44
		c-2.52-9.19-11.56-38.37-11.56-38.37V668.76z"/>
	<path class="st43" d="M919.67,645c0,0,0.89,13.04,0,13.48c-0.89,0.44-4,4.15-5.48,3.85c-1.48-0.3,3.7-5.93,3.7-5.93
		S918.19,638.78,919.67,645z"/>
	<path class="st43" d="M846.78,708.11l-75.11,58.67l-2.16,3.6l78.75-61.56C848.26,708.83,849.36,706.1,846.78,708.11z"/>
	<path class="st43" d="M869.98,689c0,0,40.94-26.96,38.28-23.85C905.59,668.26,872.89,690.19,869.98,689z"/>
</g>
<g id="Лицо">
	<polygon class="st26" points="695.89,340.17 691.74,357.74 702.7,357.74 700.87,355.52 695.89,355 697.67,341.12 	"/>
	<path class="st44" d="M688.8,325.9l-14.29-1.44l-4.17,6.03l3.38-1.97c0.23-0.14,0.51-0.19,0.77-0.15
		c2.35,0.32,14.03,1.86,15.49,0.73c1.63-1.26,0.69-4.41,0.69-4.41L688.8,325.9z"/>
	<path class="st44" d="M708.48,322.85c0,0-1.86,2.79-0.21,5.16c1.65,2.37,15.14,0.32,15.14,0.32s2.61,1.05,3.38,1.99
		s-0.18-3.7-2.15-5.66l-15.04,0.06L708.48,322.85z"/>
	<path class="st45" d="M673.95,339.41c3.77,1.81,6.98,2.08,8.85,2.08c2.55,0,4.88-0.01,6.42-1.72c1.86-2.07,1.25-5.19,1.12-5.8
		c-7.64-1.64-12.29-0.58-14.59,0.21c-1.38,0.47-3.54,1.25-3.67,2.65C671.97,338.05,673.49,339.11,673.95,339.41z"/>
	<path d="M690.46,336.96c0.14-0.61,0.25-1.36,0.28-2.21c0.02-0.69-0.01-1.3-0.07-1.83c-0.19,0-0.37,0-0.56,0.01l-14.17-0.22
		l-4.34,2.53l0.31,1.89l0.27,0.36l0.23-1.09l3.34-2.23l14.05,0.02l0.5,2.07L690.46,336.96z"/>
	
		<linearGradient id="SVGID_1_" gradientUnits="userSpaceOnUse" x1="672.6218" y1="308.6215" x2="672.6218" y2="301.6189" gradientTransform="matrix(0.9995 0.0323 -0.0323 0.9995 19.3857 10.9063)">
		<stop  offset="0" style="stop-color:#0071BC"/>
		<stop  offset="0.1747" style="stop-color:#005892"/>
		<stop  offset="0.4617" style="stop-color:#003354"/>
		<stop  offset="0.705" style="stop-color:#001726"/>
		<stop  offset="0.8919" style="stop-color:#00060A"/>
		<stop  offset="1" style="stop-color:#000000"/>
	</linearGradient>
	<path class="st46" d="M678.81,334.19c-1.16,1.98-0.8,4.41,0.73,5.78c1.35,1.21,3.55,1.55,4.73,0.64c1.72-1.33,1.2-6.39,1.2-6.39
		l0,0L678.81,334.19z"/>
	<path class="st45" d="M681.52,337.66l0.7,0.02c0.29,0.01,0.53,0.23,0.56,0.52c0.04,0.32,0.03,0.71-0.14,0.98
		c-0.33,0.5-1.19,0.66-1.19,0.66s-0.54-0.25-0.58-1.52C680.87,337.95,681.16,337.64,681.52,337.66z"/>
	<path class="st45" d="M708.96,338.91c1.11,0.91,3.28,2.44,6.38,2.96c1.74,0.29,5.89,0.98,8.41-1.74c1.83-1.98,1.79-4.66,1.73-5.57
		c-0.5-0.03-1.26-0.07-2.18-0.14c-3.57-0.25-5.56-0.48-8.54-0.68c-4.52-0.29-5.53-0.11-5.95,0.21c-0.04,0.03-0.09,0.08-0.16,0.16
		C707.49,335.38,708.48,337.85,708.96,338.91z"/>
	<path d="M708.18,333.13l12.55-0.3l5.44,0.9l-0.12,2.12c-0.41,1.7-0.73,2.54-0.95,2.52c-0.08-0.01-0.14-0.13-0.2-0.35
		c0.13-0.74,0.25-1.47,0.38-2.21l-0.2-1.04l-6.15-0.44c-3.33,0.01-6.67,0.01-10,0.02c-0.07,1.33-0.15,2.65-0.22,3.98
		c-0.18-0.47-0.36-0.94-0.54-1.42c-0.17-0.55-0.36-1.41-0.26-2.46C707.96,333.93,708.07,333.49,708.18,333.13z"/>
	
		<linearGradient id="SVGID_00000168118895935698465850000001838151472441791375_" gradientUnits="userSpaceOnUse" x1="710.5303" y1="320.5789" x2="710.5303" y2="313.2355" gradientTransform="matrix(0.9983 0.058 -0.058 0.9983 25.7568 -19.718)">
		<stop  offset="0" style="stop-color:#0071BC"/>
		<stop  offset="0.1747" style="stop-color:#005892"/>
		<stop  offset="0.4617" style="stop-color:#003354"/>
		<stop  offset="0.705" style="stop-color:#001726"/>
		<stop  offset="0.8919" style="stop-color:#00060A"/>
		<stop  offset="1" style="stop-color:#000000"/>
	</linearGradient>
	<path style="fill:url(#SVGID_00000168118895935698465850000001838151472441791375_);stroke:#000000;stroke-miterlimit:10;" d="
		M713.7,334.2c-1.14,2.96-0.37,5.82,1.39,6.85c1.04,0.6,2.68,0.74,3.76-0.06c0.9-0.66,1.1-1.74,1.39-3.31
		c0.25-1.35,0.23-2.5,0.16-3.28C718.17,334.33,715.93,334.27,713.7,334.2z"/>
	<path class="st45" d="M715.85,338.29l0.62,0.04c0.26,0.01,0.47,0.21,0.49,0.46c0.02,0.27,0.01,0.62-0.15,0.84
		c-0.3,0.42-1.07,0.54-1.07,0.54s-0.48-0.23-0.48-1.33C715.26,338.53,715.53,338.27,715.85,338.29z"/>
	<polygon points="696.94,341.12 694.49,355.89 700.68,356.33 700.87,356.81 692.79,356.81 696.24,340.52 	"/>
	<path class="st48" d="M685.55,367.89h26.19l-4.64,4.48c-2.39,2.31-5.59,3.6-8.91,3.6h0c-3.89,0-7.57-1.76-10.01-4.79L685.55,367.89
		z"/>
	<path d="M695.3,378.78c0,0,4.81,0.59,6.37-0.3l-0.26,1.04h-5.74C695.67,379.52,695.81,380,695.3,378.78z"/>
	<path class="st26" d="M740.59,352.74c-0.23-1.44,0.23-2.9,1.13-4.05c1.31-1.68,3.49-4.61,3.95-6.14c0.23-0.78,0.78-1.01,1.4-0.99
		c1.45,0.06,2.49,1.43,2.33,2.87c-0.31,2.78-0.97,7.88-1.92,10.01c-0.3,0.68-0.55,1.37-0.72,2.09c-0.4,1.65-1.35,4.21-3.38,3.65
		c-2.96-0.81-2-1.48-2-1.48l2.25-0.51c0.58-0.13,1.02-0.61,1.1-1.2c0.15-1.1,0.51-2.88,1.38-3.99c1.33-1.7,2.05-8.81,2.05-8.81
		l-1.02,0.43c-0.45,0.19-0.79,0.55-0.97,1.01c-0.31,0.81-0.93,2.14-1.91,3.04c-1.48,1.37-0.37,2.63-0.37,2.63s1.26,1.04,0.07,1.56
		c-1.19,0.52-1.11,1.63-1.11,1.63l-0.89,0.67C741.96,355.15,740.88,354.61,740.59,352.74z"/>
	<path class="st26" d="M665.44,345.89c0,0-2.89-5.86-3.67-4.32s-1.78,8.43,0,10.88c1.78,2.44,5.33,6.75,5.33,6.75l1.56,2.14l-1.22-5
		c0,0-4.78-4.78-4.56-6c0.22-1.22-0.22-4.22-0.22-4.22l3.11,1.45c0,0-2.1,1.55-1.05,2.44c1.05,0.89,1.83,2.78,1.83,2.78
		s0.89-2.78,0.89-3.33C667.44,348.89,665.44,345.89,665.44,345.89z"/>
	<path d="M742.93,346.63c0.75-1.03,1.06-1.69,1.52-2.48c0.95-1.65,1.53-2.64,2.41-2.74c0.69-0.08,1.27,0.42,1.44,0.57
		c2.42,2.09,0.74,8.16,0.15,10.27c-0.64,2.31-1.37,3.85-1.22,3.92c0.17,0.08,1.31-1.73,2.14-3.83c0,0,1.69-4.26,0.96-8.89
		c-0.15-0.97-0.41-1.94-1.22-2.67c-0.2-0.18-0.87-0.78-1.78-0.81c-2.19-0.08-3.8,3.01-4.26,3.89c-0.88,1.7-1.3,3.62-1.04,3.74
		C742.17,347.65,742.48,347.24,742.93,346.63z"/>
	<path d="M666.21,347.07c0,0-1.43-6.24-3.93-5.19c-2.5,1.06-2.06,4.83-2.06,4.83s-0.16,5.06,4.5,10.5c4.66,5.44,0.89-0.41,0.89-0.41
		s-4.44-6.36-4.11-9.25s0.89-3.62,0.89-3.62s1.32-0.77,1.6,1.01C664.26,346.73,666.21,347.07,666.21,347.07z"/>
</g>
<g id="Палитра">
	<g>
		<rect x="679.6" y="-171.48" class="st49" width="132.81" height="132.81"/>
		<rect x="812.41" y="-171.48" class="st50" width="132.81" height="132.81"/>
		<rect x="945.22" y="-171.48" class="st26" width="132.81" height="132.81"/>
	</g>
	<g>
		<rect x="247.14" y="-171.48" class="st51" width="132.81" height="132.81"/>
		<rect x="114.33" y="-171.48" class="st52" width="132.81" height="132.81"/>
		<rect x="-18.48" y="-171.48" class="st53" width="132.81" height="132.81"/>
		<rect x="-151.29" y="-171.48" class="st54" width="132.81" height="132.81"/>
		<rect x="379.95" y="-171.48" class="st28" width="132.81" height="132.81"/>
		<rect x="512.76" y="-171.48" class="st55" width="132.81" height="132.81"/>
	</g>
	<g>
		<rect x="695.6" y="-321.22" class="st56" width="122.14" height="122.14"/>
		<rect x="817.74" y="-321.22" class="st57" width="122.14" height="122.14"/>
		<rect x="939.89" y="-321.22" class="st58" width="122.14" height="122.14"/>
	</g>
	<g>
		<rect x="-49.86" y="-301.25" class="st59" width="82.2" height="82.2"/>
		<rect x="-49.86" y="-301.25" class="st60" width="82.2" height="82.2"/>
		<rect x="32.34" y="-301.25" class="st61" width="82.2" height="82.2"/>
		<rect x="114.54" y="-301.25" class="st62" width="82.2" height="82.2"/>
		<rect x="196.74" y="-301.25" class="st59" width="82.2" height="82.2"/>
		<rect x="196.74" y="-301.25" class="st63" width="82.2" height="82.2"/>
		<rect x="278.94" y="-301.25" class="st59" width="82.2" height="82.2"/>
		<rect x="278.94" y="-301.25" class="st64" width="82.2" height="82.2"/>
		<rect x="361.14" y="-301.25" class="st65" width="82.2" height="82.2"/>
		<rect x="443.34" y="-301.25" class="st66" width="82.2" height="82.2"/>
		<rect x="525.54" y="-301.25" class="st59" width="82.2" height="82.2"/>
		<rect x="525.54" y="-301.25" class="st67" width="82.2" height="82.2"/>
	</g>
</g>
</svg>
