<svg id="svg" version="1.1" xmlns="http://www.w3.org/2000/svg" xmlns:xlink="http://www.w3.org/1999/xlink" width="400" height="551.2820512820513" viewBox="0, 0, 400,551.2820512820513"><g id="svgg"><path id="path0" d="M196.556 1.923 C 189.150 13.966,187.601 94.955,194.540 107.350 C 202.893 122.274,210.256 95.775,210.256 50.785 C 210.256 13.294,203.776 -9.818,196.556 1.923 M65.226 36.153 C 64.268 37.704,65.642 41.622,68.280 44.859 C 91.447 73.283,105.030 91.107,111.538 101.627 C 126.794 126.283,134.575 112.089,122.904 80.894 C 113.258 55.115,72.870 23.786,65.226 36.153 M310.001 41.002 C 290.067 51.538,271.865 81.192,271.820 103.205 C 271.782 121.661,277.094 118.842,295.980 90.385 C 305.105 76.635,317.243 60.824,322.952 55.249 C 340.617 38.001,332.523 29.098,310.001 41.002 M0.057 116.026 C 0.164 122.055,25.221 145.313,63.594 175.000 C 91.934 196.925,80.731 161.098,51.158 135.228 C 33.783 120.029,-0.098 107.297,0.057 116.026 M382.040 116.284 C 355.654 123.404,320.513 157.966,320.513 176.796 C 320.513 186.528,331.242 181.384,353.442 161.009 C 358.600 156.274,371.186 145.754,381.410 137.630 C 407.053 117.255,407.282 109.472,382.040 116.284 M240.599 149.737 C 235.429 151.583,225.292 157.430,218.072 162.730 L 204.946 172.366 195.421 165.813 C 143.791 130.292,93.700 181.546,138.323 224.237 C 154.355 239.575,154.252 253.008,138.036 261.460 C 43.054 310.968,10.619 435.197,75.487 501.030 C 140.355 566.863,241.023 567.693,308.469 502.950 C 357.881 455.519,355.274 362.694,302.903 304.737 C 291.022 291.590,250.728 261.781,240.004 258.207 C 236.435 257.017,246.869 230.407,256.502 216.134 C 279.120 182.619,281.138 162.603,263.027 151.409 C 253.172 145.319,253.003 145.306,240.599 149.737 M252.600 171.854 C 253.492 173.296,248.750 185.427,242.062 198.811 C 233.387 216.174,229.569 227.175,228.737 237.214 C 228.095 244.951,227.425 251.281,227.247 251.281 C 227.069 251.280,220.853 248.972,213.434 246.153 C 184.642 235.209,186.381 240.343,218.761 261.879 C 293.813 311.794,320.513 350.036,320.513 407.619 C 320.513 457.579,301.135 491.391,257.262 517.981 C 208.537 547.511,171.667 547.546,127.649 518.105 C 29.737 452.618,45.539 340.162,163.462 263.237 C 193.927 243.363,199.448 234.759,175.246 244.872 C 163.398 249.822,164.103 250.152,164.103 239.661 C 164.103 228.552,158.603 214.884,150.035 204.702 C 134.547 186.296,151.719 169.326,178.374 176.696 C 193.018 180.746,196.879 183.634,192.927 187.586 C 179.077 201.435,192.606 199.322,220.513 183.276 C 245.592 168.856,249.818 167.351,252.600 171.854 M160.897 187.385 C 155.704 190.410,154.857 197.436,159.686 197.436 C 164.017 197.436,174.359 190.104,174.359 187.034 C 174.359 183.868,166.588 184.071,160.897 187.385 M216.536 201.200 C 212.618 210.577,211.463 228.205,214.767 228.205 C 216.543 228.205,228.207 198.719,228.206 194.231 C 228.204 188.511,219.721 193.577,216.536 201.200 M104.634 325.532 C 94.010 336.156,92.023 346.597,100.325 348.178 C 103.776 348.835,116.352 331.444,122.648 317.308 C 125.285 311.385,113.316 316.850,104.634 325.532 M193.519 334.390 C 189.283 344.527,179.487 347.589,179.487 338.775 C 179.487 325.013,168.065 326.301,165.461 340.356 C 164.478 345.660,160.309 355.102,156.196 361.337 C 142.163 382.612,149.318 402.306,174.451 411.580 C 218.622 427.879,222.905 445.487,182.051 442.822 C 153.586 440.966,151.570 442.681,163.640 458.484 C 167.616 463.689,171.943 471.316,173.255 475.432 C 176.599 485.920,181.724 486.663,185.304 477.179 C 188.798 467.921,195.129 466.817,198.751 474.834 C 203.043 484.337,207.224 483.068,210.335 471.320 C 211.947 465.235,215.909 457.372,219.140 453.846 C 240.335 430.719,233.157 408.043,201.283 397.436 C 158.861 383.319,161.103 365.270,205.037 367.215 C 224.739 368.087,228.020 363.611,216.202 351.983 C 212.227 348.072,207.809 340.926,206.386 336.103 C 202.821 324.027,198.111 323.399,193.519 334.390 M82.904 373.718 C 74.549 395.373,79.488 448.718,89.848 448.718 C 91.083 448.718,91.432 437.468,90.624 423.718 C 89.527 405.038,90.202 394.735,93.296 382.963 C 100.092 357.101,92.070 349.964,82.904 373.718 M286.141 400.641 C 285.442 405.224,284.170 415.321,283.314 423.077 C 282.217 433.015,278.014 444.202,269.084 460.961 C 254.852 487.666,255.017 487.179,260.167 487.179 C 275.041 487.179,295.335 453.189,296.849 425.739 C 298.311 399.252,289.501 378.604,286.141 400.641 " stroke="none" fill="#000000" fill-rule="evenodd"></path></g></svg>