<?xml version="1.0" encoding="utf-8"?>
<!-- Generator: Adobe Illustrator 27.2.0, SVG Export Plug-In . SVG Version: 6.00 Build 0)  -->
<svg version="1.1" xmlns="http://www.w3.org/2000/svg" xmlns:xlink="http://www.w3.org/1999/xlink" x="0px" y="0px"
	 viewBox="0 0 1000 1000" style="enable-background:new 0 0 1000 1000;" xml:space="preserve">
<style type="text/css">
	.st0{fill:#FFFFFF;}
	.st1{fill:#9E9E9E;stroke:#131519;stroke-width:3;stroke-linejoin:round;stroke-miterlimit:10;}
	.st2{fill:#777777;stroke:#131519;stroke-width:3;stroke-linejoin:round;stroke-miterlimit:10;}
	.st3{fill:#494949;stroke:#131519;stroke-width:3;stroke-linejoin:round;stroke-miterlimit:10;}
	.st4{fill:#080A09;stroke:#131519;stroke-width:3;stroke-linejoin:round;stroke-miterlimit:10;}
	.st5{fill:#00897C;stroke:#131519;stroke-width:3;stroke-linejoin:round;stroke-miterlimit:10;}
	.st6{fill:#7A7A7A;stroke:#131519;stroke-width:3;stroke-linejoin:round;stroke-miterlimit:10;}
	.st7{fill:#D2D2D2;stroke:#131519;stroke-width:3;stroke-linejoin:round;stroke-miterlimit:10;}
	.st8{fill:#052036;}
	.st9{fill:none;stroke:#56E0F5;stroke-width:2;stroke-linecap:round;stroke-linejoin:round;stroke-miterlimit:10;}
	.st10{fill:#50BCE3;stroke:#000000;stroke-linecap:round;stroke-linejoin:round;stroke-miterlimit:10;}
	.st11{fill:#1B5A71;stroke:#000000;stroke-linecap:round;stroke-linejoin:round;stroke-miterlimit:10;}
	.st12{fill:#56E0F5;stroke:#000000;stroke-linecap:round;stroke-linejoin:round;stroke-miterlimit:10;}
	.st13{fill:#7D7D7D;stroke:#131519;stroke-linejoin:round;stroke-miterlimit:10;}
	.st14{fill:#B5B5B5;stroke:#131519;stroke-linejoin:round;stroke-miterlimit:10;}
	.st15{fill:#114472;stroke:#000000;stroke-width:3;stroke-linejoin:round;stroke-miterlimit:10;}
	.st16{fill:#114472;stroke:#131519;stroke-width:3;stroke-linejoin:round;stroke-miterlimit:10;}
	.st17{fill:#3F2216;stroke:#131519;stroke-width:3;stroke-linejoin:round;stroke-miterlimit:10;}
	.st18{fill:#EDB087;stroke:#131519;stroke-width:3;stroke-linejoin:round;stroke-miterlimit:10;}
	.st19{fill:#E89C78;}
	.st20{fill:#F6D2BA;}
	.st21{fill:#4682AF;}
	.st22{fill:#131519;stroke:#000000;stroke-width:3;stroke-miterlimit:10;}
	.st23{fill:#EDB087;}
	.st24{fill:#7A1D32;}
	.st25{fill:#FBB03B;}
	.st26{fill:#3F2216;}
	.st27{fill:#2D1708;}
	.st28{fill:#114472;}
</style>
<g id="BG">
	<rect class="st0" width="997.89" height="1000"/>
</g>
<g id="Стол">
	<rect x="9.15" y="869" class="st1" width="305.78" height="131"/>
	<rect x="962.33" y="869" class="st1" width="35.56" height="131"/>
	<polygon class="st1" points="997.89,850.63 4,850.63 122.04,771.52 882.33,771.52 	"/>
	<rect x="4" y="850.63" class="st2" width="993.89" height="18.37"/>
	<rect x="314.93" y="869" class="st3" width="647.4" height="131"/>
</g>
<g id="Компьютер">
	<path class="st4" d="M422.3,630.63c-0.59-6.52-8-9.19-8-9.19l-176.29,16.3c-8.89,5.04-7.12,9.18-7.12,9.18
		s11.56,145.19,14.52,151.71c2.89,6.35,12.23,4.27,12.72,4.16l0.02-0.01h0.01l173.62-35.56c1.48-1.48,2.37-3.85,2.37-3.85
		L422.3,630.63z M423.1,757.34l-162.85,30.93c-2.68,0.51-5.22-1.39-5.49-4.1l-12.81-127.7c-0.26-2.54,1.58-4.81,4.11-5.09
		l164.73-18.3c2.58-0.29,4.9,1.59,5.14,4.18l10.93,115.07C427.09,754.73,425.46,756.9,423.1,757.34z"/>
	<path class="st5" d="M423.17,757.41l-162.85,30.93c-2.68,0.51-5.22-1.39-5.49-4.1l-12.81-127.7c-0.26-2.54,1.58-4.81,4.11-5.09
		l164.73-18.3c2.58-0.29,4.9,1.59,5.14,4.18l10.93,115.07C427.16,754.8,425.53,756.97,423.17,757.41z"/>
	<path class="st6" d="M533.26,798.26c-4.38,7.08-133.95,38.91-149.45,42.67c-0.74,0.18-1.46,0.38-2.2,0.59
		c-2.52,0.71-12.1,2.52-31.6-3.49l-90.21-25.61c-4.3-1.22-5.4-6.87-1.81-9.53c0.05-0.04,0.1-0.07,0.15-0.11l106.02,30.87
		c0,0,6.32,3.12,19.61-1.33c13.28-4.44,143.5-37.11,143.5-37.11s6-1.11,6-7.33C533.26,787.89,536,793.81,533.26,798.26z"/>
	<path class="st7" d="M431.78,767.22l-173.62,35.56l103.38,30.12c1.15,0.34,2.29,0.71,3.43,1.07c2.11,0.66,8.26,1.88,18.78-1.64
		c13.28-4.44,143.5-37.11,143.5-37.11c4.06-1.36,6.68-3.74,6.53-5.9c-0.03-0.4-0.16-0.88-0.53-1.43L431.78,767.22z M469.64,804.34
		l-46.37,11.31c-0.05,0.01-0.11,0-0.15-0.02l-16.85-6.84c-0.22-0.09-0.2-0.41,0.03-0.47l42.02-9.83c0.04-0.01,0.08-0.01,0.11,0
		l21.21,5.38C469.89,803.93,469.89,804.28,469.64,804.34z M485.48,786.31L349.2,816.52c-0.1,0.02-0.21,0.02-0.31-0.01l-54.56-13.48
		c-0.7-0.17-0.69-1.17,0.01-1.33l135.88-29.78c0.1-0.02,0.21-0.02,0.31,0l54.96,13.06C486.19,785.15,486.18,786.15,485.48,786.31z"
		/>
	<polygon class="st8" points="269.79,739.6 320.5,770.1 402.87,722.63 350.82,692.69 	"/>
	<line class="st9" x1="319.23" y1="692.18" x2="319.23" y2="707.99"/>
	<polygon class="st10" points="349.26,696.38 349.26,709.82 338.11,703.03 338.41,689.97 	"/>
	<line class="st9" x1="330.54" y1="708.51" x2="343.69" y2="699.89"/>
	<polygon class="st11" points="330.54,708.51 330.23,721.57 318.78,727.83 318.78,714.39 	"/>
	<polygon class="st10" points="318.78,714.39 318.78,727.83 307.62,721.04 307.93,707.99 	"/>
	<polygon class="st12" points="330.54,708.51 318.78,714.39 307.93,707.99 319.39,701.72 	"/>
	<polygon class="st10" points="380.68,714.39 380.68,727.83 369.53,721.04 369.84,707.99 	"/>
	<line class="st9" x1="299.6" y1="726.24" x2="313.2" y2="717.91"/>
	<polygon class="st11" points="299.6,726.24 299.29,739.3 287.83,745.57 287.83,732.13 	"/>
	<polygon class="st10" points="287.83,732.13 287.83,745.57 276.68,738.78 276.98,725.72 	"/>
	<line class="st9" x1="361.48" y1="726.24" x2="374.96" y2="717.91"/>
	<polygon class="st12" points="299.6,726.24 287.83,732.13 276.98,725.72 288.44,719.45 	"/>
	<line class="st9" x1="293.71" y1="735.91" x2="308.5" y2="743.78"/>
	<polygon class="st11" points="361.48,726.24 361.18,739.3 349.72,745.57 349.72,732.13 	"/>
	<polygon class="st10" points="349.72,732.13 349.72,745.57 338.57,738.78 338.87,725.72 	"/>
	<polygon class="st12" points="361.48,726.24 349.72,732.13 338.87,725.72 350.33,719.45 	"/>
	<path class="st13" d="M485.48,786.31L349.2,816.52c-0.1,0.02-0.21,0.02-0.31-0.01l-54.56-13.48c-0.7-0.17-0.69-1.17,0.01-1.33
		l136.07-29.79c18.42,4.35,36.66,8.72,55.08,13.08C486.19,785.15,486.18,786.15,485.48,786.31z"/>
	<path class="st14" d="M469.64,804.34l-46.37,11.31c-0.05,0.01-0.11,0-0.15-0.02l-16.85-6.84c-0.22-0.09-0.2-0.41,0.03-0.47
		l42.02-9.83c0.04-0.01,0.08-0.01,0.11,0l21.21,5.38C469.89,803.93,469.89,804.28,469.64,804.34z"/>
	<line class="st9" x1="330.69" y1="743.78" x2="344.14" y2="735.21"/>
	<polygon class="st11" points="330.69,743.78 330.39,756.84 318.93,763.1 318.93,749.66 	"/>
	<polygon class="st10" points="318.93,749.66 318.93,763.1 307.77,756.31 308.08,743.26 	"/>
	<polygon class="st12" points="330.69,743.78 318.93,749.66 308.08,743.26 319.54,736.99 	"/>
	<polygon class="st10" points="318.78,678.74 318.78,692.18 307.62,685.39 307.93,672.33 	"/>
	<polygon class="st11" points="361.03,690.5 360.72,703.55 349.26,709.82 349.26,696.38 	"/>
	<polygon class="st12" points="361.03,690.5 349.26,696.38 338.41,689.97 349.87,683.7 	"/>
	<line class="st9" x1="349.72" y1="674.07" x2="349.72" y2="690.5"/>
	<polygon class="st11" points="361.03,654.75 360.72,667.8 349.26,674.07 349.26,660.63 	"/>
	<polygon class="st10" points="349.26,660.63 349.26,674.07 338.11,667.28 338.41,654.22 	"/>
	<line class="st9" x1="330.54" y1="672.86" x2="343.69" y2="664.14"/>
	<polygon class="st11" points="330.54,672.86 330.23,685.91 318.78,692.18 318.78,678.74 	"/>
	<polygon class="st12" points="330.54,672.86 318.78,678.74 307.93,672.33 319.39,666.07 	"/>
	<polygon class="st12" points="361.03,654.75 349.26,660.63 338.41,654.22 349.87,647.96 	"/>
	<polygon class="st11" points="392.45,708.51 392.14,721.57 380.68,727.83 380.68,714.39 	"/>
	<line class="st9" x1="392.09" y1="673.25" x2="402.81" y2="666.84"/>
	<polygon class="st12" points="392.45,708.51 380.68,714.39 369.84,707.99 381.29,701.72 	"/>
	<polygon class="st12" points="392.86,672.72 381.1,678.6 370.25,672.19 381.71,665.93 	"/>
	<line class="st9" x1="324.66" y1="717.91" x2="338.87" y2="725.72"/>
	<line class="st9" x1="355.6" y1="700.16" x2="369.84" y2="707.99"/>
	<line class="st9" x1="381.14" y1="691.8" x2="381.14" y2="707.99"/>
	<polygon class="st11" points="393.01,672.72 392.71,685.77 381.25,692.04 381.25,678.6 	"/>
	<polygon class="st10" points="381.25,678.6 381.25,692.04 370.1,685.25 370.4,672.19 	"/>
</g>
<g id="Персонаж">
	<path class="st15" d="M923.44,855.89c0,0-9.55,18.44-35.55,9.11l-11.78-6.89l-6.18,51.19l-281.14,18.48v-92.85
		c0,0-62.31,21.03-75.64,31.4c-13.34,10.37-32,31.11-71.11,25.78c-30.31-4.13-33.75-14.67-33.77-19.21c0-1.86,0-3.72-0.11-5.59
		c-0.5-8.78,1.19-32.93,30.03-57.27c0,0,32.59-23.41,50.37-40.6c17.77-17.18,44.74-41.48,44.74-41.48s31.4-31.7,59.85-41.77
		l65.48-24.89c0,0,56-21.63,124.15-26.52c0,0,58.13,16.35,107.41,41.83c6.55,3.39,12.05,8.52,15.78,14.89
		c7.8,13.35,20.42,40.57,27.03,85.06C933,776.56,939.67,811.89,923.44,855.89z"/>
	<path class="st16" d="M782.78,634.78c-68.15,4.89-124.15,26.52-124.15,26.52v-7.41c0,0,5.93-9.48,13.04-16.89
		c0,0,39.26-38.96,99.33-34c1.56,3.56,7.11,8.44,11.33,29.56L782.78,634.78z"/>
	<path class="st17" d="M781.89,542.11c0,0-0.22,17.78-19.78,47.56c0,0-25.26,11.18-69.41,2.59c0,0-19.04-1.36-25.07-24.68
		c-0.65-2.54-1.38-5.06-2.31-7.51c-2.21-5.81-6.32-16.04-9.87-21.78c-1.48-2.4-2.63-5-3.51-7.69l-1.55-4.75
		c-0.88-2.7-2.97-4.81-5.65-5.74c-5.21-1.8-12.99-2.76-11.59,8.45c2.07,16.59,3.85,36.14,3.85,36.14c-0.31,0.38-0.74,0.56-1.17,0.56
		c-0.55,0-1.09-0.29-1.37-0.84l-0.39-0.77c-2.18-4.23-3.66-8.79-4.39-13.5l-3.94-25.45l-0.35-3.69c-0.55-5.8-0.27-11.66,0.83-17.38
		l0.71-3.63l-10.37-13.81c0,0-3.18,0.32-5.86,0.13c-0.77-0.05-1.43-0.54-1.73-1.24c-0.12-0.28-0.18-0.57-0.18-0.86
		c0-0.36,0.09-0.72,0.26-1.04l6.32-11.96c0,0-3.26-17.92,16.15-25.63c19.41-7.7,41.48-15.03,41.48-15.03l18.67-7.34
		c0,0,18.44-6.44,39.33,1.34c20.89,7.77,23.33,12.22,23.33,12.22s4-4.67,4-6.89c0-2.22,4.89,3.33,4,14.89l0.11,2.66
		c0,0,15.23,0.45,21.45,19.34C790.11,485.67,781.89,542.11,781.89,542.11z"/>
	<path class="st18" d="M771,603c-60.07-4.96-99.33,34-99.33,34l-3.56-5.93c0,0-5.93,7.22-21.39,2.9c-2.35-0.65-4.37-2.14-5.74-4.16
		c-4.44-6.58-14.22-23.92-17.61-52.91l-1.18-32.64c0,0-4.75-4.15-3.86-14.22l-1.77-43.85L626.93,500l-0.71,3.63
		c-1.1,5.72-1.38,11.58-0.83,17.38l0.35,3.69l3.94,25.45c0.73,4.71,2.21,9.27,4.39,13.5l0.39,0.77c0.28,0.55,0.82,0.84,1.37,0.84
		c0.43,0,0.86-0.18,1.17-0.56c0,0-1.78-19.55-3.85-36.14c-1.4-11.21,6.38-10.25,11.59-8.45c2.68,0.93,4.77,3.04,5.65,5.74l1.55,4.75
		c0.88,2.69,2.03,5.29,3.51,7.69c3.55,5.74,7.66,15.97,9.87,21.78c0.93,2.45,1.66,4.97,2.31,7.51
		c6.03,23.32,25.07,24.68,25.07,24.68c44.15,8.59,69.41-2.59,69.41-2.59c-0.17,0.67-0.25,1.35-0.25,2.03c0,1.08,0.21,2.16,0.63,3.18
		l2.07,5.01C764.56,599.89,769.44,599.44,771,603z"/>
</g>
<g id="Тени">
	<path d="M566.19,842.33c0,0,18.67-36.44,19.26-67.85l2.07-1.48v62.22L566.19,842.33z"/>
	<path d="M899.22,773.89c0,0-18.82,24.74-22.89,82.44c0,0,6,7.33,13.11,8c0,0,1.56-47.11,11.33-86.67
		C900.78,777.67,901.22,776.11,899.22,773.89z"/>
	<path d="M572.11,698.56c0,0,6.44,12.22,8.67,36.22l1.56,12.89l2-6c0,0-1.5-30.48-10.42-46.02L572.11,698.56z"/>
	<path d="M897.13,681.17c0,0,11.84,30.48,8.48,52.32c-0.07,0.48,0.57,0.71,0.81,0.28l1.47-2.54c0.37-0.63,0.59-1.33,0.67-2.05
		C909.03,724.44,909.89,705.48,897.13,681.17z"/>
	<path class="st19" d="M648.11,564.85c0,0,0.44,3.23,2.04,3.57c1.77,0.37,3.86-2.74,4.77-4.6c0.93-1.9,1.01-3.24,1.02-10.37
		c0,0,0.01-12-2.11-14.89c-0.06-0.08-0.39-0.51-0.72-1.17c-0.15-0.29-0.25-0.55-0.5-1.22c-0.26-0.7-0.39-1.04-0.56-1.56
		c0,0-0.48-1.43-1.28-3.28c-0.1-0.24-1.96-4.48-2.67-4.41C647.22,527.01,646.65,534.01,648.11,564.85z"/>
	<path class="st20" d="M642.67,566.87c-1.94-2.97-1.67-6.91-1.67-6.91c0.14-2.03,0.78-11.58-1.19-19.26
		c-1.47-5.73-3.23-9.33-3.23-9.33c-0.17-0.19-3.26-3.63-1.98-7.49c0.15-0.46,0.67-1.96,2.11-2.94c3.26-2.24,8.02,0.31,9.39,1.5
		c0.85,0.73,1.61,1.72,1.61,1.72c0.49,0.64,0.74,0.96,0.94,1.44c0.28,0.66,0.23,0.98,0.67,2.48c0.11,0.38,0.18,0.57,0.22,0.72
		c0.21,0.89,0.22,1.86,0.34,4.47c0.07,1.47,0.16,3.28,0.28,5.38c0.2,3.5,0.25,7.02,0.15,10.52l-0.41,14.11
		c0.05,2.45-1.68,4.68-6.06,4.69C643.1,567.99,642.83,567.11,642.67,566.87z"/>
	<path class="st19" d="M657.41,633.79c1.49-3.88,2.91-8.02,4.23-12.5c2.45-8.32,4.02-16.09,5.03-23.07l1.56-0.44
		c0.8,5.29,1.39,9.83,1.81,13.37c0.28,2.34,0.53,6.08,1.04,13.56c0.12,1.72,0.46,7.15-0.44,7.33c-0.66,0.13-1.45-2.62-2.74-2.52
		c-0.51,0.04-0.55,0.48-1.81,1.44c-0.14,0.11-0.99,0.75-2.12,1.3c-0.2,0.1-0.99,0.47-2.5,0.87
		C660.46,633.39,659.11,633.65,657.41,633.79z"/>
	<path class="st21" d="M579.52,697.74c20.47-10.09,43.65-20,69.48-28.74c11.57-3.91,22.81-7.3,33.65-10.24
		c11.63-2.53,14.16-2.68,14.25-2.33c0.32,1.15-24.85,8.48-53.08,18.37c-25.4,8.9-45.72,17.23-59.05,22.93
		C583.02,697.74,581.27,697.74,579.52,697.74z"/>
	<path class="st21" d="M769.15,607.07c-0.74-0.77-48-6.52-96.59,36.44l-6.22,5.63c0,0-2.33,2.66-1.75,3.37
		c0.31,0.39,1.36,0.02,1.75-0.11c6.97-2.42,10.96-8.3,10.96-8.3c3.93-5.78,13.38-10.08,32.3-18.67
		c17.18-7.8,32.07-14.35,51.26-12.74c3.52,0.3,6.39,0.8,8.3,1.19C770.26,613.94,774.18,612.31,769.15,607.07z"/>
	<path class="st21" d="M786.22,640.56l106.34,44c0,0,1.33-3.56-1.78-4.74c-3.11-1.19-99.56-39.26-99.56-39.26H786.22z"/>
	<path class="st21" d="M569.15,703.67c0,0-55.63,45.63-65.15,57.78c-9.52,12.15-6.85,11.56-6.85,11.56l22.22-21.93l49.78-42.37
		l2.96-5.04C572.11,703.67,572.7,703.37,569.15,703.67z"/>
	<path class="st21" d="M912.56,715.67c0,0,19.11,41.11,17.56,79.78c-0.44-3.33-0.89-6.67-1.33-10c-0.54-8.03-1.61-17-3.56-26.67
		c-3.03-15.07-7.41-27.97-11.78-38.44C913.15,718.78,912.85,717.22,912.56,715.67z"/>
	<path class="st21" d="M436.56,818.33c-2.85,2.32-6.18,5.41-9.44,9.44c-4.01,4.95-6.68,9.74-8.44,13.56
		c-3.51,7.6-5.16,13.88-5.89,18c0,0-1.93,10.91,1.56,15.3c0.3,0.38,1.01,1.27,2,1.26c0.63-0.01,1.37-0.39,1.56-0.96
		c0.37-1.11-1.42-2.63-1.78-2.96c-2.87-2.7-2.17-13.17,2.52-24.52c4.98-12.05,12.65-20.71,18.91-26.35
		C437.21,820.17,436.88,819.25,436.56,818.33z"/>
</g>
<g id="Стул">
	<path class="st22" d="M903.67,998.48c0,0-6.52-43.56-24.3-72c-11.56-18.49-15.6-31.85-17.02-38.93
		c-1.39-6.97-2.94-13.91-4.78-20.77l-1.69-6.3c-1.16-4.3-4.11-7.88-8.11-9.83c-8.34-4.06-24.62-10.39-47.8-12.16
		c-22.52-1.72-52.79-1.96-71.48-1.92c-14.48,0.03-28.86,2.45-42.54,7.22c-8.02,2.8-17.45,6.6-27.53,11.64
		c-10.55,5.28-19.96,12.6-27.79,21.43c-6.42,7.24-15.59,18.09-28,33.91c-29.04,37.04-40,43.26-40,43.26s-10.07,9.78-26.37,8.3
		c-16.3-1.48-47.41,0.89-47.41,0.89s-6.22,13.33-5.04,35.26l-0.15,1.52L903.67,998.48z"/>
</g>
<g id="Палитра">
	<g>
		<rect x="699.9" y="-174.96" class="st20" width="132.81" height="132.81"/>
		<rect x="832.71" y="-174.96" class="st23" width="132.81" height="132.81"/>
		<rect x="965.52" y="-174.96" class="st19" width="132.81" height="132.81"/>
	</g>
	<g>
		<rect x="267.43" y="-174.96" class="st24" width="132.81" height="132.81"/>
		<rect x="134.62" y="-174.96" class="st25" width="132.81" height="132.81"/>
		<rect x="1.81" y="-174.96" class="st26" width="132.81" height="132.81"/>
		<rect x="-131" y="-174.96" class="st27" width="132.81" height="132.81"/>
		<rect x="400.24" y="-174.96" class="st21" width="132.81" height="132.81"/>
		<rect x="533.05" y="-174.96" class="st28" width="132.81" height="132.81"/>
	</g>
</g>
</svg>
