<?xml version="1.0" encoding="utf-8"?>
<!-- Generator: Adobe Illustrator 27.2.0, SVG Export Plug-In . SVG Version: 6.00 Build 0)  -->
<svg version="1.1" xmlns="http://www.w3.org/2000/svg" xmlns:xlink="http://www.w3.org/1999/xlink" x="0px" y="0px"
	 viewBox="0 0 1000 1000" style="enable-background:new 0 0 1000 1000;" xml:space="preserve">
<style type="text/css">
	.st0{fill:#FFFFFF;}
	.st1{fill:none;stroke:#8CC63F;stroke-width:6;stroke-linecap:round;stroke-miterlimit:10;}
	.st2{fill:#114472;}
	.st3{fill:#3F2216;}
	.st4{fill:#EDB087;}
	.st5{fill:#7A1D32;}
	.st6{fill:none;stroke:#000000;stroke-width:4;stroke-linecap:round;stroke-miterlimit:10;}
	.st7{fill:#00A99D;}
	.st8{display:none;}
	.st9{fill:#4682AF;}
	.st10{fill:#FBB03B;stroke:#000000;stroke-width:2;stroke-miterlimit:10;}
	.st11{fill:#FFFFFF;stroke:#000000;stroke-width:3;stroke-miterlimit:10;}
	.st12{fill:#42210B;stroke:#000000;stroke-miterlimit:10;}
	.st13{fill:url(#SVGID_1_);stroke:#000000;stroke-width:2;stroke-miterlimit:10;}
	.st14{fill:url(#SVGID_00000086675000944075286540000014496582048627968699_);stroke:#000000;stroke-width:2;stroke-miterlimit:10;}
	.st15{fill:#F6D2BA;}
	.st16{fill:#E89C78;}
	.st17{fill:#FBB03B;}
	.st18{fill:#2D1708;}
</style>
<g id="Layer_1">
	<rect x="2.67" y="6.22" class="st0" width="1000" height="1000"/>
	<line class="st1" x1="587.81" y1="811.22" x2="701.59" y2="783.37"/>
	<line class="st1" x1="564.54" y1="799.29" x2="678.32" y2="771.44"/>
	<line class="st1" x1="546.64" y1="785.36" x2="660.42" y2="757.51"/>
	<line class="st1" x1="560.64" y1="761.78" x2="647.61" y2="743.07"/>
</g>
<g id="Layer_2">
	<g>
		<path class="st2" d="M728.56,587.22l-46.67-148c0,0-0.94-17.87-10.22-39.55c-1.45-3.37-10.96-11.4-14.3-12.91l-63.19-28.49
			c-1.41,1.81-2.85,3.49-4.29,5.04c0,0.01,0,0.01,0,0.01l5.33,27.9l-11.64,2.16c-0.15,0.03-0.21,0.21-0.1,0.32l1.37,1.37
			l12.71,13.69c1.05,1.56,1.32,3.51,0.71,5.28c-5.49,16.15-33.95,98.07-63.77,150.12c-0.94,1.64-1.89,3.26-2.83,4.84
			c0,0-0.39-1.01-1.12-2.87v-0.01c-0.1-0.25-0.21-0.52-0.32-0.81c-7.63-19.52-43.6-111.38-59.45-147.42c0,0-4.35-10.88,4.63-20.19
			c1.84-1.91,4.53-2.73,7.14-2.31l10.99,1.78c0.26,0.04,0.37-0.32,0.13-0.43c0,0-24.24-9.83-23.95-11.3
			c4.46-22.59,9.58-36.28,13.8-44.46l-123.85,43.56c0,0-18.6,18.09-21.93,79.42c0,0-16.59,97.78-17.18,120
			c-0.6,22.23-5.04,39.11,9.77,57.19c4.97,6.06,17.49,15.66,31.92,25.75c23.22,16.22,51.42,33.68,61.17,39.66
			c-11.1-58.66,34.88-56.92,34.88-56.92c1.66,1.99,3.04,3.69,4.11,5.01l26.6-2.14l-11.04-18.59l-6.75-11.36
			c-1.78-10.67,7.56-6,7.56-6l20.66,35.12l105.26-8.46c0,0-7.1-57.43,10.65-121.4l43.36,73.47c1.33,2.24,2.13,4.75,2.36,7.34
			c0.62,7.1,3.08,21.51,6.77,20.84l-0.86,15.67L664.75,680c0.88-0.46,43.69-22.22,51.98,28.27l21.6-56.38c0,0,2.16-7.78,2.27-19.33
			C740.73,620.13,738.47,603.35,728.56,587.22z M500,648.78c-3.89-2.76-17.22-30-17.22-30s0.44-3.11,3.55-2
			c3.11,1.11,17.56,30,17.56,30S503.89,651.54,500,648.78z M533,624.68c-2.94,1.45-6.45,1.36-9.37-0.13
			c-2.42-1.23-4.75-3.57-4.19-8.01c1.11-8.61,8.75-8.65,8.89-8.65c0,0,9.34,0.22,9.34,9C537.67,621.28,535.33,623.53,533,624.68z"/>
		<path class="st2" d="M530.23,565.31c-7.63-19.52-43.6-111.38-59.45-147.42c0,0-4.35-10.88,4.63-20.19
			c1.84-1.91,4.53-2.73,7.14-2.31l10.99,1.78c0.26,0.04,0.37-0.32,0.13-0.43c0,0-24.24-9.83-23.95-11.3
			c4.46-22.59,9.58-36.28,13.8-44.46c4.99-9.65,10.09-11.67,10.09-11.67c2.77,9.68,4.72,21.47,10.26,27.43
			c2.96,36.14,5.41,68.57,10.59,107.61c0,0.03,0,0.04,0,0.04c0.16,1.14,0.31,2.27,0.47,3.42
			C519.56,501.92,524.51,533.89,530.23,565.31z"/>
		<path class="st3" d="M495.22,288.09c0.12-1.91,0-4.66-1.55-7.2c0,0-1.02-1.75-7.13-6.69c0.92-14.21,0.89-25.78,0.67-33.9
			c-0.32-11.87-1.15-20.68,2.9-31.74c2.06-5.61,4.77-9.15,7.15-11.45c0.49-0.47,1.64-1.45,3.07-2.55c2.47-1.91,4.69-3.29,6.3-4.22
			c0.01-1.08,0.08-2.62,0.37-4.44c1.12-7.06,4.77-13.81,6.57-13.42c1.53,0.33,0.57,5.52,2.76,6.31c1.83,0.66,3.71-2.64,7.56-5.11
			c3.89-2.5,7.26-3.1,13.56-4.22c8.32-1.48,14.9-0.95,18.68-0.64c3.88,0.31,8.13,0.96,12.73,2.12c9.29,2.35,7.59,3.67,19.26,6.81
			c10.79,2.91,14.36,2.36,21.63,5.93c4.46,2.19,9.29,4.56,13.33,9.78c0,0,7.43,9.59,7.7,28.28c0,0,0,0,0,0c0,0.01,0,0.05,0.01,0.1
			c0.01,0.12,0.04,0.22,0.05,0.24c0,0,0,0,0,0.01c0.02,0.08-0.04,1.37-0.23,4.49c-0.16,2.62,0.01,9.47-1.31,23.48
			c-0.83,8.81-1.25,13.22-2.96,18.3c-0.93,2.75-1.89,4.85-3.11,9.11c-1.38,4.81-2.08,8.87-2.45,11.56"/>
		<path class="st4" d="M610.93,326.93l-8.31,19.21c-1.48,3.43-3.52,6.59-6.02,9.37c-1.01,1.11-1.92,2.13-2.42,2.77l-4.29,5.04
			c0,0.01,0,0.01,0,0.01c-5.55,5.97-11.23,10.05-16.66,12.8c-4.7,2.37-9.22,3.75-13.33,4.5c-11.5,2.08-19.79-0.81-19.79-0.81
			s-5.59-1.3-13.1-5.48c-7.13-3.96-16.94-8.75-24.38-19.26c-4.55-6.42-5.67-13.28-8.44-22.96c-1.02-3.56-1.13-9.57-1.78-13.63
			c0,0-30.42-9.46-17.89-45.48c0.46-1.32,1.62-2.29,3.02-2.45c2.28-0.26,5.85,0.02,8.73,3.33c1.09,1.25,2.09,2.93,2.88,5.19
			c0,0,4.15,5.93,5.63,10.67l5.93-22.37c1-1.91,2.62-4.87,4.81-8.36c9.58-15.28,11.33-16.34,14.15-23.79
			c4.59-12.16,4.74-12.74,4.74-12.74c0.74-2.98,0.87-4.47,2.15-5.26c2.72-1.66,6.32,2.46,13.25,5.14c7.87,3.05,15.6,2.73,20.3,2.19
			c9.84-1.14,12.76-2.69,15.56-0.44c3,2.41,4.89,8.45,4.89,8.45c0,0,4.22-3.56,2.88-8.67c17.37,5.8,25.43,4.69,29.56,2.44
			c0.91-0.49,3.32-1.96,5.04-1.03c2.76,1.49,1.82,8.11,1.48,10.81c-0.91,7.19-1.55,17.91-0.59,33.93c0.75,5.95,1.51,11.9,2.26,17.84
			c-0.67,1.81-1.08,2.86-1.08,2.86c3.03-0.97,5.04,3.45,5.04,3.45C628.7,317.59,610.93,326.93,610.93,326.93z"/>
		<path class="st5" d="M559.9,380.62c-0.15,3.64,0.03,6.19-0.84,8.18c-1.02,2.35-2.98,4.1-5.32,4.97c-0.79,0.3-1.63,0.49-2.49,0.57
			c-5.68,0.55-16.35,1.06-21.58-2.14c-0.94-0.57-1.7-1.26-2.23-2.09c-4.66-7.33-0.43-15.78-0.43-15.78
			c7.51,4.18,13.1,5.48,13.1,5.48S548.4,382.7,559.9,380.62z"/>
		<path class="st2" d="M598.27,414.04c-5.49,16.15-33.95,98.07-63.77,150.12c12.55-31.58,21.03-62.12,26.77-89.06
			c12.28-57.71,11.96-98.98,11.96-98.98c5.43-2.75,11.11-6.83,16.66-12.8l5.33,27.9l-11.64,2.16c-0.15,0.03-0.21,0.21-0.1,0.32
			l1.37,1.37l12.71,13.69C598.61,410.32,598.88,412.27,598.27,414.04z"/>
		<path class="st5" d="M561.27,475.1c-5.74,26.94-14.22,57.48-26.77,89.06c-0.94,1.64-1.89,3.26-2.83,4.84c0,0-0.39-1.01-1.12-2.87
			v-0.01c-0.1-0.25-0.21-0.52-0.32-0.81c-5.72-31.42-10.67-63.39-15.3-97.5c-0.16-1.15-0.31-2.28-0.47-3.42c0,0,0-0.01,0-0.04
			c0.25-1.78,8.64-61.75,15.21-72.15c5.23,3.2,15.9,2.69,21.58,2.14c0.86-0.08,1.7-0.27,2.49-0.57
			C553.74,393.77,561.93,449.76,561.27,475.1z"/>
		<path class="st2" d="M537.67,616.89c0,4.39-2.34,6.64-4.67,7.79c-2.94,1.45-6.45,1.36-9.37-0.13c-2.42-1.23-4.75-3.57-4.19-8.01
			c1.11-8.61,8.75-8.65,8.89-8.65C528.33,607.89,537.67,608.11,537.67,616.89z"/>
		<path class="st4" d="M539.1,723.89c2.08,6.97,7.76,16.92,10.12,23.55l-14.95-15.93c-1.06-1.13-3.18-2.28-4.23-1.14
			c-3.65,3.94-6.92,9.79-11.85,11.21c-5.28,1.52-11.79,2.65-19.19,2.31c-12.72-0.58-21.74-5.18-29.67-9.34
			c-7.63-4-19.88-11.7-31.44-25.85c0,0-8-23.4,4.74-37.33c11.13-12.16,19.77-13.48,21.78-13.61c0.19-0.02,0.28-0.23,0.16-0.38
			l31.59,7.19l12.82,21.6c5.19,2.92,10.98,6.31,16.54,9.82V696l0.01,0.01c5.79,3.67,11.33,7.5,15.69,11.11c0,0.01,0,0.01,0,0.01
			c7.62,6.31,11.61,11.96,7.01,14.98C545.91,723.63,542.76,724.13,539.1,723.89z"/>
		<path class="st4" d="M541.22,707.12c-4.36-3.61-9.9-7.44-15.69-11.11l-0.01-0.01v-0.01l-16.84-28.62
			C537.22,679.22,541.13,706.46,541.22,707.12z"/>
		<path class="st4" d="M704.28,755.27c-2.28,6.76-4.65,11.69-6.14,14.17c-2.45,4.09-3.98,8.67-4.36,13.43
			c-0.01,0.18-0.03,0.35-0.04,0.52c-0.11,1.69-0.72,3.33-1.85,4.59c-2.09,2.34-3.88,1.17-5.12-0.48c-1.22-1.64-1.76-3.7-1.66-5.74
			l0.8-22.96c-5.76,6.08-14.75,14.76-23.58,19.98c0,0-14.76,7.69-14.72-3.26c-0.43,0.51-0.83,1.03-1.2,1.55
			c-5.41,7.56-10.44-0.92-10.44-0.92c-4.57,8.1-8.08,7.96-8.08,7.96c-5.08-0.38-5.88-5.11-5.63-9.1c0.17-2.79,0.93-5.5,2.11-8.03
			l17.91-38.6c-1.77-0.45-5.15-0.68-6.92-0.42c-2.48,0.36-4.85,1.24-7.05,2.45c-3.14,1.73-9.5,4.78-15.98,5.26
			c-5.9,0.43-7.98-4.08-8.71-7.31c-0.38-1.66,0.52-3.36,2.11-3.96c6.26-2.34,15.57-7.69,24.99-13.63
			c16.96-10.68,34.29-23.27,34.84-23.68c0.01,0,0.01,0,0.01,0c0.03-0.01,0.07-0.02,0.1-0.03c6.19-2,36.47-9.66,44.84,27.81
			C710.83,731.08,707.66,745.21,704.28,755.27z"/>
		<path class="st3" d="M479.67,165.22"/>
	</g>
	<g>
		<path class="st6" d="M379.52,592.85c5.63-2.56,12.81-0.99,20.61,3.06c20.97,10.86,46.41,39.59,58.17,53.73"/>
		<path class="st6" d="M423.42,706.56c2.24,1.37,3.51,2.14,3.51,2.14s8.29,4.74,10.96,0"/>
		<path class="st6" d="M464.57,657.38c-0.37-0.48-1.11-1.42-2.16-2.73"/>
		<path class="st6" d="M633.15,463.96l-17.63,57.3l-0.01,0.01l-0.14,0.47c-0.01,0.03-0.01,0.05-0.02,0.08"/>
		<line class="st6" x1="499.44" y1="651.68" x2="489.01" y2="652.51"/>
		<path class="st6" d="M647.37,495.07c0,0-17.93,7.53-31.86,26.2"/>
		<path class="st6" d="M728.56,587.22l-46.67-148c0,0-0.94-17.87-10.22-39.55c-1.45-3.37-10.96-11.4-14.3-12.91l-63.19-28.49
			c-1.41,1.81-2.85,3.49-4.29,5.04c0,0.01,0,0.01,0,0.01l5.33,27.9l-11.64,2.16c-0.15,0.03-0.21,0.21-0.1,0.32l1.37,1.37
			l12.71,13.69c1.05,1.56,1.32,3.51,0.71,5.28c-5.49,16.15-33.95,98.07-63.77,150.12c-0.94,1.64-1.89,3.26-2.83,4.84
			c0,0-0.39-1.01-1.12-2.87v-0.01c-0.1-0.25-0.21-0.52-0.32-0.81c-7.63-19.52-43.6-111.38-59.45-147.42c0,0-4.35-10.88,4.63-20.19
			c1.84-1.91,4.53-2.73,7.14-2.31l10.99,1.78c0.26,0.04,0.37-0.32,0.13-0.43c0,0-24.24-9.83-23.95-11.3
			c4.46-22.59,9.58-36.28,13.8-44.46l-123.85,43.56c0,0-18.6,18.09-21.93,79.42c0,0-16.59,97.78-17.18,120
			c-0.6,22.23-5.04,39.11,9.77,57.19c4.97,6.06,17.49,15.66,31.92,25.75c23.22,16.22,51.42,33.68,61.17,39.66
			c-11.1-58.66,34.88-56.92,34.88-56.92c1.66,1.99,3.04,3.69,4.11,5.01l26.6-2.14l-11.04-18.59l-6.75-11.36
			c-1.78-10.67,7.56-6,7.56-6l20.66,35.12l105.26-8.46c0,0-7.1-57.43,10.65-121.4l43.36,73.47c1.33,2.24,2.13,4.75,2.36,7.34
			c0.62,7.1,3.08,21.51,6.77,20.84l-0.86,15.67L664.75,680c0.88-0.46,43.69-22.22,51.98,28.27l21.6-56.38c0,0,2.16-7.78,2.27-19.33
			C740.73,620.13,738.47,603.35,728.56,587.22z M500,648.78c-3.89-2.76-17.22-30-17.22-30s0.44-3.11,3.55-2
			c3.11,1.11,17.56,30,17.56,30S503.89,651.54,500,648.78z M533,624.68c-2.94,1.45-6.45,1.36-9.37-0.13
			c-2.42-1.23-4.75-3.57-4.19-8.01c1.11-8.61,8.75-8.65,8.89-8.65c0,0,9.34,0.22,9.34,9C537.67,621.28,535.33,623.53,533,624.68z"/>
		<path class="st6" d="M530.23,565.31c-7.63-19.52-43.6-111.38-59.45-147.42c0,0-4.35-10.88,4.63-20.19
			c1.84-1.91,4.53-2.73,7.14-2.31l10.99,1.78c0.26,0.04,0.37-0.32,0.13-0.43c0,0-24.24-9.83-23.95-11.3
			c4.46-22.59,9.58-36.28,13.8-44.46c4.99-9.65,10.09-11.67,10.09-11.67c2.77,9.68,4.72,21.47,10.26,27.43
			c2.96,36.14,5.41,68.57,10.59,107.61c0,0.03,0,0.04,0,0.04c0.16,1.14,0.31,2.27,0.47,3.42
			C519.56,501.92,524.51,533.89,530.23,565.31z"/>
		<line class="st6" x1="668.56" y1="610.33" x2="667.84" y2="623.47"/>
		<path class="st6" d="M400.13,595.91c0,0,3.42-1.28,0-12.24c-3.42-10.96,14.06-51.26,14.06-51.26"/>
		<path class="st6" d="M417.44,521.74c0,0-1.15-39.41-17.76-74.67"/>
		<line class="st6" x1="423.42" y1="706.57" x2="423.42" y2="706.56"/>
		<path class="st6" d="M716.76,708.45L716.76,708.45l-4.87,12.77l-1.11-5.11c-0.09-0.42-0.17-0.83-0.27-1.24
			c-8.37-37.47-38.65-29.81-44.84-27.81c-0.03,0.01-0.07,0.02-0.1,0.03c0,0,0,0-0.01,0c-0.65,0.22-1,0.35-1,0.35v-4l0.19-3.44
			c0.88-0.46,43.69-22.22,51.98,28.27C716.74,708.33,716.75,708.39,716.76,708.45z"/>
		<path class="st6" d="M664.75,680c-0.01,0-0.01,0-0.01,0"/>
		<path class="st6" d="M495.22,288.09c0.12-1.91,0-4.66-1.55-7.2c0,0-1.02-1.75-7.13-6.69c0.92-14.21,0.89-25.78,0.67-33.9
			c-0.32-11.87-1.15-20.68,2.9-31.74c2.06-5.61,4.77-9.15,7.15-11.45c0.49-0.47,1.64-1.45,3.07-2.55c2.47-1.91,4.69-3.29,6.3-4.22
			c0.01-1.08,0.08-2.62,0.37-4.44c1.12-7.06,4.77-13.81,6.57-13.42c1.53,0.33,0.57,5.52,2.76,6.31c1.83,0.66,3.71-2.64,7.56-5.11
			c3.89-2.5,7.26-3.1,13.56-4.22c8.32-1.48,14.9-0.95,18.68-0.64c3.88,0.31,8.13,0.96,12.73,2.12c9.29,2.35,7.59,3.67,19.26,6.81
			c10.79,2.91,14.36,2.36,21.63,5.93c4.46,2.19,9.29,4.56,13.33,9.78c0,0,7.43,9.59,7.7,28.28c0,0,0,0,0,0c0,0.01,0,0.05,0.01,0.1
			c0.01,0.12,0.04,0.22,0.05,0.24c0,0,0,0,0,0.01c0.02,0.08-0.04,1.37-0.23,4.49c-0.16,2.62,0.01,9.47-1.31,23.48
			c-0.83,8.81-1.25,13.22-2.96,18.3c-0.93,2.75-1.89,4.85-3.11,9.11c-1.38,4.81-2.08,8.87-2.45,11.56"/>
		<path class="st6" d="M610.93,326.93l-8.31,19.21c-1.48,3.43-3.52,6.59-6.02,9.37c-1.01,1.11-1.92,2.13-2.42,2.77l-4.29,5.04
			c0,0.01,0,0.01,0,0.01c-5.55,5.97-11.23,10.05-16.66,12.8c-4.7,2.37-9.22,3.75-13.33,4.5c-11.5,2.08-19.79-0.81-19.79-0.81
			s-5.59-1.3-13.1-5.48c-7.13-3.96-16.94-8.75-24.38-19.26c-4.55-6.42-5.67-13.28-8.44-22.96c-1.02-3.56-1.13-9.57-1.78-13.63
			c0,0-30.42-9.46-17.89-45.48c0.46-1.32,1.62-2.29,3.02-2.45c2.28-0.26,5.85,0.02,8.73,3.33c1.09,1.25,2.09,2.93,2.88,5.19
			c0,0,4.15,5.93,5.63,10.67l5.93-22.37c1-1.91,2.62-4.87,4.81-8.36c9.58-15.28,11.33-16.34,14.15-23.79
			c4.59-12.16,4.74-12.74,4.74-12.74c0.74-2.98,0.87-4.47,2.15-5.26c2.72-1.66,6.32,2.46,13.25,5.14c7.87,3.05,15.6,2.73,20.3,2.19
			c9.84-1.14,12.76-2.69,15.56-0.44c3,2.41,4.89,8.45,4.89,8.45c0,0,4.22-3.56,2.88-8.67c17.37,5.8,25.43,4.69,29.56,2.44
			c0.91-0.49,3.32-1.96,5.04-1.03c2.76,1.49,1.82,8.11,1.48,10.81c-0.91,7.19-1.55,17.91-0.59,33.93c0.75,5.95,1.51,11.9,2.26,17.84
			c-0.67,1.81-1.08,2.86-1.08,2.86c3.03-0.97,5.04,3.45,5.04,3.45C628.7,317.59,610.93,326.93,610.93,326.93z"/>
		<path class="st6" d="M617.13,293.34c1.84-4.18,1.5-2.13,2.98-2.6"/>
		<path class="st6" d="M559.9,380.62c-0.15,3.64,0.03,6.19-0.84,8.18c-1.02,2.35-2.98,4.1-5.32,4.97c-0.79,0.3-1.63,0.49-2.49,0.57
			c-5.68,0.55-16.35,1.06-21.58-2.14c-0.94-0.57-1.7-1.26-2.23-2.09c-4.66-7.33-0.43-15.78-0.43-15.78
			c7.51,4.18,13.1,5.48,13.1,5.48S548.4,382.7,559.9,380.62z"/>
		<line class="st6" x1="621.19" y1="287.9" x2="621.19" y2="287.88"/>
		<path class="st6" d="M598.27,414.04c-5.49,16.15-33.95,98.07-63.77,150.12c12.55-31.58,21.03-62.12,26.77-89.06
			c12.28-57.71,11.96-98.98,11.96-98.98c5.43-2.75,11.11-6.83,16.66-12.8l5.33,27.9l-11.64,2.16c-0.15,0.03-0.21,0.21-0.1,0.32
			l1.37,1.37l12.71,13.69C598.61,410.32,598.88,412.27,598.27,414.04z"/>
		<line class="st6" x1="529.67" y1="392.2" x2="529.67" y2="392.19"/>
		<path class="st6" d="M561.27,475.1c-5.74,26.94-14.22,57.48-26.77,89.06c-0.94,1.64-1.89,3.26-2.83,4.84c0,0-0.39-1.01-1.12-2.87
			v-0.01c-0.1-0.25-0.21-0.52-0.32-0.81c-5.72-31.42-10.67-63.39-15.3-97.5c-0.16-1.15-0.31-2.28-0.47-3.42c0,0,0-0.01,0-0.04
			c0.25-1.78,8.64-61.75,15.21-72.15c5.23,3.2,15.9,2.69,21.58,2.14c0.86-0.08,1.7-0.27,2.49-0.57
			C553.74,393.77,561.93,449.76,561.27,475.1z"/>
		<line class="st6" x1="362.25" y1="666.9" x2="272.56" y2="675.28"/>
		<line class="st6" x1="604.7" y1="643.22" x2="666.98" y2="639.14"/>
		<line class="st6" x1="740.6" y1="632.56" x2="795.67" y2="628.11"/>
		<polyline class="st6" points="464.57,733.25 434.48,738.48 586.78,861.89 780.56,802.33 704.28,755.27 		"/>
		<polyline class="st6" points="630.73,710.78 616.11,700.36 549.22,713 		"/>
		<path class="st6" d="M537.67,616.89c0,4.39-2.34,6.64-4.67,7.79c-2.94,1.45-6.45,1.36-9.37-0.13c-2.42-1.23-4.75-3.57-4.19-8.01
			c1.11-8.61,8.75-8.65,8.89-8.65C528.33,607.89,537.67,608.11,537.67,616.89z"/>
		<path class="st6" d="M539.1,723.89c2.08,6.97,7.76,16.92,10.12,23.55l-14.95-15.93c-1.06-1.13-3.18-2.28-4.23-1.14
			c-3.65,3.94-6.92,9.79-11.85,11.21c-5.28,1.52-11.79,2.65-19.19,2.31c-12.72-0.58-21.74-5.18-29.67-9.34
			c-7.63-4-19.88-11.7-31.44-25.85c0,0-8-23.4,4.74-37.33c11.13-12.16,19.77-13.48,21.78-13.61c0.19-0.02,0.28-0.23,0.16-0.38
			l31.59,7.19l12.82,21.6c5.19,2.92,10.98,6.31,16.54,9.82V696l0.01,0.01c5.79,3.67,11.33,7.5,15.69,11.11c0,0.01,0,0.01,0,0.01
			c7.62,6.31,11.61,11.96,7.01,14.98C545.91,723.63,542.76,724.13,539.1,723.89z"/>
		<line class="st6" x1="539.1" y1="723.89" x2="539.1" y2="723.88"/>
		<path class="st6" d="M475,719.89c0,0,50.99,23.74,64.1,4"/>
		<path class="st6" d="M508.98,686.17c-9.83-5.53-17.54-9.39-17.54-9.39"/>
		<path class="st6" d="M539.1,723.89c-19.31-1.28-52.77-23.11-52.77-23.11"/>
		<path class="st6" d="M541.22,707.12c-4.36-3.61-9.9-7.44-15.69-11.11l-0.01-0.01v-0.01l-16.84-28.62
			C537.22,679.22,541.13,706.46,541.22,707.12z"/>
		<line class="st6" x1="496.16" y1="664.57" x2="489.01" y2="652.51"/>
		<line class="st6" x1="508.68" y1="667.37" x2="499.44" y2="651.68"/>
		<polygon class="st6" points="486.33,630.78 479.22,633.22 481,635.89 486.33,633.33 		"/>
		<path class="st6" d="M503.89,646.78c0,0,0,4.76-3.89,2s-17.22-30-17.22-30s0.44-3.11,3.55-2
			C489.44,617.89,503.89,646.78,503.89,646.78z"/>
		<path class="st6" d="M704.28,755.27c-2.28,6.76-4.65,11.69-6.14,14.17c-2.45,4.09-3.98,8.67-4.36,13.43
			c-0.01,0.18-0.03,0.35-0.04,0.52c-0.11,1.69-0.72,3.33-1.85,4.59c-2.09,2.34-3.88,1.17-5.12-0.48c-1.22-1.64-1.76-3.7-1.66-5.74
			l0.8-22.96c-5.76,6.08-14.75,14.76-23.58,19.98c0,0-14.76,7.69-14.72-3.26c-0.43,0.51-0.83,1.03-1.2,1.55
			c-5.41,7.56-10.44-0.92-10.44-0.92c-4.57,8.1-8.08,7.96-8.08,7.96c-5.08-0.38-5.88-5.11-5.63-9.1c0.17-2.79,0.93-5.5,2.11-8.03
			l17.91-38.6c-1.77-0.45-5.15-0.68-6.92-0.42c-2.48,0.36-4.85,1.24-7.05,2.45c-3.14,1.73-9.5,4.78-15.98,5.26
			c-5.9,0.43-7.98-4.08-8.71-7.31c-0.38-1.66,0.52-3.36,2.11-3.96c6.26-2.34,15.57-7.69,24.99-13.63
			c16.96-10.68,34.29-23.27,34.84-23.68c0.01,0,0.01,0,0.01,0c0.03-0.01,0.07-0.02,0.1-0.03c6.19-2,36.47-9.66,44.84,27.81
			C710.83,731.08,707.66,745.21,704.28,755.27z"/>
		<path class="st6" d="M635.97,776.15c0.38-0.67,0.77-1.4,1.16-2.19c2.04-4.12,4.6-7.97,7.51-11.54
			c5.04-6.17,12.78-16.81,17.69-29.17"/>
		<line class="st6" x1="649" y1="713.89" x2="642.28" y2="728.38"/>
		<path class="st6" d="M681.22,744.11c-5.55,10.45-18,18.45-18,18.45s-9.88,6.03-15.61,12.95v0.01"/>
		<line class="st6" x1="647.61" y1="775.52" x2="647.61" y2="775.51"/>
		<path class="st6" d="M692.11,751.89c0,0-2.4,2.88-6.2,6.91"/>
		<path class="st6" d="M479.67,165.22"/>
	</g>
</g>
<g id="Shadows">
	<polygon class="st7" points="539.37,726.35 534.83,730 548,745.28 	"/>
	<path d="M430.65,616.8c0,0-6.89-5.7-10.9-16.58c-3.6-9.77-2.77-18.24-2.31-23.07c0,0,1.98-21.08,2.08-54.37
		c0.03-11.35-1.22-27.46-7.26-47.11c-3.18-9.35-6.63-18.89-10.37-28.59c-9.12-23.67-19.96-45.29-29.95-65.41l-2.14,0.59
		c5.02,7.47,9.09,18.73,15.35,32.08c4.63,9.89,8.73,20.42,13.93,37.78c5.1,17.05,11.36,41.01,16.44,71.11
		c-3.72,11.75-7.44,23.51-11.16,35.26L399.68,577l0.44,6.67l1.52,7.94l0.47,4.3L430.65,616.8z"/>
	<path d="M334.78,481.78c0,0,0.44,34.62,28.89,44.11l5.11,2.89l7.78,3.63c0,0-44.68-3.75-43.23-41.72L334.78,481.78z"/>
	<path d="M377.3,407.52l-2.3,0.15c0,0,27.33,64.89,27.04,81.48c-0.3,16.59,2.52-2.52,2.52-2.52S393.59,443.67,377.3,407.52z"/>
	<path d="M321.89,599.81c2.16-1.85,4.86-3.87,8.15-5.78c4.69-2.72,9.09-4.34,12.59-5.33c8.49-1.75,16.99-3.51,25.48-5.26l-2.22,2.22
		c0,0-43.11,3.56-44,25.56C321.89,607.42,321.89,603.62,321.89,599.81z"/>
	<path d="M665.67,615.89c0,0-1.56-16.67,15.78-18H685l-2.44,2.89c0,0-12.89,2.44-12.44,15.11l-3.13,2.89L665.67,615.89z"/>
	<path class="st8" d="M476.56,343.96c0,0-14.37,36.15-13.93,45.04c0,0,2.76,2.21,5.31,3.46c0.64,0.31,0.68,1.21,0.08,1.59
		c-3.12,2.03-9.13,7.87-5.41,21.47c4.9,17.93,34.88,77.78,68.17,165.19l-0.56,27.19h-1.9l0.18-27.78l-67.16-161.9
		c-1.93-4.65-2.63-9.75-1.75-14.71c0.68-3.84,2.29-7.77,5.84-9.72l-5.5-4.44l13.94-44.22l1.15-1.15H476.56z"/>
	<path d="M664.86,392.2c0,0-35.57,59.91-50.97,127.47l6.22-3.56c0,0,22.67-85.04,47.56-123.7L664.86,392.2z"/>
	<path class="st8" d="M597,361.67l6.44,33.08l-8,2.03c0,0,11.33,8,10.89,13.78c-0.4,5.22-18.91,62.15-52.47,131.11
		c-2.05,4.22-9.6,19.83-22.36,38.94c-0.31,0.46-0.56,0.83-0.71,1.06c-0.01,0.18-0.01,0.37-0.02,0.55
		c-0.24,8.19-0.49,16.37-0.73,24.56l2.07,1.11l0.67-26.22v0c9.11-13.05,16.67-27.47,23.78-41.7
		c14.72-29.47,39.03-82.09,51.68-128.02c0.55-1.99,0.1-4.13-1.19-5.74c-1.39-1.73-3.75-4.51-7.71-8.93l4.14-0.66
		c0.99-0.16,1.65-1.1,1.46-2.08l-6.34-32.87H597z"/>
	<polygon class="st9" points="475.81,347.81 472.77,354.91 378.05,384.54 375,382.78 	"/>
	<path class="st9" d="M367.07,386.63c0,0-8,0.89-12.15,15.41c-4.15,14.52-10.07,28.15-11.26,58.67l-5.04,26.96c0,0-0.78,3.81,1.59,5
		c2.37,1.19,9.37-31.97,9.07-40.86c-0.3-8.88,8-44.74,13.04-53.92c5.04-9.19,8.89-9.19,8.89-9.19S368.93,386.04,367.07,386.63z"/>
	<path class="st9" d="M333.89,509c0,0,1.93,2.22,2.22,4.74c0.3,2.52-8.59,63.56-8.44,70.81c0.15,7.26-1.78,9.63-2.37,9.33
		c-0.59-0.3-1.93,0.47-1.78-2.28c0.15-2.75,4-38.46,4-38.46s4.3-26.37,4.3-26.81C331.81,525.89,333.89,509,333.89,509z"/>
	<path class="st9" d="M382.78,597.33c0,0,28.84,7.36,40.64,23.29l7.23,7.04c0,0-2.43-0.56-4.65-1.67s-13.58-14.22-19.07-16.89
		C401.44,606.44,382.78,597.33,382.78,597.33z"/>
	<path class="st9" d="M595.52,362.38c-0.82,0.37-0.95,2.33-0.13,2.72c4.49,2.14,57.25,27,61.06,30.45c0.16,0.14,0.98,0.93,1.98,0.84
		c1.21-0.11,2.43-2.29,2.43-3.52c0-0.41-0.24-0.79-0.61-0.96l-63.84-29.53C596.12,362.26,595.8,362.26,595.52,362.38z"/>
	<path class="st9" d="M667.06,398.49c0.4,0.48,0.71,1.04,0.92,1.63c1.66,4.91,9.49,28.41,9.69,35.76c0.2,7.3,8.8,30.71,10.73,35.87
		c0.25,0.68,0.38,1.39,0.38,2.12V479c0,0-13.11-40-14.22-46.89c-1.11-6.89-6.14-31.69-8.22-32.89c-2.09-1.2,0.41-1.11,0.41-1.11
		L667.06,398.49z"/>
	<path id="Буговки_00000068669805361519383860000010742942434341942972_" class="st10" d="M391.99,672.85
		c0,0-4.54-3.78-5.06,1.78s5.85,5.06,6.96,3.7S396.58,675.07,391.99,672.85z"/>
	<path id="Буговки_00000156582013366371480750000017264481610195845275_" class="st10" d="M724.14,677.52
		c0,0,2.09-6.63-3.04-4.43c-2.64,1.14-2.04,7.06-1.76,7.69C720.04,682.39,723.19,682.54,724.14,677.52z"/>
	<path id="Буговки_00000182506108849693232860000001437928532133034644_" class="st10" d="M728.81,664.59
		c0,0,2.01-5.66-2.68-3.7c-2.42,1.01-2.14,4.91-1.9,5.44C724.83,667.69,727.86,668.87,728.81,664.59z"/>
	<path id="Буговки_00000000211988540122338210000009420267651494165637_" class="st10" d="M380.52,665.23
		c0,0-4.54-3.78-5.06,1.78c-0.52,5.56,5.85,5.06,6.96,3.7S385.11,667.45,380.52,665.23z"/>
	<path class="st9" d="M326.44,604c0,0-4.1,2.22-2.94,9.33c0.67,4.13,1.44,8.83,2.58,13.26c1.29,5.03,3.88,9.64,7.47,13.4l0,0
		c0,0,1.56-3.56,0.56-5.67c-1-2.11-9.44-6.89-7.67-19.67C328.22,601.89,329.59,602.75,326.44,604z"/>
	<path d="M577.44,474.63c0,0,19.41,11.85,48.59,7.85v2.37c-5.56,0.87-12.84,1.45-21.26,0.59c-12.39-1.25-22.1-5.07-28.37-8.15
		L577.44,474.63z"/>
	<path class="st11" d="M578.73,475.34c0,0,0.49-8.41,1.97-10.93c1.35-2.29,39.41,5.33,46.36,6.74c0.58,0.12,0.94,0.71,0.77,1.28
		c-0.86,2.89-3.22,10.75-3.58,11.36C623.81,484.53,596.33,486.57,578.73,475.34z"/>
	<polygon points="525.66,651.68 525.66,632.11 530.23,630.27 529.17,651.4 	"/>
	<path d="M527.44,604.08c0.54-1.7,2.04-37.07,2.04-37.07l5.02-1.03l-3.38,36.72L527.44,604.08z"/>
	<polygon class="st7" points="487.89,634.53 481.89,637.22 510.22,684.56 520.56,690.44 	"/>
	<path class="st7" d="M478.78,631.22l5.89-2.11l-6.89-11.33c0,0-5.44-3.56-5.11,3.33L478.78,631.22z"/>
	<path class="st7" d="M485.78,617.78c0,0-0.89,0.11-1.11,0.67c-0.22,0.56,10.78,23.67,16.56,29.22c0,0,2.89,0.67,0.77-2.33
		S486.67,614.22,485.78,617.78z"/>
	<polygon points="550.56,413.95 525.25,441.95 524.11,447.06 550.56,417.36 	"/>
	<polygon points="551.07,422.4 523.94,453.79 522.78,459.6 551.07,425.1 	"/>
</g>
<g id="Face">
	<path d="M564.51,300.27l0.05,19.17h-10.57c-0.47,0-0.61,0.64-0.18,0.83c2.64,1.17,8.02,3.07,13.86,2.28l-1.09-31.06
		c-0.01-0.18-0.25-0.22-0.32-0.06l0,0C565.09,294.24,564.5,297.24,564.51,300.27z"/>
	<path d="M535.45,341c0,0,23.11,5.11,40.89,4.22l-0.89,2c0,0-18.78-1-39.44-4.67L535.45,341z"/>
	<path d="M549.74,350.78c0,0,5.74,1.48,10.87,1.19l-0.71,1.33l-9.57-1.26C550.33,352.04,551.37,352.85,549.74,350.78z"/>
	<path class="st12" d="M557.18,260.63l-5.29,2.3l-25.56-8.64c0,0-5.67,4.35-10.96,8.82c0,0,8.22-0.19,9.41-1.08
		s7.28,5.37,29.14,7.22C553.92,269.25,557.44,267,557.18,260.63z"/>
	<path class="st12" d="M581.67,265.96l3.22,3.29l24.56,0.89c1.37,0.34,2.71,2.92,4.02,8.86c0,0-5.18-0.77-5.97-1.86
		s-5.68,2.91-25.59-2.86C581.91,274.28,579.09,270.71,581.67,265.96z"/>
	<path class="st0" d="M520.95,282.72c6.56,4.51,12.51,5.96,16.03,6.51c4.8,0.74,9.18,1.42,12.58-1.35c4.11-3.35,3.88-9.4,3.82-10.59
		c-13.89-5.32-22.96-4.7-27.5-3.89c-2.74,0.49-7.02,1.3-7.67,3.9C517.63,279.58,520.17,282.02,520.95,282.72z"/>
	<polygon points="554.38,278.96 553.26,275.29 526.66,270.7 517.08,275.28 516.51,278.26 518.55,278.65 518.94,276.61 525.88,273.4 
		550.94,277.4 553.02,279 	"/>
	
		<linearGradient id="SVGID_1_" gradientUnits="userSpaceOnUse" x1="535.0822" y1="289.1348" x2="535.0822" y2="275.1914" gradientTransform="matrix(0.9825 0.1862 -0.1718 0.9064 59.8017 -73.5386)">
		<stop  offset="0" style="stop-color:#0071BC"/>
		<stop  offset="0.1747" style="stop-color:#005892"/>
		<stop  offset="0.4617" style="stop-color:#003354"/>
		<stop  offset="0.705" style="stop-color:#001726"/>
		<stop  offset="0.8919" style="stop-color:#00060A"/>
		<stop  offset="1" style="stop-color:#000000"/>
	</linearGradient>
	<path class="st13" d="M532.93,274.53c-0.68,0.9-2.21,3.18-2.26,6.36c-0.02,1.07-0.05,2.85,1.04,4.47c1.84,2.73,6.11,3.82,8.72,2.52
		c3.58-1.79,3.96-10.74,3.96-10.74C540.57,276.27,536.75,275.4,532.93,274.53z"/>
	<path class="st0" d="M535.5,285.72l-0.06-1.11c-0.03-0.46,0.26-0.88,0.68-0.97c0.46-0.1,1.04-0.15,1.45,0.09
		c0.77,0.45,1.14,1.8,1.14,1.8s-0.29,0.9-2.15,1.13C536.02,286.72,535.54,286.3,535.5,285.72z"/>
	<path class="st0" d="M603.28,295.01c-6.55,2.14-11.76,1.72-14.74,1.19c-4.07-0.72-7.79-1.37-9.74-4.83
		c-2.36-4.18-0.46-9.52-0.07-10.56c12.68-0.76,25.41,2.16,28.83,4.19c2.06,1.22,1.3,3,1.09,5.51
		C608.47,292.71,604.1,294.6,603.28,295.01z"/>
	<polygon points="576.43,281.98 578.37,278.75 609.03,282.66 609.6,285.83 609.78,291.47 607.9,291.29 608.32,286.69 606.78,284.77 
		579.85,281.41 577.62,282.39 	"/>
	
		<linearGradient id="SVGID_00000085965757524742869470000017225017629801649042_" gradientUnits="userSpaceOnUse" x1="591.4534" y1="282.8593" x2="591.4534" y2="267.1001" gradientTransform="matrix(0.9195 0.242 -0.2283 0.8675 111.7114 -92.6448)">
		<stop  offset="0" style="stop-color:#0071BC"/>
		<stop  offset="0.1747" style="stop-color:#005892"/>
		<stop  offset="0.4617" style="stop-color:#003354"/>
		<stop  offset="0.705" style="stop-color:#001726"/>
		<stop  offset="0.8919" style="stop-color:#00060A"/>
		<stop  offset="1" style="stop-color:#000000"/>
	</linearGradient>
	
		<path style="fill:url(#SVGID_00000085965757524742869470000017225017629801649042_);stroke:#000000;stroke-width:2;stroke-miterlimit:10;" d="
		M587.53,282.84c-0.44,1.12-0.97,2.77-1.19,4.83c-0.25,2.27-0.41,3.71,0.3,5.09c1.3,2.53,5.1,4.01,8.1,2.99
		c2.97-1.01,4.08-4.12,4.82-6.21c0.86-2.4,0.87-4.54,0.78-5.82c-2-0.46-4.01-0.92-6.01-1.38
		C592.07,282.5,589.8,282.67,587.53,282.84z"/>
	<path class="st0" d="M594.47,291.22l0.41,1.01c0.17,0.42,0,0.9-0.39,1.13c-0.44,0.25-1.01,0.5-1.5,0.42
		c-0.92-0.15-1.71-1.27-1.71-1.27s0.02-0.93,1.84-1.8C593.63,290.48,594.26,290.7,594.47,291.22z"/>
	<polygon points="575.22,345.89 576.34,342.78 578.48,342.78 576.34,347.22 575.45,347.22 	"/>
	<polygon points="536.3,341.18 535.96,338.41 534.5,338.41 534.93,342.48 536.3,342.78 	"/>
	<path d="M478.47,295.61c-2.12-5.73-1.56-9.88-1.03-12.06c0.82-3.35,2.62-6.14,3.27-6.08c0.46,0.04,0.73,0.49,0.73,0.49
		s6.78,9.48,6.89,12.48s-3.11,6.89,0.89,11c4,4.11-2,3-2,3s-5.42-5.47-2.44-12c0.47-1.02,0.43-2.21-0.05-3.22
		c-0.92-1.95-2.37-4.87-3.17-5.67c-1.22-1.22-3.44,2.56-2.22,9c0.29,1.55,1.04,3.92,0.5,4.18c-0.08,0.04-0.18,0.03-0.25,0.02
		C478.91,296.66,478.56,295.83,478.47,295.61z"/>
	<path d="M616.03,302.97c1.5-4.39,1.12-6.03,2.94-7.5c0.62-0.5,0.92-0.51,1.08-0.47c1.21,0.24,1.46,3.66,1.55,4.86
		c0.17,2.27-0.03,7.17-4.47,14.92c-0.08,0.02-0.22,0.05-0.31-0.03c-0.14-0.11-0.18-0.46,0.31-1.42c0.9-1.78,4.98-10.7,2.98-15.85
		c-0.21,0.1-0.53,0.28-0.8,0.59c-0.63,0.7-0.3,1.36-0.83,2.59c-0.07,0.17-0.3,0.57-0.76,1.38c-0.42,0.74-0.68,1.16-0.52,1.54
		c0.1,0.24,0.22,0.24,0.4,0.45c0.44,0.51-0.08,2.09-0.72,2.16c-0.39,0.04-0.76-0.48-0.93-0.83
		C615.51,304.46,615.86,303.46,616.03,302.97z"/>
</g>
<g id="Colors">
	<g>
		<rect x="719" y="-201.97" class="st15" width="132.81" height="132.81"/>
		<rect x="851.81" y="-201.97" class="st4" width="132.81" height="132.81"/>
		<rect x="984.62" y="-201.97" class="st16" width="132.81" height="132.81"/>
	</g>
	<g>
		<rect x="286.54" y="-201.97" class="st5" width="132.81" height="132.81"/>
		<rect x="153.73" y="-201.97" class="st17" width="132.81" height="132.81"/>
		<rect x="20.92" y="-201.97" class="st3" width="132.81" height="132.81"/>
		<rect x="-111.89" y="-201.97" class="st18" width="132.81" height="132.81"/>
		<rect x="419.35" y="-201.97" class="st9" width="132.81" height="132.81"/>
		<rect x="552.16" y="-201.97" class="st2" width="132.81" height="132.81"/>
	</g>
</g>
</svg>
