<svg version="1.2" xmlns="http://www.w3.org/2000/svg" viewBox="0 0 235 305" width="235" height="305"><style></style><path fill-rule="evenodd" d="m231.1 16.6c3.3 7.1 3.4 9 2.9 54.8-1.5 146.4-1.5 187.4-0.2 208.8 0.6 8.4-2.4 14.6-8.3 17.7-1 0.4-1.8 0.9-1.9 1.1-0.1 0.2-0.9 0.7-1.7 1.3l-1.5 1-24.1-0.2c-23.2-0.2-40.9 0.1-80.5 1.5-11.4 0.4-34.4 0.9-63.4 1.5-25.6 0.4-33.5-0.8-40.9-6.1-4.8-3.6-8.6-9.7-10.3-16.7l-0.9-3.6 0.2-40.4c0.4-73.5 1.7-142 2.8-152.8 0.2-2.3 0.3-4.6 0.1-4.9-1-2.7 4.4-9.7 14-18.3 2-1.8 5-4.5 6.8-6.1 1.8-1.6 4.6-4.1 6.4-5.6 1.8-1.5 4.1-3.5 5.2-4.6 1.1-1 3.4-3 5-4.4 1.6-1.4 5.9-5.2 9.4-8.6 3.5-3.3 7.6-7.2 9.2-8.7 3.8-3.5 12.4-11 14.6-12.7 1-0.8 2.5-2.1 3.2-2.9 3.5-4 6.3-4.3 41-4.5 31.1-0.2 37.6-0.5 65-2.4 29.5-2.1 41.4 1.8 47.9 15.8zm-46.1-4.4c-2 0.2-7.1 0.6-11.4 1-10.1 0.9-39.2 1.2-53.6 0.6-5.8-0.2-15.3-0.4-21-0.5l-10.4-0.1 0.1 20.8c0.4 55-3.9 65.2-24.3 58.7-5.2-1.7-8.5-2.5-14.8-3.5-3.6-0.6-7.2-0.9-20.2-1.8-3.1-0.2-6.5-0.6-7.6-0.8-7.9-1.5-9.1-1.1-8.6 2.6 1.2 8.2 1.9 99.3 1.2 149.9-0.4 33.5-0.4 36.2 0.2 39 1.4 6.3 4.6 10 10.6 11.9 2.8 0.9 32.8 1.3 56.8 0.6 32.4-0.8 45.7-1.2 58.2-1.7 7-0.2 27.5-0.5 45.6-0.5 31.7-0.1 32.8-0.2 33.8-0.9 1.9-1.5 2.2-3.1 1.7-10.3-1.1-14.3-1-67.4 0.3-175.2 1-79.7 1-72.4 0.1-76.3-1.9-7.6-5.3-11-12.9-12.9-3-0.8-17.7-1.1-23.8-0.6zm-116.9 17.4c-4.4 5.1-12.9 13.6-18.7 18.8-2.2 1.9-4.7 4.2-5.6 5-0.9 0.8-4.2 3.7-7.4 6.6-3.2 2.8-6 5.3-6.2 5.6-0.2 0.2-2.2 2-4.5 3.9-3.8 3.3-4.8 4.5-4.3 5 0.2 0.2 5.8 0.7 19.2 1.5 5.1 0.3 10.5 0.7 12 1 6.9 1.1 11.2 2.1 14.9 3.3 5.8 2 5.9 1.9 7.3-8.9 1.5-12.2 2.5-47.4 1.4-49.3-0.7-1-1.4-0.3-8.1 7.5zm23.9 81.5c0 2.6-1.5 4.9-8.6 13.3-2.8 3.3-6.4 7.8-8.1 10-8.6 11.3-12.9 12.2-22.4 4.7-4.8-3.9-10.5-10.1-10.5-11.5 0-0.1-0.5-1-1.1-2.1-2-3.4-2.2-4.4-1.1-5.5 2.2-2.3 5.7-1.1 11.5 4 4.4 3.7 9.5 7.4 10.4 7.4 0.3 0 2-1.9 3.8-4.3 1.8-2.4 3.8-4.8 4.4-5.5 2.1-2.2 5.1-6 8.2-10 3-4 4.2-5.3 5.7-6.1 3.2-1.8 7.8 1.6 7.8 5.6zm106.8-2.2c4.5 4.8 5.4 16.3 1.7 21.2-3 4.1-6.1 4.8-18.4 3.9-5.2-0.3-15.1-0.8-21.9-1-6.8-0.2-15.3-0.6-18.8-0.8-3.5-0.2-9.9-0.6-14.1-0.8-12.3-0.6-14-1-16.8-3.6-2.7-2.5-3.3-6.8-1.7-11.8 0.4-1.5 0.8-3.1 0.8-3.6 0-4.4 8.4-5.4 48.2-5.8 41-0.4 38.5-0.5 41 2.3zm-79.1 8.3l-2.9-0.3v1.8c0 1.1 0.1 1.9 0.3 1.9 0.2 0 8.8 0.1 19.3 0.1 18.8 0.2 33.2 0.6 46.8 1.5 7.9 0.6 8.3 0.5 7.7-2.4-0.4-2.1 0.6-2.1-28.3-1.9-15 0.1-30.1 0.1-33.6-0.1-3.5-0.2-7.7-0.5-9.3-0.6zm-27.7 44c0 2.5-0.6 3.4-4.7 7.8-3.2 3.4-4.8 5.3-11.1 13-9 11.1-12.4 12.8-18.8 9.6-6.1-3.1-16.3-17.6-14.4-20.5 2.4-3.6 7.1-1.6 13.8 6 5.5 6.1 4.3 6.6 13.2-5.1 6-8 12.9-15.2 15-15.8 4.2-1.2 7 0.8 7 5zm106.4 7.3c5 4.4 6 16.4 1.9 21.8-3 3.9-6.8 4.7-18 3.7-3.9-0.3-8.8-0.6-10.8-0.6-4.4 0-26.3-1-35.3-1.6-3.5-0.3-9.3-0.6-12.8-0.8-13.6-0.6-17.8-4.9-14.6-15 0.4-1.5 0.8-3.1 0.8-3.6 0-4.2 8.2-5.4 38.4-5.8 49.7-0.6 47.6-0.7 50.4 1.9zm-78.6 8.8c-1.3-0.2-2.5-0.2-2.7-0.1-0.5 0.6-0.3 3.4 0.2 3.4 10.9-0.1 47.4 0.5 51.9 0.8 22.6 1.5 22.3 1.5 21.8-1.6-0.4-2.3 1.6-2.2-35-2.2-18.6 0-34.9-0.2-36.2-0.3zm-33.9 40.7c-1.4 1.4-3.5 3.9-4.5 5.5-1.1 1.6-3.6 5.1-5.6 7.7-2 2.6-4.3 5.8-5.2 7.1-6.6 9.8-15.5 7.6-24.4-5.9-3.9-6-4.1-6.7-2.5-8.5 2.3-2.5 6.3-0.5 12.4 5.9 4.6 4.9 4.7 5 6.6 2.3 0.6-0.9 2.7-4 4.7-6.7 1.9-2.8 4.7-6.7 6.1-8.7 3.1-4.5 5.4-6.8 7.5-7.8 6.5-3 10.1 3.7 4.9 9.1zm104.3 8.3c9-0.2 12.4 4 12.4 15.3 0 9.8-4.7 13.4-16.5 12.6-12.7-1-18.1-1.3-28.5-1.6-23.1-0.7-41.9-2.1-44.4-3.2-4.8-2.1-6.4-6.9-4.4-13.4 0.4-1.5 0.8-3.1 0.8-3.6 0-1.5 1.1-2.5 3.9-3.3 6.6-2 10.1-2.2 43.3-2.5 16.6-0.1 31.6-0.3 33.4-0.3zm-71.5 10.9l-1.9-0.3 0.1 1.8 0.1 1.7 10.6-0.1c13.9-0.2 51.4 1.1 58.6 2 3.7 0.4 3.9 0.4 4.5-0.3 0.5-0.8 0.4-3.2-0.3-3.9-0.1-0.2-15.9-0.4-35-0.5-19.2-0.1-35.7-0.3-36.7-0.4z"/></svg>