<svg version="1.2" xmlns="http://www.w3.org/2000/svg" viewBox="0 0 176 211" width="176" height="211"><style>.a{fill:#060606}</style><path fill-rule="evenodd" class="a" d="m92.6 0.8c5.9 0 9.6 0.2 9.8 0.4 0.1 0.2 1.1 0.4 2.2 0.4 1.1 0 2.1 0.2 2.2 0.4 0.1 0.2 0.9 0.4 1.6 0.4 0.7 0 1.5 0.2 1.6 0.4 0.1 0.2 0.8 0.4 1.4 0.4 0.7 0 1.2 0.2 1.2 0.4 0 0.2 0.4 0.4 1 0.4 0.5 0 1.1 0.2 1.2 0.4 0.1 0.2 0.6 0.4 1 0.4 0.5 0 0.8 0.2 0.8 0.4 0 0.2 0.3 0.4 0.7 0.4 0.4 0 1.1 0.4 1.7 0.8 0.6 0.4 1.2 0.8 1.5 0.8 0.3 0 0.5 0.2 0.5 0.4 0 0.2 0.4 0.4 0.8 0.4 0.4 0 0.8 0.2 0.8 0.4 0 0.2 0.3 0.4 0.7 0.4 0.4 0 1 0.4 1.3 0.8 0.3 0.4 0.8 0.8 1.1 0.8 0.3 0 0.8 0.2 1.1 0.5 1 1 2.8 2.5 3 2.5 0.1 0 0.2 0.1 0.1 0.3-0.1 0.2 0.1 0.2 0.3 0.1 0.2-0.1 0.5 0 0.6 0.4 0.2 0.3 0.5 0.6 0.7 0.6 0.5 0 2.3 1.9 2 2.2-0.1 0.1 0.1 0.2 0.4 0.2 0.6 0 0.9 0.5 0.7 1.3 0 0.2 0.3 0.3 0.6 0.3 0.3 0 0.7 0.4 0.8 0.8 0.1 0.5 0.9 1.5 1.6 2.2 0.8 0.8 1.4 1.6 1.4 1.8 0 0.3 0.6 1 1.2 1.6 0.7 0.7 1.1 1.2 0.8 1.2-0.3 0-0.1 0.3 0.3 0.7 0.5 0.5 0.9 1 0.9 1.2 0 0.3 0.1 0.5 0.3 0.5 0.2 0 0.6 0.5 0.9 1.1 0.3 0.6 0.9 1.4 1.4 1.8 0.4 0.4 0.6 0.7 0.5 0.7-0.2 0 0.1 0.7 0.5 1.5 0.4 0.8 0.7 1.6 0.5 1.8-0.1 0.2 0 0.3 0.2 0.1 0.3-0.1 0.5 0 0.5 0.4 0 0.3 0.2 0.6 0.4 0.6 0.2 0 0.4 0.5 0.4 1.2 0 0.7 0.1 1.2 0.3 1.2 0.2 0 0.6 0.9 0.9 2 0.3 1.1 0.7 2 0.9 2 0.2 0 0.3 0.6 0.3 1.4 0 0.8 0.1 1.4 0.3 1.2 0.2-0.1 0.4 0.5 0.4 1.3 0.1 0.8 0.3 1.6 0.5 1.6 0.2 0.1 0.4 0.9 0.4 1.7 0 0.9 0.2 1.7 0.4 1.8 0.7 0.4 1.3 22.1 0.7 25.4-0.1 0.6-0.2 1.9-0.3 2.9 0 1.2-0.2 1.9-0.4 1.7-0.2-0.2-0.4 0.5-0.4 1.8 0 1.1-0.2 2-0.4 2-0.2 0-0.4 0.6-0.4 1.4 0 0.8-0.2 1.4-0.4 1.4-0.2 0-0.4 0.3-0.4 0.8 0 0.4-0.2 0.9-0.4 1-0.2 0.1-0.4 0.7-0.4 1.2 0 0.6-0.2 1-0.4 1-0.2 0-0.4 0.5-0.4 1 0 0.6-0.2 0.9-0.4 0.8-0.2-0.1-0.4 0.3-0.4 1 0 0.6-0.2 1.2-0.4 1.2-0.2 0-0.4 0.4-0.4 0.8 0 0.4-0.2 0.8-0.4 0.8-0.2 0-0.4 0.4-0.4 0.8 0 0.4-0.2 0.8-0.4 0.8-0.2 0-0.4 0.4-0.4 0.8 0 0.4-0.2 0.8-0.4 0.8-0.2 0-0.4 0.4-0.4 0.8 0 0.4-0.2 0.8-0.4 0.8-0.2 0-0.4 0.3-0.4 0.7 0 0.4-0.4 1-0.8 1.3-0.4 0.3-0.8 0.9-0.8 1.2 0 0.3-0.4 0.9-0.8 1.2-0.4 0.3-0.8 0.8-0.8 1 0 0.6-1.8 2.6-2.1 2.3-0.3-0.2-0.3 0-0.3 0.9 0 0.6-11.1 11.8-11.6 11.8-0.3 0-0.8 0.3-1.2 0.8-0.3 0.4-0.9 0.8-1.2 0.9-1.8 0.4-1.6 2.3 0.2 2.3 0.4 0 0.5 0.2 0.4 0.4q-0.3 0.5 1.2 0.4c0.1 0 0.7 0.2 1.3 0.5 0.6 0.4 2.3 1.2 3.8 1.9 1.5 0.7 2.7 1.5 2.7 1.7 0 0.1 0.3 0.3 0.6 0.3 0.4 0 0.9 0.2 1.2 0.5 1.3 1.2 2.2 1.9 2.7 1.9 0.3 0 0.8 0.4 1.1 0.8 0.3 0.4 0.8 0.8 1.1 0.8 0.3 0 1.1 0.5 1.7 1.2 0.6 0.7 1.4 1.2 1.8 1.2 0.5 0 0.8 0.5 0.6 1.3 0 0.2 0.2 0.3 0.4 0.1 0.4-0.2 7.9 6.9 8.1 7.8 0 0.3 1 1.4 2 2.5 1 1.1 1.9 2.2 1.9 2.5 0 0.3 0.1 0.6 0.3 0.6 0.2 0 0.6 0.5 0.9 1.1 0.3 0.6 0.7 1.2 0.9 1.3 0.1 0.1 0.3 0.5 0.4 0.8 0 0.3 0.4 0.9 0.7 1.2 0.8 0.8 1.6 2.3 1.6 2.9 0 0.3 0.4 0.7 0.8 1 0.4 0.3 0.8 0.9 0.8 1.3 0 0.5 0.2 0.7 0.4 0.6 0.2-0.1 0.4 0 0.4 0.3 0 0.7 1.7 4 2.1 4.2 0.2 0.1 0.3 0.7 0.3 1.3 0 0.7 0.1 1.2 0.3 1.2 0.2 0 0.6 0.9 0.9 1.9 0.3 1 0.7 2 0.8 2.1 0.2 0.1 0.4 0.6 0.5 1.2 0 0.5 0.2 1.1 0.4 1.2 0.1 0.1 0.4 0.9 0.5 1.8 0.2 0.9 0.4 1.8 0.6 2 0.2 0.2 0.4 1 0.4 1.7 0 0.7 0.2 1.3 0.4 1.3 0.2 0 0.4 0.4 0.4 0.8 0 0.4 0.2 0.8 0.5 0.8q0.5 0-0.1 0.4-0.6 0.4-0.1 0.4c0.3 0 0.5 0.6 0.5 1.4 0 0.8 0.1 1.4 0.3 1.2 0.2-0.1 0.4 0.5 0.4 1.3 0.1 0.8 0.3 1.7 0.5 2.1 0.2 0.4 0.4 1.3 0.4 2 0 0.6 0.2 1.2 0.4 1.2 0.2 0 0.4 0.9 0.4 2 0 1.1 0.2 2 0.4 2 0.2 0 0.4 1.1 0.4 2.6 0 1.4-0.2 2.7-0.4 2.8-0.2 0.1-0.4 0.5-0.4 0.8 0 0.8-1.8 2.6-2.6 2.6-0.3 0-0.6 0.2-0.6 0.4 0 0.5-15.9 0.5-16.2 0-0.1-0.2-4-0.4-8.8-0.4-5.3 0-8.6-0.2-8.8-0.4-0.2-0.3-11.4-0.4-32.4-0.4-21.2 0-32.2 0.1-32.2 0.4 0 0.3-8.6 0.4-25 0.4-16.2 0-25 0.1-25.2 0.4-0.1 0.2-2.8 0.4-6.6 0.4-3.5 0-6.5 0.2-6.6 0.4-0.2 0.3-2.9 0.3-5.5-0.2-0.8-0.2-2.1-0.9-2.9-1.6l-1.4-1.3v-3.9c0-2.3 0.2-3.8 0.4-3.8 0.2 0 0.4-0.6 0.4-1.4 0-0.8 0.2-1.4 0.4-1.4 0.2 0 0.4-0.5 0.4-1.2 0-0.7 0.2-1.2 0.4-1.2 0.2 0 0.4-0.7 0.4-1.6 0-0.9 0.1-1.6 0.3-1.6q0.5 0 1.6-6.3c0.1-0.7 0.3-1.4 0.5-1.5 0.2-0.1 0.4-0.7 0.4-1.2 0-0.5 0.2-1.1 0.4-1.2 0.2-0.1 0.4-0.8 0.4-1.4 0-0.6 0.2-1.3 0.4-1.4 0.2-0.1 0.4-0.8 0.4-1.4 0-0.7 0.2-1.2 0.4-1.2 0.2 0 0.4-0.5 0.4-1.2 0-0.7 0.2-1.2 0.4-1.2 0.2 0 0.4-0.6 0.4-1.4 0-0.7 0.2-1.5 0.4-1.6 0.2-0.1 0.4-0.8 0.4-1.4 0-0.7 0.2-1.2 0.4-1.2 0.2 0 0.4-0.5 0.4-1.2 0-0.7 0.2-1.2 0.4-1.2 0.2 0 0.4-0.5 0.4-1.2 0-0.6 0.2-1.3 0.4-1.4 0.2-0.1 0.4-0.6 0.4-1 0-0.5 0.2-0.8 0.4-0.8 0.2 0 0.4-0.5 0.4-1.2 0-0.7 0.2-1.2 0.4-1.2 0.2 0 0.4-0.4 0.4-0.8 0-0.4 0.2-0.8 0.4-0.8 0.2 0 0.4-0.3 0.4-0.7 0-0.4 0.4-1 0.8-1.3 0.4-0.3 0.8-0.9 0.8-1.2 0-0.3 0.4-0.9 0.8-1.2 0.4-0.3 0.8-0.8 0.8-1.1 0-0.6 5.4-6.1 6-6.1 0.3 0 0.8-0.3 1.2-0.7 0.3-0.4 1.1-1 1.7-1.3 0.6-0.3 1.1-0.7 1.1-0.9 0-0.2 0.4-0.3 0.8-0.3 0.4 0 0.8-0.2 0.8-0.4 0-0.2 0.4-0.4 0.8-0.4 0.4 0 0.8-0.2 0.8-0.4 0-0.2 0.4-0.4 0.8-0.4 0.4 0 0.8-0.2 0.8-0.4 0-0.2 0.3-0.4 0.8-0.4 0.4 0 0.9-0.2 1-0.4 0.1-0.2 0.7-0.4 1.2-0.4 0.6 0 1-0.2 1-0.4 0-0.2 0.5-0.4 1-0.4 0.6 0 1-0.2 1-0.4 0-0.2 0.5-0.4 1.2-0.4 0.7 0 1.2-0.2 1.2-0.4 0-0.2 0.4-0.4 0.8-0.4 0.4 0 0.8-0.2 0.8-0.4 0-0.2 0.5-0.4 1.2-0.4 0.7 0 1.2-0.2 1.2-0.4 0-0.2 0.4-0.4 0.8-0.4 0.4 0 0.8-0.2 0.8-0.4 0-0.2 0.4-0.4 0.8-0.4 0.4 0 0.8-0.2 0.8-0.4 0-0.2 0.4-0.4 0.8-0.4 0.4 0 0.8-0.2 0.8-0.4 0-0.2 0.4-0.4 0.8-0.4 0.4 0 0.8-0.2 0.8-0.4 0-0.2 0.4-0.4 0.8-0.4 0.4 0 0.8-0.1 0.8-0.3 0-0.2 0.8-0.8 1.8-1.5 1-0.7 1.8-1.3 1.8-1.5 0-0.2 0.3-0.3 0.6-0.3 0.4 0 0.5-0.2 0.4-0.4-0.1-0.2 0-0.4 0.4-0.4 0.4 0 0.6-0.1 0.4-0.3-0.1-0.2 0.2-0.6 0.6-0.9 0.9-0.7 1-1.2 0.3-1.2-0.3 0-0.9-0.4-1.4-0.8-0.5-0.4-1.1-0.8-1.4-0.8-0.3 0-0.8-0.4-1.1-0.8-0.3-0.4-0.7-0.8-0.9-0.8-0.2 0-0.9-0.5-1.5-1.2-0.6-0.7-1.3-1.2-1.5-1.2-0.5 0-10.5-9.7-10.5-10.1 0-0.2-0.5-0.9-1.2-1.6-0.7-0.7-1.2-1.5-1.2-1.8 0-0.3-0.1-0.5-0.3-0.5-0.4 0-1.7-2.8-1.7-3.6 0-0.5-0.1-0.5-0.4 0-0.3 0.5-0.4 0.4-0.4-0.3 0-0.5-0.2-0.9-0.4-0.9-0.2 0-0.4-0.4-0.4-0.8 0-0.4-0.2-0.8-0.4-0.8-0.2 0-0.4-0.4-0.4-0.8 0-0.4-0.2-0.8-0.4-0.8-0.2 0-0.4-0.3-0.4-0.7 0-0.9-0.9-2.9-1.3-2.9-0.2 0-0.3-0.5-0.3-1.2 0-0.7-0.2-1.2-0.4-1.2-0.2 0-0.4-0.5-0.4-1.2 0-0.7-0.2-1.2-0.4-1.2-0.2 0-0.4-0.7-0.4-1.6 0-0.9-0.2-1.6-0.4-1.6-0.2 0-0.4-1.1-0.4-2.4 0-1.3-0.2-2.4-0.4-2.4-0.3 0-0.4-3.5-0.4-9.6 0-5.9 0.2-9.6 0.4-9.8 0.2-0.1 0.4-1.2 0.4-2.4 0-1.2 0.2-2.2 0.4-2.2 0.2 0 0.4-0.9 0.4-2 0-1.1 0.2-2 0.4-2 0.2 0 0.4-0.5 0.4-1.2 0-0.6 0.2-1.3 0.4-1.4 0.2-0.1 0.4-0.8 0.4-1.4 0-0.6 0.2-1.3 0.4-1.4 0.2-0.1 0.4-0.7 0.4-1.2 0-0.6 0.2-1 0.4-1 0.2 0 0.4-0.4 0.4-0.8 0-0.4 0.2-0.8 0.4-0.8 0.2 0 0.4-0.5 0.4-1.2 0-0.7 0.2-1.2 0.4-1.2 0.2 0 0.4-0.4 0.4-0.8 0-0.4 0.2-0.8 0.4-0.8 0.2 0 0.4-0.4 0.4-0.8 0-0.4 0.2-0.8 0.4-0.8 0.2 0 0.4-0.3 0.4-0.6 0-0.8 1.9-4.9 3.3-6.9 0.6-0.9 1.1-1.8 1.1-2 0-0.2 0.4-0.6 0.8-0.9 0.4-0.3 0.8-0.9 0.8-1.2 0-0.3 0.4-0.9 0.8-1.2 0.4-0.3 0.8-0.8 0.8-1.1 0-0.6 9.5-10.2 11.1-11.1 0.7-0.4 1.3-0.9 1.3-1.1 0-0.2 0.3-0.3 0.7-0.3 0.4 0 1-0.4 1.3-0.8 0.3-0.4 0.9-0.8 1.3-0.8 0.4 0 0.7-0.2 0.7-0.4 0-0.2 0.4-0.4 0.8-0.4 0.4 0 0.8-0.2 0.8-0.4 0-0.2 0.4-0.4 0.8-0.4 0.4 0 0.8-0.2 0.8-0.4 0-0.2 0.4-0.4 0.8-0.4 0.4 0 0.8-0.2 0.8-0.4 0-0.2 0.4-0.4 0.8-0.4 0.4 0 0.8-0.2 0.8-0.4 0-0.2 0.4-0.4 0.8-0.4 0.4 0 0.8-0.2 0.8-0.4 0-0.2 0.4-0.4 1-0.4 0.5 0 1.1-0.2 1.2-0.4 0.1-0.2 0.7-0.4 1.2-0.4 0.6 0 1-0.2 1-0.4 0-0.2 0.5-0.4 1.2-0.4 0.6 0 1.3-0.2 1.4-0.4 0.1-0.2 0.9-0.4 1.6-0.4 0.7 0 1.5-0.2 1.6-0.4 0.1-0.2 1.2-0.4 2.4-0.4 1.2 0 2.2-0.2 2.2-0.4 0-0.3 3.5-0.4 9.6-0.4zm-7.8 15.7c-5.2 0.9-8.8 1.7-9.9 2.3-0.4 0.2-0.9 0.4-1.1 0.4-0.9 0-6.4 2.9-9.3 4.9-10.9 7.6-17.6 19.1-20.6 35.5-1.1 5.7-1.3 8-1.3 14.1 0 6.2 0.2 7.6 1.3 12.1 1.4 5.6 6.1 13.2 10.4 16.8 4.7 4 8.5 6.6 14.9 10 7 3.7 8.4 6.5 6.1 12.5-3.7 10-12.5 17.4-28.3 23.8-1 0.4-2.4 1-3.1 1.3-0.7 0.3-2 0.9-2.8 1.2-9.2 3.9-12.4 6.8-14.9 13.2-0.5 1.3-1 2.8-1.2 3.2-0.2 0.4-0.7 1.8-1.1 3-0.5 1.2-1.1 3-1.4 3.9-1.3 3.2-3.1 10.7-3.1 12.4 0 1-0.3 2.1-0.6 2.7-3 4.5-0.7 6.1 7.7 5.6 2.6-0.1 13.6-0.4 24.5-0.6 10.9-0.2 32.8-0.6 48.6-0.9 33.6-0.6 42.3-0.6 51.8-0.1 6.7 0.3 6.9 0.3 6.6-0.4-0.1-0.5-0.4-1.7-0.6-2.8-1.8-10.2-7.6-24.3-11.7-28.7-0.3-0.3-1.1-1.3-1.9-2.3-4.7-6.2-12.3-12.3-21.2-16.9-1.7-0.9-3.7-2-4.6-2.5-3.5-1.8-7-4.8-9.5-8.2-6.9-9.1-4.6-20.1 4-19.9l2.7 0.1 3.9-2.9c9-6.9 14.4-15 17.4-26.3 6.2-23.1-2.1-47.6-20.4-60.2-7.4-5.1-8.2-5.5-14.7-6.3-4-0.6-13.7-0.6-16.6 0z"/></svg>